<?xml version="1.0" standalone="no"?>
<!DOCTYPE svg PUBLIC "-//W3C//DTD SVG 1.1//EN" "http://www.w3.org/Graphics/SVG/1.1/DTD/svg11.dtd" >
<svg xmlns="http://www.w3.org/2000/svg" xmlns:xlink="http://www.w3.org/1999/xlink" version="1.1">
<metadata>
Created by FontForge 20201107 at Fri Jun 13 11:49:50 2025
 By 
Glancyr (c) Drizy Studio 2022
</metadata>
<defs>
<font id="Glancyr-SemiBold" horiz-adv-x="1255" >
  <font-face 
    font-family="Glancyr SemBd"
    font-weight="600"
    font-stretch="normal"
    units-per-em="2048"
    panose-1="0 0 0 0 0 0 0 0 0 0"
    ascent="1536"
    descent="-512"
    x-height="1024"
    cap-height="1434"
    bbox="-406 -489 2238 2101"
    underline-thickness="102"
    underline-position="-255"
    unicode-range="U+000D-FB06"
  />
<missing-glyph horiz-adv-x="512" 
 />
    <glyph glyph-name="f_f" unicode="ff" horiz-adv-x="1953" 
d="M236 1116q0 212 100 316t315 104q209 0 312.5 -95.5t103.5 -324.5h-291q0 66 -27.5 93.5t-84.5 27.5q-53 0 -79 -31.5t-26 -105.5v-76h543v92q0 212 101 316t315 104q209 0 312 -95.5t103 -324.5h-291q0 66 -27.5 93.5t-84.5 27.5q-53 0 -78 -31.5t-25 -105.5v-76h482
v-291h-482v-733h-325v733h-543v-733h-323v733h-195v291h195v92z" />
    <glyph glyph-name="fi" unicode="fi" horiz-adv-x="1449" 
d="M236 1116q0 212 137.5 316t431.5 104q285 0 426 -95.5t141 -324.5h-291q0 65 -67 93t-205 28q-126 0 -188 -31.5t-62 -105.5v-76h813v-1024h-323v733h-490v-733h-323v733h-195v291h195v92z" />
    <glyph glyph-name="fl" unicode="fl" horiz-adv-x="1552" 
d="M236 1116q0 212 142 316t447 104q148 0 259.5 -20t195 -65t127 -121t43.5 -183v-1147h-324v1055q0 46 -12.5 78.5t-34.5 53t-60.5 31.5t-81.5 15t-106 4q-138 0 -205 -31.5t-67 -105.5v-76h481v-291h-481v-733h-323v733h-195v291h195v92z" />
    <glyph glyph-name="f_f_i" unicode="ffi" horiz-adv-x="2316" 
d="M236 1116q0 212 100 316t315 104q209 0 312.5 -95.5t103.5 -324.5h-291q0 66 -27.5 93.5t-84.5 27.5q-53 0 -79 -31.5t-26 -105.5v-76h543v92q0 212 137.5 316t431.5 104q141 0 243 -21.5t176.5 -69.5t111 -130t36.5 -199h-288q0 65 -67.5 93t-207.5 28
q-126 0 -187 -31.5t-61 -105.5v-76h811v-1024h-323v733h-488v-733h-325v733h-543v-733h-323v733h-195v291h195v92z" />
    <glyph glyph-name="f_t" unicode="ft" horiz-adv-x="1949" 
d="M236 1116q0 212 100 316t315 104q209 0 312.5 -95.5t103.5 -324.5h-291q0 66 -27.5 93.5t-84.5 27.5q-53 0 -79 -31.5t-26 -105.5v-76h531l135 410h188v-410h485v-291h-485v-327q0 -138 103 -138q56 0 85 27.5t29 93.5h291q0 -117 -27.5 -199t-83 -130t-130.5 -69.5
t-177 -21.5q-212 0 -312.5 101.5t-100.5 312.5v350h-531v-733h-323v733h-195v291h195v92z" />
    <glyph glyph-name=".notdef" horiz-adv-x="512" 
 />
    <glyph glyph-name="uni0000" horiz-adv-x="0" 
 />
    <glyph glyph-name="uni0000" horiz-adv-x="0" 
 />
    <glyph glyph-name="uni000D" unicode="&#xd;" horiz-adv-x="512" 
 />
    <glyph glyph-name="space" unicode=" " horiz-adv-x="532" 
 />
    <glyph glyph-name="exclam" unicode="!" horiz-adv-x="497" 
d="M88 1434h324l-52 -942h-221zM61 158q0 94 45.5 140t143.5 46q97 0 141.5 -45.5t44.5 -140.5q0 -96 -44.5 -142.5t-141.5 -46.5t-143 46.5t-46 142.5z" />
    <glyph glyph-name="quotedbl" unicode="&#x22;" horiz-adv-x="784" 
d="M98 928l-37 506h189l-37 -506h-115zM416 928l-37 506h188l-37 -506h-114z" />
    <glyph glyph-name="numbersign" unicode="#" horiz-adv-x="1269" 
d="M66 836v188h350l139 410h201l-140 -410h222l137 410h201l-138 -410h170v-188h-233l-109 -324h342v-186h-405l-111 -326h-200l110 326h-221l-109 -326h-200l108 326h-114v186h178l108 324h-286zM444 512h222l108 324h-221z" />
    <glyph glyph-name="dollar" unicode="$" horiz-adv-x="1429" 
d="M621 547q-105 17 -184 38.5t-151.5 57.5t-118 83.5t-72.5 117.5t-27 160q0 227 132.5 335.5t420.5 122.5v156h188v-156q265 -16 403 -130.5t138 -354.5h-324q0 81 -57.5 118.5t-159.5 47.5v-254q109 -17 191 -40t153.5 -60.5t117 -87t71.5 -121t26 -162.5
q0 -218 -134.5 -325t-424.5 -122v-299h-188v299q-273 14 -416.5 129.5t-143.5 356.5h324q0 -83 62.5 -121.5t173.5 -46.5v258zM621 915v230q-203 -12 -203 -117q0 -46 44 -69t159 -44zM809 520v-233q106 6 156.5 32.5t50.5 79.5q0 36 -29 61t-70.5 37.5t-107.5 22.5z" />
    <glyph glyph-name="percent" unicode="%" horiz-adv-x="1632" 
d="M61 1087q0 377 316 377q313 0 313 -377q0 -380 -313 -380q-316 0 -316 380zM301 0l813 1434h217l-813 -1434h-217zM260 1087q0 -192 117 -192q115 0 115 192q0 189 -115 189q-61 0 -89 -47t-28 -142zM942 350q0 377 315 377q314 0 314 -377q0 -381 -314 -381
q-315 0 -315 381zM1141 350q0 -192 116 -192q115 0 115 192q0 189 -115 189q-61 0 -88.5 -47t-27.5 -142z" />
    <glyph glyph-name="ampersand" unicode="&#x26;" horiz-adv-x="1712" 
d="M932 655l274 -229q111 106 111 287v26h307v-24q0 -131 -40 -261.5t-130 -236.5l258 -217h-418l-65 51q-178 -82 -420 -82q-275 0 -442 52.5t-236.5 150t-69.5 250.5q0 256 234 364q-109 132 -109 250q0 206 131.5 317t397.5 111q528 0 528 -450q0 -76 -24.5 -137
t-69.5 -102.5t-97.5 -69.5t-119.5 -50zM653 870q127 22 183.5 52t56.5 90q0 137 -178 137q-98 0 -137 -32.5t-39 -92.5q0 -38 30 -75t84 -79zM598 537q-14 11 -41 28q-76 -24 -109.5 -55.5t-33.5 -81.5q0 -36 16.5 -60.5t59.5 -44t123.5 -29t201.5 -9.5q49 0 98 8z" />
    <glyph glyph-name="quotesingle" unicode="'" horiz-adv-x="311" 
d="M98 928l-37 506h189l-37 -506h-115z" />
    <glyph glyph-name="parenleft" unicode="(" horiz-adv-x="657" 
d="M250 543q0 -139 23.5 -281.5t66 -263.5t110 -197.5t146.5 -76.5v-154q-87 0 -161.5 36t-128.5 96.5t-97 143t-70 171.5t-45 186.5t-25.5 183.5t-7.5 166t7.5 166t25.5 183.5t45 186.5t70 171.5t97 143t128.5 96.5t161.5 36v-154q-79 0 -146.5 -77t-110 -199.5t-66 -269.5
t-23.5 -293z" />
    <glyph glyph-name="parenright" unicode=")" horiz-adv-x="657" 
d="M408 543q0 146 -23.5 293t-66.5 269.5t-110.5 199.5t-146.5 77v154q87 0 161.5 -36t128.5 -96.5t97 -143t70 -171.5t45 -186.5t25.5 -183.5t7.5 -166t-7.5 -166t-25.5 -183.5t-45 -186.5t-70 -171.5t-97 -143t-128.5 -96.5t-161.5 -36v154q79 0 146.5 76.5t110.5 197.5
t66.5 263.5t23.5 281.5z" />
    <glyph glyph-name="asterisk" unicode="*" horiz-adv-x="1015" 
d="M416 1536h186l-14 -367l332 78l34 -186l-313 -47l211 -283l-158 -106l-186 299l-186 -299l-158 106l213 283l-316 47l35 186l334 -80z" />
    <glyph glyph-name="plus" unicode="+" horiz-adv-x="737" 
d="M61 455v188h213v213h189v-213h213v-188h-213v-213h-189v213h-213z" />
    <glyph glyph-name="comma" unicode="," horiz-adv-x="468" 
d="M68 139q0 87 41 129.5t129 42.5t129 -42.5t41 -129.5q0 -67 -15 -133t-47.5 -131.5t-90.5 -118.5t-136 -82l-39 58q123 113 149 237q-84 3 -122.5 44.5t-38.5 125.5z" />
    <glyph glyph-name="hyphen" unicode="-" horiz-adv-x="655" 
d="M61 387v188h533v-188h-533z" />
    <glyph glyph-name="period" unicode="." horiz-adv-x="464" 
d="M61 139q0 87 41 129.5t129 42.5q90 0 131 -42.5t41 -129.5q0 -86 -41 -128t-131 -42q-88 0 -129 42t-41 128z" />
    <glyph glyph-name="slash" unicode="/" horiz-adv-x="899" 
d="M0 0l690 1434h209l-690 -1434h-209z" />
    <glyph glyph-name="zero" unicode="0" horiz-adv-x="1327" 
d="M61 717q0 747 605 747q600 0 600 -747q0 -748 -600 -748q-605 0 -605 748zM414 717q0 -217 62 -324.5t190 -107.5q249 0 249 432t-249 432q-137 0 -194.5 -105t-57.5 -327z" />
    <glyph glyph-name="one" unicode="1" horiz-adv-x="792" 
d="M348 0v1126h-307v308h649v-1434h-342z" />
    <glyph glyph-name="two" unicode="2" horiz-adv-x="1284" 
d="M61 0v311q0 56 7.5 104t19.5 86t34.5 71.5t44 58t57.5 48t66 39.5t77 34t84 30t94 29q21 6 59 18q51 15 74.5 22.5t59 20t50.5 20.5t35 21t27.5 26t13.5 30.5t6 38.5q0 141 -208 141q-47 0 -80.5 -3t-70 -13.5t-59 -28.5t-37 -50t-14.5 -77h-323q0 133 38.5 227.5
t114 151t177.5 82.5t239 26q298 0 437 -111t139 -354q0 -63 -12.5 -115t-32.5 -91.5t-56.5 -74t-72.5 -58.5t-92.5 -48t-105 -41t-120.5 -39q-18 -5 -56 -16.5t-57 -17.5t-52.5 -17t-52 -19.5t-43.5 -21t-39 -25.5t-28 -29t-20 -35t-6 -40v-4h840v-307h-1156z" />
    <glyph glyph-name="three" unicode="3" horiz-adv-x="1284" 
d="M434 870h139q86 0 143 12t84 35t36.5 46.5t9.5 56.5q0 129 -201 129q-46 0 -78 -3t-65 -13.5t-53 -28.5t-33 -50t-13 -77h-323q0 260 141 373.5t414 113.5q289 0 425 -105.5t136 -332.5q0 -169 -119 -291q146 -116 146 -307q0 -244 -142 -351.5t-454 -107.5
q-284 0 -435 114.5t-151 373.5h324q0 -45 15 -77t38.5 -50t61.5 -28.5t74 -13.5t87 -3q119 0 175 30.5t56 98.5q0 149 -294 149h-144v307z" />
    <glyph glyph-name="four" unicode="4" horiz-adv-x="1294" 
d="M748 0v313h-707v308l707 813h342v-813h163v-308h-163v-313h-342zM446 621h302v346z" />
    <glyph glyph-name="five" unicode="5" horiz-adv-x="1271" 
d="M145 1434h977v-308h-678l-18 -215h192q106 0 191 -12t162 -43t128 -80.5t81 -127.5t30 -181q0 -265 -140 -381.5t-445 -116.5q-288 0 -436 114t-148 374h324q0 -44 15 -76t38 -50t58.5 -29t68.5 -14t76 -3q136 0 187.5 44t51.5 120q0 155 -297 155h-489z" />
    <glyph glyph-name="six" unicode="6" horiz-adv-x="1335" 
d="M676 1464q276 0 417.5 -114.5t141.5 -374.5h-326q0 46 -16.5 79.5t-39.5 51t-55.5 28t-56.5 13t-51 2.5q-123 0 -187 -68.5t-83 -220.5q109 39 239 39q92 0 175 -12t165.5 -44t141.5 -81t96 -129t37 -182q0 -227 -145.5 -354.5t-432.5 -127.5q-313 0 -474 189.5
t-161 558.5q0 379 151.5 563t463.5 184zM428 530q25 -126 89.5 -185.5t178.5 -59.5q102 0 164 43.5t62 111.5q0 44 -22 74t-62 44.5t-81.5 20t-94.5 5.5q-123 0 -234 -54z" />
    <glyph glyph-name="seven" unicode="7" horiz-adv-x="1153" 
d="M61 1126v308h1031v-308l-576 -1126h-383l578 1126h-650z" />
    <glyph glyph-name="eight" unicode="8" horiz-adv-x="1333" 
d="M111 1012q0 452 557 452q555 0 555 -452q0 -159 -111 -273q160 -123 160 -317q0 -453 -604 -453q-607 0 -607 453q0 194 150 315q-100 115 -100 275zM463 1012q0 -135 207 -135q200 0 200 135q0 137 -200 137q-115 0 -161 -32.5t-46 -104.5zM414 422q0 -137 256 -137
q250 0 250 137q0 139 -250 139q-140 0 -198 -34.5t-58 -104.5z" />
    <glyph glyph-name="nine" unicode="9" horiz-adv-x="1335" 
d="M659 -31q-136 0 -236.5 26.5t-174 83.5t-111 152t-37.5 228h324q0 -46 16.5 -79.5t40 -51t56.5 -28t57 -13t51 -2.5q123 0 187 68t81 220q-103 -38 -239 -38q-92 0 -174.5 12t-164.5 44t-141.5 81t-96 129t-36.5 182q0 227 145.5 354t432.5 127q314 0 474.5 -189
t160.5 -558q0 -379 -152 -563.5t-463 -184.5zM907 903q-25 125 -90 185.5t-178 60.5q-101 0 -163 -44t-62 -112q0 -44 22 -74t62 -44t81.5 -19.5t94.5 -5.5q124 0 233 53z" />
    <glyph glyph-name="colon" unicode=":" horiz-adv-x="464" 
d="M61 856q0 87 41 129.5t129 42.5q90 0 131 -42.5t41 -129.5q0 -86 -41 -128t-131 -42q-88 0 -129 42t-41 128zM61 139q0 87 41 129.5t129 42.5q90 0 131 -42.5t41 -129.5q0 -86 -41 -128t-131 -42q-88 0 -129 42t-41 128z" />
    <glyph glyph-name="semicolon" unicode=";" horiz-adv-x="468" 
d="M63 856q0 87 41.5 129.5t131.5 42.5q88 0 129 -42.5t41 -129.5q0 -86 -41 -128t-129 -42q-90 0 -131.5 42t-41.5 128zM68 139q0 87 41 129.5t129 42.5t129 -42.5t41 -129.5q0 -67 -15 -133t-47.5 -131.5t-90.5 -118.5t-136 -82l-39 58q123 113 149 237q-84 3 -122.5 44.5
t-38.5 125.5z" />
    <glyph glyph-name="less" unicode="&#x3c;" horiz-adv-x="890" 
d="M61 532v203l768 318v-203l-522 -217l522 -215v-203z" />
    <glyph glyph-name="equal" unicode="=" horiz-adv-x="737" 
d="M61 676v188h615v-188h-615zM61 295v188h615v-188h-615z" />
    <glyph glyph-name="greater" unicode="&#x3e;" horiz-adv-x="890" 
d="M829 735v-203l-768 -317v203l523 215l-523 217v203z" />
    <glyph glyph-name="question" unicode="?" horiz-adv-x="1243" 
d="M340 492q0 79 27 140t70 98.5t95 67t104.5 51t95.5 43.5t70 53t27 71q0 133 -196 133q-44 0 -76 -3t-66.5 -13.5t-56 -28.5t-35.5 -50t-14 -77h-324q0 133 37.5 227.5t111.5 151t174 82.5t234 26q290 0 427 -103t137 -321q0 -90 -32.5 -159.5t-84 -112t-114 -74.5
t-125 -53.5t-114 -41.5t-84 -46.5t-32.5 -60.5h-256zM301 158q0 95 45.5 140.5t142.5 45.5t142 -45.5t45 -140.5q0 -96 -45 -142.5t-142 -46.5t-142.5 46.5t-45.5 142.5z" />
    <glyph glyph-name="at" unicode="@" horiz-adv-x="1939" 
d="M539 596q0 201 99.5 308.5t272.5 107.5q169 0 234 -127v102h256v-434q0 -44 29.5 -81.5t68.5 -37.5q31 0 52 12t33 31t18.5 54.5t8 69.5t1.5 89q0 545 -641 545q-289 0 -466 -173t-177 -454q0 -141 44.5 -266.5t126 -220t206.5 -150t276 -55.5q181 0 290 44.5t109 119.5
h224q0 -71 -23.5 -129.5t-62 -98t-92.5 -70.5t-109 -48.5t-117.5 -28.5t-112.5 -14.5t-100 -3.5q-210 0 -385 71.5t-293 195.5t-183 292t-65 360q0 254 113.5 449t320 302t476.5 107q204 0 370.5 -50.5t286.5 -147t185 -245t65 -337.5q0 -128 -28.5 -219t-82 -143
t-122 -75.5t-156.5 -23.5q-235 0 -315 178q-49 -219 -259 -219q-168 0 -272 108.5t-104 305.5zM805 596q0 -182 170 -182t170 180q0 184 -170 184q-93 0 -131.5 -44t-38.5 -138z" />
    <glyph glyph-name="A" unicode="A" horiz-adv-x="1404" 
d="M-41 0l561 1434h365l561 -1434h-367l-80 207h-593l-80 -207h-367zM526 514h353l-177 453z" />
    <glyph glyph-name="B" unicode="B" horiz-adv-x="1474" 
d="M102 0v1434h711q161 0 270 -27t172.5 -83.5t90 -134.5t26.5 -190q0 -149 -94 -254q156 -113 156 -309q0 -112 -30 -190.5t-99 -135t-186 -83.5t-288 -27h-729zM444 870h349q123 0 175 29t52 100q0 65 -54 96t-173 31h-349v-256zM444 307h387q134 0 192 30t58 99
q0 127 -247 127h-390v-256z" />
    <glyph glyph-name="C" unicode="C" horiz-adv-x="1531" 
d="M831 -31q-390 0 -580 185t-190 563t178 562.5t543 184.5q346 0 523.5 -125.5t177.5 -402.5h-324q0 213 -381 213q-197 0 -280.5 -101t-83.5 -329q0 -226 102.5 -330t317.5 -104q55 0 97.5 3.5t89 15.5t76.5 32.5t50 56.5t20 86h324q0 -140 -46.5 -240t-135.5 -158.5
t-206.5 -85t-271.5 -26.5z" />
    <glyph glyph-name="D" unicode="D" horiz-adv-x="1490" 
d="M102 0v1434h596q363 0 547.5 -181t184.5 -536t-184.5 -536t-547.5 -181h-596zM444 307h261q185 0 279.5 104t94.5 308q0 201 -94.5 304t-279.5 103h-261v-819z" />
    <glyph glyph-name="E" unicode="E" horiz-adv-x="1347" 
d="M102 0v1434h1168v-308h-826v-256h744v-307h-744v-256h846v-307h-1188z" />
    <glyph glyph-name="F" unicode="F" horiz-adv-x="1294" 
d="M102 0v1434h1151v-308h-809v-256h727v-307h-727v-563h-342z" />
    <glyph glyph-name="G" unicode="G" horiz-adv-x="1574" 
d="M684 -31q-295 0 -459 189t-164 559q0 378 178 562.5t543 184.5q346 0 523.5 -125.5t177.5 -402.5h-324q0 213 -381 213q-197 0 -280.5 -101t-83.5 -329q0 -434 362 -434q179 0 326 213h-350v290h741v-788h-324v248q-221 -279 -485 -279z" />
    <glyph glyph-name="H" unicode="H" horiz-adv-x="1519" 
d="M102 0v1434h342v-564h631v564h342v-1434h-342v563h-631v-563h-342z" />
    <glyph glyph-name="I" unicode="I" horiz-adv-x="546" 
d="M102 0v1434h342v-1434h-342z" />
    <glyph glyph-name="J" unicode="J" horiz-adv-x="1282" 
d="M1200 604q0 -178 -37 -301t-115.5 -196.5t-189.5 -105.5t-268 -32q-130 0 -228 26.5t-171.5 85t-111.5 158.5t-38 240h324q0 -58 20 -98t56 -60t75.5 -28t89.5 -8q130 0 192 65.5t62 214.5v869h340v-830z" />
    <glyph glyph-name="K" unicode="K" horiz-adv-x="1435" 
d="M102 0v1434h342v-1434h-342zM862 717l574 -717h-418l-574 717l574 717h418z" />
    <glyph glyph-name="L" unicode="L" horiz-adv-x="1294" 
d="M102 0v1434h342v-1127h809v-307h-1151z" />
    <glyph glyph-name="M" unicode="M" horiz-adv-x="1906" 
d="M102 0v1434h342l508 -961l510 961h342v-1434h-342v756l-401 -756h-217l-400 756v-756h-342z" />
    <glyph glyph-name="N" unicode="N" horiz-adv-x="1507" 
d="M102 0v1434h342l621 -865v865h340v-1434h-340l-621 866v-866h-342z" />
    <glyph glyph-name="O" unicode="O" horiz-adv-x="1591" 
d="M61 717q0 747 734 747q735 0 735 -747q0 -748 -735 -748q-734 0 -734 748zM414 717q0 -432 381 -432q383 0 383 432q0 216 -94.5 324t-288.5 108q-202 0 -291.5 -106t-89.5 -326z" />
    <glyph glyph-name="P" unicode="P" horiz-adv-x="1429" 
d="M102 0v1434h652q171 0 290 -31t190 -96t102.5 -156.5t31.5 -220.5q0 -128 -31.5 -219.5t-102.5 -156.5t-190 -96.5t-290 -31.5h-310v-426h-342zM444 733h299q86 0 141 12t84 39t39.5 60.5t10.5 85.5q0 53 -10.5 86.5t-39.5 60t-84 38t-141 11.5h-299v-393z" />
    <glyph glyph-name="Q" unicode="Q" horiz-adv-x="1591" 
d="M61 717q0 747 734 747q735 0 735 -747q0 -484 -309 -656l120 -254l-268 -108l-131 278q-63 -8 -147 -8q-734 0 -734 748zM414 717q0 -432 383 -432l-129 274l268 109l135 -289q107 110 107 338q0 216 -94.5 324t-288.5 108q-202 0 -291.5 -106t-89.5 -326z" />
    <glyph glyph-name="R" unicode="R" horiz-adv-x="1429" 
d="M102 0v1434h652q171 0 290 -30t190 -92t102.5 -148.5t31.5 -207.5q0 -199 -88 -311.5t-293 -148.5l375 -496h-414l-362 477h-142v-477h-342zM444 784h299q113 0 174.5 20.5t81 55.5t19.5 96t-19.5 95.5t-80.5 54.5t-175 20h-299v-342z" />
    <glyph glyph-name="S" unicode="S" horiz-adv-x="1429" 
d="M621 547q-105 17 -184 38.5t-151.5 57.5t-118 83.5t-72.5 117.5t-27 160q0 245 154.5 352.5t494.5 107.5q152 0 265.5 -26t197.5 -82.5t127 -151t43 -227.5h-324q0 37 -12 65.5t-36.5 46.5t-53.5 30t-70.5 18t-79.5 8t-88 2q-140 0 -204 -29t-64 -90q0 -57 69 -79.5
t293 -55.5q114 -17 200 -39.5t162 -59.5t123.5 -87t75 -123t27.5 -166q0 -236 -159 -342.5t-504 -106.5q-313 0 -478.5 114.5t-165.5 373.5h324q0 -44 19.5 -76t50.5 -50.5t80 -29t95 -13.5t109 -3q142 0 209.5 26.5t67.5 87.5q0 24 -11 42t-34.5 31.5t-48 22.5t-65 16.5
t-72 12t-82 11.5t-82.5 12z" />
    <glyph glyph-name="T" unicode="T" horiz-adv-x="1243" 
d="M451 0v1126h-426v308h1194v-308h-426v-1126h-342z" />
    <glyph glyph-name="U" unicode="U" horiz-adv-x="1466" 
d="M733 285q309 0 309 280v869h342v-811q0 -186 -41 -313.5t-126.5 -202t-202 -106.5t-281.5 -32q-132 0 -232 20t-181 66t-132 121t-78.5 186.5t-27.5 260.5v811h342v-869q0 -280 309 -280z" />
    <glyph glyph-name="V" unicode="V" horiz-adv-x="1337" 
d="M1378 1434l-526 -1434h-367l-526 1434h367l342 -936l344 936h366z" />
    <glyph glyph-name="W" unicode="W" horiz-adv-x="2033" 
d="M1200 1434l254 -836l256 836h365l-437 -1434h-366l-254 836l-256 -836h-365l-438 1434h367l254 -836l254 836h366z" />
    <glyph glyph-name="X" unicode="X" horiz-adv-x="1503" 
d="M961 717l542 -717h-416l-335 438l-336 -438h-416l545 717l-545 717h416l336 -439l335 439h416z" />
    <glyph glyph-name="Y" unicode="Y" horiz-adv-x="1386" 
d="M522 0v664l-522 770h406l286 -422l289 422h405l-522 -770v-664h-342z" />
    <glyph glyph-name="Z" unicode="Z" horiz-adv-x="1300" 
d="M61 1126v308h1178v-308l-719 -819h719v-307h-1178v307l719 819h-719z" />
    <glyph glyph-name="bracketleft" unicode="[" horiz-adv-x="512" 
d="M61 -410v1946h390v-188h-201v-1569h201v-189h-390z" />
    <glyph glyph-name="backslash" unicode="\" horiz-adv-x="899" 
d="M899 0h-209l-690 1434h209z" />
    <glyph glyph-name="bracketright" unicode="]" horiz-adv-x="512" 
d="M451 -410h-390v189h201v1569h-201v188h390v-1946z" />
    <glyph glyph-name="asciicircum" unicode="^" horiz-adv-x="960" 
d="M379 1434h203l317 -768h-203l-215 522l-217 -522h-203z" />
    <glyph glyph-name="underscore" unicode="_" horiz-adv-x="798" 
d="M-61 -385v186h921v-186h-921z" />
    <glyph glyph-name="a" unicode="a" horiz-adv-x="1222" 
d="M815 645q0 146 -217 146q-41 0 -70.5 -3.5t-65 -14.5t-54.5 -37t-19 -66h-291q0 204 130.5 294.5t375.5 90.5q113 0 194.5 -12.5t149 -43.5t108.5 -83.5t63 -133t22 -192.5v-590h-326v133q-31 -80 -110 -122t-228 -42q-76 0 -137.5 9t-118.5 31.5t-95.5 59t-61.5 95
t-23 135.5q0 63 20 112.5t54.5 83.5t87.5 57.5t113 37t137 20.5l362 33v2zM815 422l-291 -27q-77 -6 -113 -26t-36 -64q0 -72 157 -72q125 0 201.5 34.5t81.5 84.5v70z" />
    <glyph glyph-name="b" unicode="b" horiz-adv-x="1234" 
d="M426 0h-324v1536h324v-647q80 166 297 166q207 0 329 -141t122 -402q0 -130 -35.5 -234.5t-98 -171t-145.5 -102t-180 -35.5q-205 0 -289 172v-141zM838 512q0 124 -47.5 184t-155.5 60q-209 0 -209 -244q0 -120 53 -182t156 -62q98 0 150.5 62.5t52.5 181.5z" />
    <glyph glyph-name="c" unicode="c" horiz-adv-x="1183" 
d="M631 1055q235 0 367 -124.5t132 -316.5h-290q0 65 -57 103.5t-152 38.5q-236 0 -236 -242q0 -246 256 -246q97 0 149 38t52 104h291q0 -194 -131 -317.5t-377 -123.5q-281 0 -427.5 138t-146.5 405q0 273 138 408t432 135z" />
    <glyph glyph-name="d" unicode="d" horiz-adv-x="1275" 
d="M848 0v147q-83 -178 -305 -178q-213 0 -347.5 142t-134.5 401q0 263 126 403t348 140q229 0 313 -172v653h326v-1536h-326zM395 512q0 -120 58 -182t168 -62q227 0 227 244t-227 244q-123 0 -174.5 -59.5t-51.5 -184.5z" />
    <glyph glyph-name="e" unicode="e" horiz-adv-x="1204" 
d="M1143 461v-41h-740q18 -99 76.5 -143t157.5 -44q88 0 146.5 34t58.5 81h288q0 -173 -128.5 -276t-364.5 -103q-287 0 -431.5 137.5t-144.5 405.5q0 261 140 402t399 141q287 0 415 -145t128 -449zM416 643h411q-19 73 -73.5 110.5t-137.5 37.5q-70 0 -122 -37.5
t-78 -110.5z" />
    <glyph glyph-name="f" unicode="f" horiz-adv-x="1087" 
d="M236 1116q0 212 100 316t315 104q209 0 312.5 -95.5t103.5 -324.5h-291q0 66 -27.5 93.5t-84.5 27.5q-53 0 -79 -31.5t-26 -105.5v-76h481v-291h-481v-733h-323v733h-195v291h195v92z" />
    <glyph glyph-name="g" unicode="g" horiz-adv-x="1224" 
d="M1139 1282v-242q-102 60 -228 60q-45 0 -89.5 -14t-67.5 -42q356 -49 356 -348q0 -358 -508 -358q-174 0 -223 -6.5t-49 -34.5q0 -26 57 -39t242 -35q213 -24 280 -39q160 -37 216 -130q38 -64 38 -163q0 -321 -522 -321q-302 0 -441 90t-139 289h291q0 -62 79.5 -88.5
t234.5 -26.5q119 0 175 15t56 49q0 12 -5.5 20t-19.5 13.5t-30 8t-43.5 5t-54.5 3.5t-68.5 4t-79.5 7q-212 20 -304 48q-199 58 -223 211q-3 22 -3 46q0 135 116 191q-94 88 -94 241q0 66 17.5 120t46.5 91t73 64.5t90 43t104.5 25t109 12.5t110.5 3q16 118 92 192t199 74
q98 0 209 -39zM422 696q0 -94 178 -94q176 0 176 94q0 95 -178 95q-98 0 -137 -22t-39 -73z" />
    <glyph glyph-name="h" unicode="h" 
d="M426 0h-324v1536h324v-647q109 166 324 166q107 0 182.5 -24t131.5 -80.5t83 -153.5t27 -238v-559h-326v524q0 119 -44 175.5t-159 56.5q-107 0 -163 -61.5t-56 -182.5v-512z" />
    <glyph glyph-name="i" unicode="i" horiz-adv-x="528" 
d="M78 1335q0 96 44.5 142.5t141.5 46.5t143 -46.5t46 -142.5q0 -95 -46 -141.5t-143 -46.5t-141.5 46.5t-44.5 141.5zM102 0v1024h324v-1024h-324z" />
    <glyph glyph-name="j" unicode="j" horiz-adv-x="778" 
d="M326 1335q0 96 45.5 142.5t142.5 46.5t142.5 -46.5t45.5 -142.5q0 -95 -45.5 -141.5t-142.5 -46.5t-142.5 46.5t-45.5 141.5zM676 74q0 -275 -104.5 -410t-305.5 -135q-102 0 -177 29.5t-119.5 84t-65.5 124.5t-21 157h275q0 -62 24.5 -96.5t67.5 -34.5q102 0 102 168
v1063h324v-950z" />
    <glyph glyph-name="k" unicode="k" horiz-adv-x="1234" 
d="M426 0h-324v1536h324v-1536zM813 512l422 -512h-387l-422 512l422 512h387z" />
    <glyph glyph-name="l" unicode="l" horiz-adv-x="528" 
d="M426 0h-324v1536h324v-1536z" />
    <glyph glyph-name="m" unicode="m" horiz-adv-x="1857" 
d="M1102 0h-326v539q0 108 -37 162.5t-129 54.5q-90 0 -137 -61.5t-47 -182.5v-512h-324v1024h324v-135q105 166 317 166q209 0 291 -158q97 158 307 158q116 0 195 -24t134 -81t80.5 -153t25.5 -238v-559h-326v524q0 119 -36.5 175.5t-129.5 56.5q-88 0 -135 -57t-47 -160
v-539z" />
    <glyph glyph-name="n" unicode="n" 
d="M1174 0h-326v524q0 119 -44 175.5t-159 56.5q-107 0 -163 -61.5t-56 -182.5v-512h-324v1024h324v-135q109 166 324 166q107 0 182.5 -24t131.5 -80.5t83 -153.5t27 -238v-559z" />
    <glyph glyph-name="o" unicode="o" horiz-adv-x="1290" 
d="M61 512q0 543 584 543t584 -543t-584 -543t-584 543zM395 512q0 -244 250 -244t250 244t-250 244q-132 0 -191 -60t-59 -184z" />
    <glyph glyph-name="p" unicode="p" horiz-adv-x="1234" 
d="M426 -410h-324v1434h324v-135q80 166 297 166q207 0 329 -141t122 -402q0 -130 -35.5 -234.5t-98 -171t-145.5 -102t-180 -35.5q-205 0 -289 172v-551zM838 512q0 124 -47.5 184t-155.5 60q-209 0 -209 -244q0 -120 53 -182t156 -62q98 0 150.5 62.5t52.5 181.5z" />
    <glyph glyph-name="q" unicode="q" horiz-adv-x="1275" 
d="M848 -410v557q-83 -178 -305 -178q-213 0 -347.5 142t-134.5 401q0 263 126 403t348 140q229 0 313 -172v141h326v-1434h-326zM395 512q0 -120 58 -182t168 -62q227 0 227 244t-227 244q-123 0 -174.5 -59.5t-51.5 -184.5z" />
    <glyph glyph-name="r" unicode="r" horiz-adv-x="1124" 
d="M426 0h-324v1024h324v-135q105 166 281 166q179 0 277.5 -109t98.5 -336h-290q0 64 -48 105t-122 41q-94 0 -145.5 -62t-51.5 -182v-512z" />
    <glyph glyph-name="s" unicode="s" horiz-adv-x="1159" 
d="M63 721q0 177 115.5 255.5t378.5 78.5q277 0 400.5 -89.5t123.5 -289.5h-288q0 64 -71.5 89.5t-234.5 25.5q-157 0 -157 -62q0 -28 64 -47t208 -39q206 -29 282 -52q144 -46 189 -149q25 -57 25 -137q0 -175 -122.5 -255.5t-365.5 -80.5q-285 0 -417 90t-132 289h291
q0 -62 78 -88.5t234 -26.5q83 0 125 18t42 48q0 31 -42.5 43t-163.5 26q-47 6 -74 9q-56 6 -98 12.5t-96 19t-92.5 28.5t-79 42t-65.5 59t-41 79.5t-16 103.5z" />
    <glyph glyph-name="t" unicode="t" horiz-adv-x="1105" 
d="M246 383v350h-205v291h205l137 410h186v-410h486v-291h-486v-327q0 -138 103 -138q57 0 85.5 27.5t28.5 93.5h291q0 -117 -27.5 -199t-83 -130t-130.5 -69.5t-177 -21.5q-212 0 -312.5 101.5t-100.5 312.5z" />
    <glyph glyph-name="u" unicode="u" 
d="M82 1024h324v-524q0 -117 44.5 -174.5t157.5 -57.5q106 0 162.5 62.5t56.5 181.5v512h326v-1024h-326v135q-109 -166 -321 -166q-107 0 -182.5 24t-131.5 80.5t-83 153.5t-27 238v559z" />
    <glyph glyph-name="v" unicode="v" horiz-adv-x="1142" 
d="M393 0l-434 1024h356l256 -602l254 602h359l-434 -1024h-357z" />
    <glyph glyph-name="w" unicode="w" horiz-adv-x="1763" 
d="M332 0l-373 1024h356l195 -532l192 532h359l192 -532l195 532h356l-372 -1024h-357l-194 532l-193 -532h-356z" />
    <glyph glyph-name="x" unicode="x" horiz-adv-x="1165" 
d="M774 512l391 -512h-383l-200 262l-199 -262h-383l391 512l-391 512h383l199 -262l200 262h383z" />
    <glyph glyph-name="y" unicode="y" horiz-adv-x="1228" 
d="M889 43q-72 -206 -87 -242q-61 -145 -144 -205q-94 -67 -259 -67q-178 0 -268 108.5t-90 286.5h272q0 -131 84 -131q42 0 67 43t66 160l7 20l-525 1008h367l305 -582l201 582h344z" />
    <glyph glyph-name="z" unicode="z" horiz-adv-x="1038" 
d="M61 733v291h916v-291l-453 -442h453v-291h-916v291l451 442h-451z" />
    <glyph glyph-name="braceleft" unicode="{" horiz-adv-x="827" 
d="M500 991q0 -330 -178 -450q178 -120 178 -455q0 -120 19.5 -198.5t61.5 -120t94.5 -57t131.5 -15.5v-154q-250 0 -373 127.5t-123 403.5q0 121 -18.5 200t-59 120t-89.5 56t-124 15v153q59 0 101.5 9.5t80 35t60.5 69t36 113t13 165.5q0 274 123 401t373 127v-154
q-78 0 -131 -16t-95 -57.5t-61.5 -120t-19.5 -197.5z" />
    <glyph glyph-name="bar" unicode="|" horiz-adv-x="311" 
d="M61 -410v1946h189v-1946h-189z" />
    <glyph glyph-name="braceright" unicode="}" horiz-adv-x="827" 
d="M328 991q0 96 -14 165t-38 112.5t-63.5 69t-85 35t-107.5 9.5v154q250 0 373 -127t123 -401q0 -96 13 -165.5t36 -113t60.5 -69t80 -35t101.5 -9.5v-153q-75 0 -124 -15t-89.5 -56t-59 -120t-18.5 -200q0 -276 -123 -403.5t-373 -127.5v154q79 0 131.5 15.5t94.5 57
t62 120t20 198.5q0 335 178 455q-178 120 -178 450z" />
    <glyph glyph-name="exclamdown" unicode="&#xa1;" horiz-adv-x="497" 
d="M61 918q0 96 45.5 142t143.5 46q97 0 141.5 -46t44.5 -142q0 -95 -44.5 -141t-141.5 -46t-143 46t-46 141zM412 -358h-324l51 942h221z" />
    <glyph glyph-name="cent" unicode="&#xa2;" horiz-adv-x="1183" 
d="M524 -461v436q-228 26 -345.5 162t-117.5 375q0 249 112 382.5t351 156.5v434h189v-434q198 -23 307.5 -143.5t109.5 -293.5h-290q0 49 -33.5 84t-93.5 50v-476q68 10 103.5 46.5t35.5 91.5h291q-2 -177 -112 -297.5t-318 -139.5v-434h-189zM524 289v452
q-129 -47 -129 -227q0 -177 129 -225z" />
    <glyph glyph-name="sterling" unicode="&#xa3;" horiz-adv-x="1482" 
d="M246 0v598h-226v186h226v31q0 313 149.5 481t446.5 168q286 0 432.5 -125t146.5 -403h-325q0 213 -262 213q-246 0 -246 -328v-37h227v-186h-227v-291h854v-307h-1196z" />
    <glyph glyph-name="currency" unicode="&#xa4;" horiz-adv-x="1056" 
d="M160 698q0 95 55 181l-154 153l134 133l153 -153q86 55 180 55q95 0 181 -55l153 153l133 -133l-153 -153q55 -86 55 -181q0 -94 -55 -180l153 -153l-133 -134l-153 154q-86 -55 -181 -55q-94 0 -180 55l-153 -154l-134 134l154 153q-55 86 -55 180zM539 868
q-66 0 -123.5 -56.5t-57.5 -123.5q0 -62 49 -111t111 -49q67 0 123.5 57.5t56.5 123.5q0 61 -49 110t-110 49z" />
    <glyph glyph-name="yen" unicode="&#xa5;" horiz-adv-x="1386" 
d="M522 0v244h-205v188h205v88h-205v189h175l-492 725h406l286 -422l289 422h405l-493 -725h158v-189h-187v-88h187v-188h-187v-244h-342z" />
    <glyph glyph-name="copyright" unicode="&#xa9;" horiz-adv-x="1617" 
d="M61 717q0 222 93 392t263 262.5t392 92.5q167 0 306 -54t236 -151t151 -236t54 -306q0 -222 -92.5 -392t-262.5 -263t-392 -93t-392 93t-263 263t-93 392zM260 717q0 -252 151 -405.5t398 -153.5t398 153.5t151 405.5t-151 405.5t-398 153.5t-398 -153.5t-151 -405.5z
M840 342q-195 0 -291 92t-96 281t89.5 282t270.5 93q174 0 263 -63t89 -202h-168q0 99 -184 99q-96 0 -136 -48.5t-40 -158.5q0 -109 49.5 -160t153.5 -51q34 0 59 3t50 11.5t38.5 27.5t13.5 48h168q0 -136 -85 -195t-244 -59z" />
    <glyph glyph-name="ordfeminine" unicode="&#xaa;" horiz-adv-x="677" 
d="M446 1264q0 67 -104 67q-20 0 -33.5 -1.5t-31 -6t-26.5 -16t-9 -29.5h-152q0 102 66 147t190 45q144 0 207 -49t63 -186v-293h-170v66q-33 -80 -167 -80q-218 0 -218 164q0 77 53 112t150 43zM446 1149l-143 -12q-36 -3 -50.5 -12t-14.5 -29q0 -31 69 -31q61 0 98.5 14.5
t40.5 38.5v31z" />
    <glyph glyph-name="registered" unicode="&#xae;" horiz-adv-x="1617" 
d="M61 717q0 222 93 392t263 262.5t392 92.5q167 0 306 -54t236 -151t151 -236t54 -306q0 -222 -92.5 -392t-262.5 -263t-392 -93t-392 93t-263 263t-93 392zM260 717q0 -252 151 -405.5t398 -153.5t398 153.5t151 405.5t-151 405.5t-398 153.5t-398 -153.5t-151 -405.5z
M528 369v716h326q169 0 239 -58t70 -181q0 -99 -43.5 -156.5t-142.5 -75.5l184 -245h-213l-178 235h-65v-235h-177zM705 764h145q80 0 105.5 18.5t25.5 63.5q0 44 -25.5 63t-105.5 19h-145v-164z" />
    <glyph glyph-name="plusminus" unicode="&#xb1;" horiz-adv-x="737" 
d="M61 547v188h213v213h189v-213h213v-188h-213v-213h-189v213h-213zM82 0v188h573v-188h-573z" />
    <glyph glyph-name="ordmasculine" unicode="&#xba;" horiz-adv-x="708" 
d="M61 1198q0 272 293 272t293 -272q0 -270 -293 -270t-293 270zM238 1198q0 -115 116 -115q119 0 119 115t-119 115q-63 0 -89.5 -28t-26.5 -87z" />
    <glyph glyph-name="questiondown" unicode="&#xbf;" horiz-adv-x="1243" 
d="M942 918q0 -95 -45 -141t-143 -46q-97 0 -142 46t-45 141q0 96 45 142t142 46q99 0 143.5 -46t44.5 -142zM903 584q0 -78 -27 -139t-70 -98.5t-95 -66.5t-104.5 -51t-95.5 -44t-70 -53t-27 -71q0 -135 196 -135q45 0 77 3t66.5 13.5t55.5 28.5t35 50t14 77h324
q0 -133 -37.5 -227.5t-111.5 -151t-174 -82.5t-234 -26q-290 0 -426 103t-136 321q0 79 25 143t66 104.5t93.5 74t107.5 53.5t107.5 40.5t93.5 37t66 41.5t25 55h256z" />
    <glyph glyph-name="Agrave" unicode="&#xc0;" horiz-adv-x="1404" 
d="M911 1649l-92 -70l-325 379l149 113zM-41 0l561 1434h365l561 -1434h-367l-80 207h-593l-80 -207h-367zM526 514h353l-177 453z" />
    <glyph glyph-name="Aacute" unicode="&#xc1;" horiz-adv-x="1404" 
d="M494 1649l268 422l149 -113l-325 -379zM-41 0l561 1434h365l561 -1434h-367l-80 207h-593l-80 -207h-367zM526 514h353l-177 453z" />
    <glyph glyph-name="Acircumflex" unicode="&#xc2;" horiz-adv-x="1404" 
d="M778 2005l324 -418h-228l-174 289l-170 -289h-227l324 418h151zM-41 0l561 1434h365l561 -1434h-367l-80 207h-593l-80 -207h-367zM526 514h353l-177 453z" />
    <glyph glyph-name="Atilde" unicode="&#xc3;" horiz-adv-x="1404" 
d="M297 1587q0 64 11 116.5t35 97.5t69 70t108 25q52 0 104 -22t87 -48.5t75.5 -48.5t71.5 -22q64 0 64 121h188q0 -66 -9.5 -118t-32.5 -97t-66.5 -69.5t-106.5 -24.5q-62 0 -116.5 22t-86.5 48.5t-70 48.5t-71 22q-38 0 -52 -32t-14 -89h-188zM-41 0l561 1434h365
l561 -1434h-367l-80 207h-593l-80 -207h-367zM526 514h353l-177 453z" />
    <glyph glyph-name="Adieresis" unicode="&#xc4;" horiz-adv-x="1404" 
d="M348 1731q0 54 39.5 93.5t93.5 39.5t93.5 -39.5t39.5 -93.5t-39.5 -94t-93.5 -40t-93.5 40t-39.5 94zM801 1731q0 54 39.5 93.5t93.5 39.5t93.5 -39.5t39.5 -93.5t-39.5 -94t-93.5 -40t-93.5 40t-39.5 94zM-41 0l561 1434h365l561 -1434h-367l-80 207h-593l-80 -207h-367
zM526 514h353l-177 453z" />
    <glyph glyph-name="Aring" unicode="&#xc5;" horiz-adv-x="1404" 
d="M420 1802q0 97 77.5 156t204.5 59q129 0 207 -59t78 -156t-78 -156t-207 -59q-127 0 -204.5 59t-77.5 156zM616 1802q0 -28 23 -44.5t61 -16.5q40 0 64 16.5t24 44.5t-24 45t-64 17q-38 0 -61 -17t-23 -45zM-41 0l561 1434h365l561 -1434h-367l-80 207h-593l-80 -207
h-367zM526 514h353l-177 453z" />
    <glyph glyph-name="AE" unicode="&#xc6;" horiz-adv-x="2027" 
d="M-41 0l561 1434h1430v-308h-826v-256h744v-307h-744v-256h846v-307h-1188v207h-376l-80 -207h-367zM526 514h256v612h-16z" />
    <glyph glyph-name="Ccedilla" unicode="&#xc7;" horiz-adv-x="1531" 
d="M580 -313h137q0 -20 22 -29.5t52 -9.5q73 0 73 61q0 68 -119 68h-104l78 196q-333 26 -495.5 210.5t-162.5 533.5q0 378 178 562.5t543 184.5q346 0 523.5 -125.5t177.5 -402.5h-324q0 213 -381 213q-197 0 -280.5 -101t-83.5 -329q0 -226 102.5 -330t317.5 -104
q55 0 97.5 3.5t89 15.5t76.5 32.5t50 56.5t20 86h324q0 -111 -30.5 -197.5t-85 -144.5t-136 -96t-178.5 -54.5t-217 -17.5l-41 -90q209 0 209 -172q0 -100 -56.5 -148t-156.5 -48q-16 0 -37.5 2.5t-55 13.5t-60.5 28.5t-46.5 52t-19.5 79.5z" />
    <glyph glyph-name="Egrave" unicode="&#xc8;" horiz-adv-x="1347" 
d="M905 1649l-92 -70l-326 379l150 113zM102 0v1434h1168v-308h-826v-256h744v-307h-744v-256h846v-307h-1188z" />
    <glyph glyph-name="Eacute" unicode="&#xc9;" horiz-adv-x="1347" 
d="M487 1649l269 422l149 -113l-325 -379zM102 0v1434h1168v-308h-826v-256h744v-307h-744v-256h846v-307h-1188z" />
    <glyph glyph-name="Ecircumflex" unicode="&#xca;" horiz-adv-x="1347" 
d="M772 2005l324 -418h-228l-174 289l-170 -289h-227l324 418h151zM102 0v1434h1168v-308h-826v-256h744v-307h-744v-256h846v-307h-1188z" />
    <glyph glyph-name="Edieresis" unicode="&#xcb;" horiz-adv-x="1347" 
d="M342 1731q0 54 39.5 93.5t93.5 39.5t93.5 -39.5t39.5 -93.5t-39.5 -94t-93.5 -40t-93.5 40t-39.5 94zM795 1731q0 54 39.5 93.5t93.5 39.5t93.5 -39.5t39.5 -93.5t-39.5 -94t-93.5 -40t-93.5 40t-39.5 94zM102 0v1434h1168v-308h-826v-256h744v-307h-744v-256h846v-307
h-1188z" />
    <glyph glyph-name="Igrave" unicode="&#xcc;" horiz-adv-x="546" 
d="M481 1649l-92 -70l-326 379l150 113zM102 0v1434h342v-1434h-342z" />
    <glyph glyph-name="Iacute" unicode="&#xcd;" horiz-adv-x="546" 
d="M63 1649l269 422l149 -113l-325 -379zM102 0v1434h342v-1434h-342z" />
    <glyph glyph-name="Icircumflex" unicode="&#xce;" horiz-adv-x="546" 
d="M348 2005l324 -418h-228l-174 289l-170 -289h-227l324 418h151zM102 0v1434h342v-1434h-342z" />
    <glyph glyph-name="Idieresis" unicode="&#xcf;" horiz-adv-x="546" 
d="M-82 1731q0 54 39 93.5t94 39.5q54 0 93.5 -39.5t39.5 -93.5t-39.5 -94t-93.5 -40q-55 0 -94 40t-39 94zM371 1731q0 54 39.5 93.5t93.5 39.5t93.5 -39.5t39.5 -93.5t-39.5 -94t-93.5 -40t-93.5 40t-39.5 94zM102 0v1434h342v-1434h-342z" />
    <glyph glyph-name="Eth" unicode="&#xd0;" horiz-adv-x="1583" 
d="M195 0v604h-175v187h175v643h596q363 0 547 -181t184 -536t-184 -536t-547 -181h-596zM537 307h260q185 0 279.5 104t94.5 308q0 201 -94.5 304t-279.5 103h-260v-335h168v-187h-168v-297z" />
    <glyph glyph-name="Ntilde" unicode="&#xd1;" horiz-adv-x="1507" 
d="M348 1563q0 64 11 116.5t35 97.5t69 70t108 25q52 0 104 -22t87 -48.5t75.5 -48.5t71.5 -22q64 0 64 120h188q0 -66 -9.5 -118t-32.5 -97t-66.5 -69.5t-106.5 -24.5q-62 0 -116.5 22t-86.5 48.5t-70 48.5t-71 22q-38 0 -51.5 -31.5t-13.5 -88.5h-189zM102 0v1434h342
l621 -865v865h340v-1434h-340l-621 866v-866h-342z" />
    <glyph glyph-name="Ograve" unicode="&#xd2;" horiz-adv-x="1591" 
d="M1004 1679l-93 -69l-325 379l149 112zM61 717q0 747 734 747q735 0 735 -747q0 -748 -735 -748q-734 0 -734 748zM414 717q0 -432 381 -432q383 0 383 432q0 216 -94.5 324t-288.5 108q-202 0 -291.5 -106t-89.5 -326z" />
    <glyph glyph-name="Oacute" unicode="&#xd3;" horiz-adv-x="1591" 
d="M586 1679l268 422l150 -112l-326 -379zM61 717q0 747 734 747q735 0 735 -747q0 -748 -735 -748q-734 0 -734 748zM414 717q0 -432 381 -432q383 0 383 432q0 216 -94.5 324t-288.5 108q-202 0 -291.5 -106t-89.5 -326z" />
    <glyph glyph-name="Ocircumflex" unicode="&#xd4;" horiz-adv-x="1591" 
d="M870 2036l324 -418h-227l-174 289l-170 -289h-228l324 418h151zM61 717q0 747 734 747q735 0 735 -747q0 -748 -735 -748q-734 0 -734 748zM414 717q0 -432 381 -432q383 0 383 432q0 216 -94.5 324t-288.5 108q-202 0 -291.5 -106t-89.5 -326z" />
    <glyph glyph-name="Otilde" unicode="&#xd5;" horiz-adv-x="1591" 
d="M389 1618q0 64 11 116.5t35 97.5t69 70t108 25q52 0 104 -22t87 -48.5t75.5 -48.5t71.5 -22q64 0 64 121h188q0 -67 -9.5 -118.5t-32.5 -97t-66.5 -70t-106.5 -24.5q-62 0 -116.5 22t-86.5 49t-70 49t-71 22q-38 0 -51.5 -32t-13.5 -89h-189zM61 717q0 747 734 747
q735 0 735 -747q0 -748 -735 -748q-734 0 -734 748zM414 717q0 -432 381 -432q383 0 383 432q0 216 -94.5 324t-288.5 108q-202 0 -291.5 -106t-89.5 -326z" />
    <glyph glyph-name="Odieresis" unicode="&#xd6;" horiz-adv-x="1591" 
d="M440 1761q0 54 39.5 93.5t93.5 39.5t94 -39.5t40 -93.5t-40 -93.5t-94 -39.5t-93.5 39.5t-39.5 93.5zM893 1761q0 54 39.5 93.5t93.5 39.5t93.5 -39.5t39.5 -93.5t-39.5 -93.5t-93.5 -39.5t-93.5 39.5t-39.5 93.5zM61 717q0 747 734 747q735 0 735 -747q0 -748 -735 -748
q-734 0 -734 748zM414 717q0 -432 381 -432q383 0 383 432q0 216 -94.5 324t-288.5 108q-202 0 -291.5 -106t-89.5 -326z" />
    <glyph glyph-name="multiply" unicode="&#xd7;" horiz-adv-x="688" 
d="M61 700l132 131l151 -151l152 151l131 -131l-152 -151l152 -152l-131 -131l-152 152l-151 -152l-132 131l152 152z" />
    <glyph glyph-name="Oslash" unicode="&#xd8;" horiz-adv-x="1591" 
d="M61 717q0 747 734 747q249 0 413 -86l99 121l147 -119l-96 -116q172 -187 172 -547q0 -748 -735 -748q-247 0 -414 86l-96 -121l-148 119l94 117q-170 185 -170 547zM414 717q0 -161 51 -260l526 653q-83 39 -196 39q-202 0 -291.5 -106t-89.5 -326zM1126 977l-528 -653
q86 -39 197 -39q383 0 383 432q0 159 -52 260z" />
    <glyph glyph-name="Ugrave" unicode="&#xd9;" horiz-adv-x="1466" 
d="M942 1649l-92 -70l-326 379l150 113zM733 285q309 0 309 280v869h342v-811q0 -186 -41 -313.5t-126.5 -202t-202 -106.5t-281.5 -32q-132 0 -232 20t-181 66t-132 121t-78.5 186.5t-27.5 260.5v811h342v-869q0 -280 309 -280z" />
    <glyph glyph-name="Uacute" unicode="&#xda;" horiz-adv-x="1466" 
d="M524 1649l269 422l149 -113l-326 -379zM733 285q309 0 309 280v869h342v-811q0 -186 -41 -313.5t-126.5 -202t-202 -106.5t-281.5 -32q-132 0 -232 20t-181 66t-132 121t-78.5 186.5t-27.5 260.5v811h342v-869q0 -280 309 -280z" />
    <glyph glyph-name="Ucircumflex" unicode="&#xdb;" horiz-adv-x="1466" 
d="M809 2005l324 -418h-228l-174 289l-170 -289h-227l323 418h152zM733 285q309 0 309 280v869h342v-811q0 -186 -41 -313.5t-126.5 -202t-202 -106.5t-281.5 -32q-132 0 -232 20t-181 66t-132 121t-78.5 186.5t-27.5 260.5v811h342v-869q0 -280 309 -280z" />
    <glyph glyph-name="Udieresis" unicode="&#xdc;" horiz-adv-x="1466" 
d="M379 1731q0 54 39.5 93.5t93.5 39.5t93.5 -39.5t39.5 -93.5t-39.5 -94t-93.5 -40t-93.5 40t-39.5 94zM831 1731q0 54 40 93.5t94 39.5t93.5 -39.5t39.5 -93.5t-39.5 -94t-93.5 -40t-94 40t-40 94zM733 285q309 0 309 280v869h342v-811q0 -186 -41 -313.5t-126.5 -202
t-202 -106.5t-281.5 -32q-132 0 -232 20t-181 66t-132 121t-78.5 186.5t-27.5 260.5v811h342v-869q0 -280 309 -280z" />
    <glyph glyph-name="Yacute" unicode="&#xdd;" horiz-adv-x="1386" 
d="M483 1649l269 422l149 -113l-326 -379zM522 0v664l-522 770h406l286 -422l289 422h405l-522 -770v-664h-342z" />
    <glyph glyph-name="Thorn" unicode="&#xde;" horiz-adv-x="1429" 
d="M102 0v1434h342v-213h310q171 0 290 -31.5t190 -96.5t102.5 -156.5t31.5 -219.5t-31.5 -219.5t-102.5 -156.5t-190 -96.5t-290 -31.5h-310v-213h-342zM444 520h299q86 0 141 11.5t84 38.5t39.5 60.5t10.5 86.5t-10.5 86.5t-39.5 60t-84 38t-141 11.5h-299v-393z" />
    <glyph glyph-name="germandbls" unicode="&#xdf;" horiz-adv-x="1392" 
d="M1163 1151q0 -71 -27.5 -126t-69 -85.5t-89.5 -54.5t-89.5 -35.5t-69 -25.5t-27.5 -29q0 -24 44 -38t146 -32q82 -15 141.5 -39t109 -66t74.5 -110t25 -162q0 -195 -103 -287t-310 -92q-239 0 -350 90.5t-111 288.5h291q0 -60 45 -87.5t118 -27.5q77 0 115.5 30.5
t38.5 78.5q0 21 -4 36.5t-16.5 27t-21.5 18t-35.5 13.5t-40.5 10t-53 10q-14 3 -22 4q-54 8 -97 18.5t-92 31.5t-82 49.5t-55 74.5t-22 104q0 60 25.5 107.5t63.5 75t83 53t83 43.5t63.5 44.5t25.5 57.5q0 49 -53.5 83t-152.5 34q-79 0 -131.5 -16.5t-79 -49.5t-36 -71
t-9.5 -92v-1008h-324v979q0 137 28 237t91 173.5t169.5 110t258.5 36.5q283 0 408.5 -91.5t125.5 -293.5z" />
    <glyph glyph-name="agrave" unicode="&#xe0;" horiz-adv-x="1222" 
d="M801 1270l-92 -70l-326 379l149 113zM815 645q0 146 -217 146q-41 0 -70.5 -3.5t-65 -14.5t-54.5 -37t-19 -66h-291q0 204 130.5 294.5t375.5 90.5q113 0 194.5 -12.5t149 -43.5t108.5 -83.5t63 -133t22 -192.5v-590h-326v133q-31 -80 -110 -122t-228 -42q-76 0 -137.5 9
t-118.5 31.5t-95.5 59t-61.5 95t-23 135.5q0 63 20 112.5t54.5 83.5t87.5 57.5t113 37t137 20.5l362 33v2zM815 422l-291 -27q-77 -6 -113 -26t-36 -64q0 -72 157 -72q125 0 201.5 34.5t81.5 84.5v70z" />
    <glyph glyph-name="aacute" unicode="&#xe1;" horiz-adv-x="1222" 
d="M383 1270l268 422l150 -113l-326 -379zM815 645q0 146 -217 146q-41 0 -70.5 -3.5t-65 -14.5t-54.5 -37t-19 -66h-291q0 204 130.5 294.5t375.5 90.5q113 0 194.5 -12.5t149 -43.5t108.5 -83.5t63 -133t22 -192.5v-590h-326v133q-31 -80 -110 -122t-228 -42
q-76 0 -137.5 9t-118.5 31.5t-95.5 59t-61.5 95t-23 135.5q0 63 20 112.5t54.5 83.5t87.5 57.5t113 37t137 20.5l362 33v2zM815 422l-291 -27q-77 -6 -113 -26t-36 -64q0 -72 157 -72q125 0 201.5 34.5t81.5 84.5v70z" />
    <glyph glyph-name="acircumflex" unicode="&#xe2;" horiz-adv-x="1222" 
d="M668 1626l323 -418h-227l-174 289l-170 -289h-227l323 418h152zM815 645q0 146 -217 146q-41 0 -70.5 -3.5t-65 -14.5t-54.5 -37t-19 -66h-291q0 204 130.5 294.5t375.5 90.5q113 0 194.5 -12.5t149 -43.5t108.5 -83.5t63 -133t22 -192.5v-590h-326v133
q-31 -80 -110 -122t-228 -42q-76 0 -137.5 9t-118.5 31.5t-95.5 59t-61.5 95t-23 135.5q0 63 20 112.5t54.5 83.5t87.5 57.5t113 37t137 20.5l362 33v2zM815 422l-291 -27q-77 -6 -113 -26t-36 -64q0 -72 157 -72q125 0 201.5 34.5t81.5 84.5v70z" />
    <glyph glyph-name="atilde" unicode="&#xe3;" horiz-adv-x="1222" 
d="M186 1208q0 64 11 116.5t35.5 97.5t69.5 70.5t108 25.5q52 0 104 -22t87 -49t75.5 -49t71.5 -22q63 0 63 121h188q0 -66 -9.5 -118t-32.5 -97t-66.5 -69.5t-106.5 -24.5q-62 0 -116.5 22t-86.5 48.5t-70 48.5t-71 22q-38 0 -51.5 -32t-13.5 -89h-189zM815 645
q0 146 -217 146q-41 0 -70.5 -3.5t-65 -14.5t-54.5 -37t-19 -66h-291q0 204 130.5 294.5t375.5 90.5q113 0 194.5 -12.5t149 -43.5t108.5 -83.5t63 -133t22 -192.5v-590h-326v133q-31 -80 -110 -122t-228 -42q-76 0 -137.5 9t-118.5 31.5t-95.5 59t-61.5 95t-23 135.5
q0 63 20 112.5t54.5 83.5t87.5 57.5t113 37t137 20.5l362 33v2zM815 422l-291 -27q-77 -6 -113 -26t-36 -64q0 -72 157 -72q125 0 201.5 34.5t81.5 84.5v70z" />
    <glyph glyph-name="adieresis" unicode="&#xe4;" horiz-adv-x="1222" 
d="M238 1352q0 54 39.5 93.5t93.5 39.5t93.5 -39.5t39.5 -93.5t-39.5 -93.5t-93.5 -39.5t-93.5 39.5t-39.5 93.5zM690 1352q0 54 39.5 93.5t93.5 39.5t93.5 -39.5t39.5 -93.5t-39.5 -93.5t-93.5 -39.5t-93.5 39.5t-39.5 93.5zM815 645q0 146 -217 146q-41 0 -70.5 -3.5
t-65 -14.5t-54.5 -37t-19 -66h-291q0 204 130.5 294.5t375.5 90.5q113 0 194.5 -12.5t149 -43.5t108.5 -83.5t63 -133t22 -192.5v-590h-326v133q-31 -80 -110 -122t-228 -42q-76 0 -137.5 9t-118.5 31.5t-95.5 59t-61.5 95t-23 135.5q0 63 20 112.5t54.5 83.5t87.5 57.5
t113 37t137 20.5l362 33v2zM815 422l-291 -27q-77 -6 -113 -26t-36 -64q0 -72 157 -72q125 0 201.5 34.5t81.5 84.5v70z" />
    <glyph glyph-name="aring" unicode="&#xe5;" horiz-adv-x="1222" 
d="M309 1423q0 97 78 156t205 59q129 0 207 -59t78 -156t-78 -156t-207 -59q-127 0 -205 59t-78 156zM506 1423q0 -28 23 -44.5t61 -16.5q40 0 64 16.5t24 44.5t-24 45t-64 17q-38 0 -61 -17t-23 -45zM815 645q0 146 -217 146q-41 0 -70.5 -3.5t-65 -14.5t-54.5 -37t-19 -66
h-291q0 204 130.5 294.5t375.5 90.5q113 0 194.5 -12.5t149 -43.5t108.5 -83.5t63 -133t22 -192.5v-590h-326v133q-31 -80 -110 -122t-228 -42q-76 0 -137.5 9t-118.5 31.5t-95.5 59t-61.5 95t-23 135.5q0 63 20 112.5t54.5 83.5t87.5 57.5t113 37t137 20.5l362 33v2z
M815 422l-291 -27q-77 -6 -113 -26t-36 -64q0 -72 157 -72q125 0 201.5 34.5t81.5 84.5v70z" />
    <glyph glyph-name="ae" unicode="&#xe6;" horiz-adv-x="1959" 
d="M815 645q0 146 -217 146q-41 0 -70.5 -3.5t-65 -14.5t-54.5 -37t-19 -66h-291q0 204 130.5 294.5t375.5 90.5q145 0 244 -21t162 -73q136 94 346 94q286 0 414 -145t128 -449v-41h-741q18 -99 77.5 -143t158.5 -44q87 0 144.5 34t57.5 81h291q0 -172 -129 -275.5
t-364 -103.5q-310 0 -457 162q-71 -76 -189.5 -119t-269.5 -43q-76 0 -137.5 9t-118.5 31.5t-95.5 59t-61.5 95t-23 135.5q0 63 20 112.5t54.5 83.5t87.5 57.5t113 37t137 20.5l362 33v2zM1169 643h412q-19 73 -73.5 110.5t-137.5 37.5q-69 0 -122 -38t-79 -110zM815 422
l-291 -27q-77 -6 -113 -26t-36 -64q0 -72 157 -72q125 0 201.5 34.5t81.5 84.5v70z" />
    <glyph glyph-name="ccedilla" unicode="&#xe7;" horiz-adv-x="1183" 
d="M631 1055q235 0 367 -124.5t132 -316.5h-290q0 65 -57 103.5t-152 38.5q-236 0 -236 -242q0 -246 256 -246q97 0 149 38t52 104h291q0 -188 -122.5 -310t-354.5 -131l-41 -90q209 0 209 -172q0 -100 -56.5 -148t-156.5 -48q-16 0 -37.5 2.5t-55.5 13.5t-60.5 28.5
t-46.5 52t-20 79.5h138q0 -20 21.5 -29.5t51.5 -9.5q74 0 74 61q0 68 -119 68h-104l78 196q-235 22 -357.5 158.5t-122.5 380.5q0 273 138 408t432 135z" />
    <glyph glyph-name="egrave" unicode="&#xe8;" horiz-adv-x="1204" 
d="M811 1270l-92 -70l-326 379l150 113zM1143 461v-41h-740q18 -99 76.5 -143t157.5 -44q88 0 146.5 34t58.5 81h288q0 -173 -128.5 -276t-364.5 -103q-287 0 -431.5 137.5t-144.5 405.5q0 261 140 402t399 141q287 0 415 -145t128 -449zM416 643h411q-19 73 -73.5 110.5
t-137.5 37.5q-70 0 -122 -37.5t-78 -110.5z" />
    <glyph glyph-name="eacute" unicode="&#xe9;" horiz-adv-x="1204" 
d="M393 1270l269 422l149 -113l-326 -379zM1143 461v-41h-740q18 -99 76.5 -143t157.5 -44q88 0 146.5 34t58.5 81h288q0 -173 -128.5 -276t-364.5 -103q-287 0 -431.5 137.5t-144.5 405.5q0 261 140 402t399 141q287 0 415 -145t128 -449zM416 643h411q-19 73 -73.5 110.5
t-137.5 37.5q-70 0 -122 -37.5t-78 -110.5z" />
    <glyph glyph-name="ecircumflex" unicode="&#xea;" horiz-adv-x="1204" 
d="M678 1626l323 -418h-227l-174 289l-170 -289h-227l323 418h152zM1143 461v-41h-740q18 -99 76.5 -143t157.5 -44q88 0 146.5 34t58.5 81h288q0 -173 -128.5 -276t-364.5 -103q-287 0 -431.5 137.5t-144.5 405.5q0 261 140 402t399 141q287 0 415 -145t128 -449zM416 643
h411q-19 73 -73.5 110.5t-137.5 37.5q-70 0 -122 -37.5t-78 -110.5z" />
    <glyph glyph-name="edieresis" unicode="&#xeb;" horiz-adv-x="1204" 
d="M248 1352q0 54 39.5 93.5t93.5 39.5t93.5 -39.5t39.5 -93.5t-39.5 -93.5t-93.5 -39.5t-93.5 39.5t-39.5 93.5zM700 1352q0 54 40 93.5t94 39.5t93.5 -39.5t39.5 -93.5t-39.5 -93.5t-93.5 -39.5t-94 39.5t-40 93.5zM1143 461v-41h-740q18 -99 76.5 -143t157.5 -44
q88 0 146.5 34t58.5 81h288q0 -173 -128.5 -276t-364.5 -103q-287 0 -431.5 137.5t-144.5 405.5q0 261 140 402t399 141q287 0 415 -145t128 -449zM416 643h411q-19 73 -73.5 110.5t-137.5 37.5q-70 0 -122 -37.5t-78 -110.5z" />
    <glyph glyph-name="igrave" unicode="&#xec;" horiz-adv-x="528" 
d="M473 1239l-92 -70l-326 379l150 113zM102 0v1024h324v-1024h-324z" />
    <glyph glyph-name="iacute" unicode="&#xed;" horiz-adv-x="528" 
d="M55 1239l269 422l149 -113l-326 -379zM102 0v1024h324v-1024h-324z" />
    <glyph glyph-name="icircumflex" unicode="&#xee;" horiz-adv-x="528" 
d="M340 1595l324 -417h-228l-174 288l-170 -288h-227l323 417h152zM102 0v1024h324v-1024h-324z" />
    <glyph glyph-name="idieresis" unicode="&#xef;" horiz-adv-x="528" 
d="M-90 1321q0 54 39 93.5t94 39.5q54 0 93.5 -39.5t39.5 -93.5t-39.5 -93.5t-93.5 -39.5q-55 0 -94 39.5t-39 93.5zM362 1321q0 54 40 93.5t94 39.5t93.5 -39.5t39.5 -93.5t-39.5 -93.5t-93.5 -39.5t-94 39.5t-40 93.5zM102 0v1024h324v-1024h-324z" />
    <glyph glyph-name="eth" unicode="&#xf0;" horiz-adv-x="1327" 
d="M467 1321l143 211q111 -30 232 -109l157 123l115 -149l-125 -97q126 -130 201.5 -308.5t75.5 -399.5q0 -184 -69 -324t-205.5 -219.5t-323.5 -79.5q-306 0 -456.5 126.5t-150.5 355.5q0 102 36 182t94 129t139 81t162 44t172 12q98 0 198 -27q-44 120 -127 232l-145 -115
l-117 150l127 98q-62 51 -133 84zM913 526q-119 58 -251 58q-248 0 -248 -144q0 -70 61 -112.5t176 -42.5q119 0 186 64t76 177z" />
    <glyph glyph-name="ntilde" unicode="&#xf1;" horiz-adv-x="1261" 
d="M231 1208q0 64 11 116.5t35.5 97.5t69.5 70.5t108 25.5q52 0 104 -22t87 -49t75.5 -49t71.5 -22q63 0 63 121h188q0 -66 -9.5 -118t-32.5 -97t-66.5 -69.5t-106.5 -24.5q-62 0 -116.5 22t-86.5 48.5t-70 48.5t-71 22q-38 0 -51.5 -32t-13.5 -89h-189zM1174 0h-326v524
q0 119 -44 175.5t-159 56.5q-107 0 -163 -61.5t-56 -182.5v-512h-324v1024h324v-135q109 166 324 166q107 0 182.5 -24t131.5 -80.5t83 -153.5t27 -238v-559z" />
    <glyph glyph-name="ograve" unicode="&#xf2;" horiz-adv-x="1290" 
d="M856 1270l-92 -70l-326 379l150 113zM61 512q0 543 584 543t584 -543t-584 -543t-584 543zM395 512q0 -244 250 -244t250 244t-250 244q-132 0 -191 -60t-59 -184z" />
    <glyph glyph-name="oacute" unicode="&#xf3;" horiz-adv-x="1290" 
d="M438 1270l269 422l149 -113l-326 -379zM61 512q0 543 584 543t584 -543t-584 -543t-584 543zM395 512q0 -244 250 -244t250 244t-250 244q-132 0 -191 -60t-59 -184z" />
    <glyph glyph-name="ocircumflex" unicode="&#xf4;" horiz-adv-x="1290" 
d="M723 1626l324 -418h-228l-174 289l-170 -289h-227l323 418h152zM61 512q0 543 584 543t584 -543t-584 -543t-584 543zM395 512q0 -244 250 -244t250 244t-250 244q-132 0 -191 -60t-59 -184z" />
    <glyph glyph-name="otilde" unicode="&#xf5;" horiz-adv-x="1290" 
d="M242 1208q0 64 11 116.5t35 97.5t69 70.5t108 25.5q52 0 104 -22t87 -49t75.5 -49t71.5 -22q63 0 63 121h189q0 -66 -9.5 -118t-32.5 -97t-66.5 -69.5t-106.5 -24.5q-62 0 -116.5 22t-86.5 48.5t-70 48.5t-71 22q-38 0 -52 -32t-14 -89h-188zM61 512q0 543 584 543
t584 -543t-584 -543t-584 543zM395 512q0 -244 250 -244t250 244t-250 244q-132 0 -191 -60t-59 -184z" />
    <glyph glyph-name="odieresis" unicode="&#xf6;" horiz-adv-x="1290" 
d="M293 1352q0 54 39.5 93.5t93.5 39.5t93.5 -39.5t39.5 -93.5t-39.5 -93.5t-93.5 -39.5t-93.5 39.5t-39.5 93.5zM745 1352q0 54 40 93.5t94 39.5t93.5 -39.5t39.5 -93.5t-39.5 -93.5t-93.5 -39.5t-94 39.5t-40 93.5zM61 512q0 543 584 543t584 -543t-584 -543t-584 543z
M395 512q0 -244 250 -244t250 244t-250 244q-132 0 -191 -60t-59 -184z" />
    <glyph glyph-name="divide" unicode="&#xf7;" horiz-adv-x="696" 
d="M178 864q0 87 41 129.5t129 42.5t129 -42.5t41 -129.5q0 -86 -41 -128t-129 -42t-129 42t-41 128zM61 403v189h574v-189h-574zM178 131q0 87 41 128.5t129 41.5t129 -41.5t41 -128.5q0 -86 -41 -128t-129 -42t-129 42t-41 128z" />
    <glyph glyph-name="oslash" unicode="&#xf8;" horiz-adv-x="1290" 
d="M61 512q0 543 584 543q64 0 154 -11l88 185h209l-117 -240q250 -125 250 -477q0 -543 -584 -543q-65 0 -151 11l-88 -185h-209l114 240q-250 122 -250 477zM395 512q0 -117 60 -180l204 424q-137 0 -200.5 -55t-63.5 -189zM836 690l-203 -422q130 0 196 58t66 186
q0 116 -59 178z" />
    <glyph glyph-name="ugrave" unicode="&#xf9;" 
d="M825 1239l-92 -70l-325 379l149 113zM82 1024h324v-524q0 -117 44.5 -174.5t157.5 -57.5q106 0 162.5 62.5t56.5 181.5v512h326v-1024h-326v135q-109 -166 -321 -166q-107 0 -182.5 24t-131.5 80.5t-83 153.5t-27 238v559z" />
    <glyph glyph-name="uacute" unicode="&#xfa;" 
d="M408 1239l268 422l149 -113l-325 -379zM82 1024h324v-524q0 -117 44.5 -174.5t157.5 -57.5q106 0 162.5 62.5t56.5 181.5v512h326v-1024h-326v135q-109 -166 -321 -166q-107 0 -182.5 24t-131.5 80.5t-83 153.5t-27 238v559z" />
    <glyph glyph-name="ucircumflex" unicode="&#xfb;" 
d="M692 1595l324 -417h-228l-174 288l-170 -288h-227l324 417h151zM82 1024h324v-524q0 -117 44.5 -174.5t157.5 -57.5q106 0 162.5 62.5t56.5 181.5v512h326v-1024h-326v135q-109 -166 -321 -166q-107 0 -182.5 24t-131.5 80.5t-83 153.5t-27 238v559z" />
    <glyph glyph-name="udieresis" unicode="&#xfc;" 
d="M262 1321q0 54 39.5 93.5t93.5 39.5t93.5 -39.5t39.5 -93.5t-39.5 -93.5t-93.5 -39.5t-93.5 39.5t-39.5 93.5zM715 1321q0 54 39.5 93.5t93.5 39.5t93.5 -39.5t39.5 -93.5t-39.5 -93.5t-93.5 -39.5t-93.5 39.5t-39.5 93.5zM82 1024h324v-524q0 -117 44.5 -174.5
t157.5 -57.5q106 0 162.5 62.5t56.5 181.5v512h326v-1024h-326v135q-109 -166 -321 -166q-107 0 -182.5 24t-131.5 80.5t-83 153.5t-27 238v559z" />
    <glyph glyph-name="yacute" unicode="&#xfd;" horiz-adv-x="1241" 
d="M424 1239l268 422l150 -113l-326 -379zM901 43q-72 -207 -86 -239q-60 -147 -143 -207q-94 -68 -260 -68q-178 0 -268.5 108.5t-90.5 286.5h273q0 -131 84 -131q42 0 67 43t66 160l6 20l-524 1008h366l305 -582l201 582h344z" />
    <glyph glyph-name="thorn" unicode="&#xfe;" horiz-adv-x="1200" 
d="M393 -410h-325v1946h325v-645q80 164 295 164q208 0 329.5 -140.5t121.5 -402.5q0 -258 -128.5 -400.5t-328.5 -142.5q-208 0 -289 172v-551zM805 512q0 124 -48.5 184t-156.5 60q-207 0 -207 -244t207 -244q98 0 151.5 62.5t53.5 181.5z" />
    <glyph glyph-name="ydieresis" unicode="&#xff;" horiz-adv-x="1241" 
d="M279 1321q0 54 39.5 93.5t93.5 39.5t93.5 -39.5t39.5 -93.5t-39.5 -93.5t-93.5 -39.5t-93.5 39.5t-39.5 93.5zM731 1321q0 54 39.5 93.5t93.5 39.5t93.5 -39.5t39.5 -93.5t-39.5 -93.5t-93.5 -39.5t-93.5 39.5t-39.5 93.5zM901 43q-72 -207 -86 -239q-60 -147 -143 -207
q-94 -68 -260 -68q-178 0 -268.5 108.5t-90.5 286.5h273q0 -131 84 -131q42 0 67 43t66 160l6 20l-524 1008h366l305 -582l201 582h344z" />
    <glyph glyph-name="Dcroat" unicode="&#x110;" horiz-adv-x="1583" 
d="M195 0v604h-175v187h175v643h596q363 0 547 -181t184 -536t-184 -536t-547 -181h-596zM537 307h260q185 0 279.5 104t94.5 308q0 201 -94.5 304t-279.5 103h-260v-335h168v-187h-168v-297z" />
    <glyph glyph-name="dcroat" unicode="&#x111;" horiz-adv-x="1343" 
d="M848 0v147q-83 -178 -305 -178q-213 0 -347.5 142t-134.5 401q0 263 126 403t348 140q229 0 313 -172v237h-184v189h184v227h326v-227h149v-189h-149v-1120h-326zM395 512q0 -120 58 -182t168 -62q227 0 227 244t-227 244q-123 0 -174.5 -59.5t-51.5 -184.5z" />
    <glyph glyph-name="dotlessi" unicode="&#x131;" horiz-adv-x="528" 
d="M102 0v1024h324v-1024h-324z" />
    <glyph glyph-name="Lslash" unicode="&#x141;" horiz-adv-x="1476" 
d="M285 0v483l-168 -100l-97 162l265 157v732h342v-527l133 80l94 -164l-227 -135v-381h809v-307h-1151z" />
    <glyph glyph-name="lslash" unicode="&#x142;" horiz-adv-x="811" 
d="M567 0h-323v543l-133 -74l-91 166l224 125v776h323v-596l131 74l93 -166l-224 -125v-723z" />
    <glyph glyph-name="OE" unicode="&#x152;" horiz-adv-x="2193" 
d="M1290 307h846v-307h-1341q-734 0 -734 719q0 715 734 715h1321v-308h-826v-256h744v-307h-744v-256zM948 307v819h-153q-201 0 -291 -100.5t-90 -306.5q0 -412 381 -412h153z" />
    <glyph glyph-name="oe" unicode="&#x153;" horiz-adv-x="2037" 
d="M61 512q0 543 584 543q269 0 416 -117q139 117 373 117q286 0 414 -145t128 -449v-41h-739q17 -99 75.5 -143t157.5 -44q88 0 145.5 33.5t57.5 81.5h291q0 -172 -129.5 -275.5t-364.5 -103.5q-268 0 -409 117q-144 -117 -416 -117q-584 0 -584 543zM1249 641h410
q-17 73 -72.5 111.5t-136.5 38.5q-70 0 -123.5 -39t-77.5 -111zM395 512q0 -244 250 -244t250 244t-250 244q-132 0 -191 -60t-59 -184z" />
    <glyph glyph-name="Scaron" unicode="&#x160;" horiz-adv-x="1429" 
d="M639 1618l-324 418h228l174 -289l170 289h227l-323 -418h-152zM621 547q-105 17 -184 38.5t-151.5 57.5t-118 83.5t-72.5 117.5t-27 160q0 245 154.5 352.5t494.5 107.5q152 0 265.5 -26t197.5 -82.5t127 -151t43 -227.5h-324q0 37 -12 65.5t-36.5 46.5t-53.5 30
t-70.5 18t-79.5 8t-88 2q-140 0 -204 -29t-64 -90q0 -57 69 -79.5t293 -55.5q114 -17 200 -39.5t162 -59.5t123.5 -87t75 -123t27.5 -166q0 -236 -159 -342.5t-504 -106.5q-313 0 -478.5 114.5t-165.5 373.5h324q0 -44 19.5 -76t50.5 -50.5t80 -29t95 -13.5t109 -3
q142 0 209.5 26.5t67.5 87.5q0 24 -11 42t-34.5 31.5t-48 22.5t-65 16.5t-72 12t-82 11.5t-82.5 12z" />
    <glyph glyph-name="scaron" unicode="&#x161;" horiz-adv-x="1159" 
d="M504 1208l-324 418h228l174 -289l170 289h227l-324 -418h-151zM63 721q0 177 115.5 255.5t378.5 78.5q277 0 400.5 -89.5t123.5 -289.5h-288q0 64 -71.5 89.5t-234.5 25.5q-157 0 -157 -62q0 -28 64 -47t208 -39q206 -29 282 -52q144 -46 189 -149q25 -57 25 -137
q0 -175 -122.5 -255.5t-365.5 -80.5q-285 0 -417 90t-132 289h291q0 -62 78 -88.5t234 -26.5q83 0 125 18t42 48q0 31 -42.5 43t-163.5 26q-47 6 -74 9q-56 6 -98 12.5t-96 19t-92.5 28.5t-79 42t-65.5 59t-41 79.5t-16 103.5z" />
    <glyph glyph-name="Ydieresis" unicode="&#x178;" horiz-adv-x="1386" 
d="M338 1731q0 54 39.5 93.5t93.5 39.5t93.5 -39.5t39.5 -93.5t-39.5 -94t-93.5 -40t-93.5 40t-39.5 94zM791 1731q0 54 39.5 93.5t93.5 39.5t93.5 -39.5t39.5 -93.5t-39.5 -94t-93.5 -40t-93.5 40t-39.5 94zM522 0v664l-522 770h406l286 -422l289 422h405l-522 -770v-664
h-342z" />
    <glyph glyph-name="Zcaron" unicode="&#x17d;" horiz-adv-x="1300" 
d="M575 1587l-323 418h227l174 -289l170 289h228l-324 -418h-152zM61 1126v308h1178v-308l-719 -819h719v-307h-1178v307l719 819h-719z" />
    <glyph glyph-name="zcaron" unicode="&#x17e;" horiz-adv-x="1038" 
d="M442 1178l-323 417h227l174 -288l170 288h228l-324 -417h-152zM61 733v291h916v-291l-453 -442h453v-291h-916v291l451 442h-451z" />
    <glyph glyph-name="gravecomb" unicode="&#x300;" horiz-adv-x="0" 
d="M209 1085l-92 -69l-326 379l150 112z" />
    <glyph glyph-name="acutecomb" unicode="&#x301;" horiz-adv-x="0" 
d="M-209 1085l268 422l150 -112l-326 -379z" />
    <glyph glyph-name="uni0302" unicode="&#x302;" horiz-adv-x="0" 
d="M76 1442l323 -418h-227l-174 289l-170 -289h-227l323 418h152z" />
    <glyph glyph-name="tildecomb" unicode="&#x303;" horiz-adv-x="0" 
d="M-406 1024q0 64 11 116.5t35.5 97.5t69.5 70t108 25q52 0 104 -22t87 -48.5t75.5 -48.5t71.5 -22q63 0 63 121h189q0 -66 -9.5 -118t-32.5 -97t-66.5 -69.5t-106.5 -24.5q-51 0 -96 14.5t-77 35t-59.5 41.5t-56.5 35.5t-56 14.5q-38 0 -51.5 -32t-13.5 -89h-189z" />
    <glyph glyph-name="uni0308" unicode="&#x308;" horiz-adv-x="0" 
d="M-354 1167q0 54 39 93.5t94 39.5q54 0 93.5 -39.5t39.5 -93.5t-39.5 -93.5t-93.5 -39.5q-55 0 -94 39.5t-39 93.5zM98 1167q0 54 39.5 93.5t93.5 39.5t94 -39.5t40 -93.5t-40 -93.5t-94 -39.5t-93.5 39.5t-39.5 93.5z" />
    <glyph glyph-name="uni030A" unicode="&#x30a;" horiz-adv-x="0" 
d="M-283 1239q0 97 78 156t205 59q129 0 207 -59t78 -156t-78 -156t-207 -59q-127 0 -205 59t-78 156zM-88 1239q0 -28 24 -44.5t62 -16.5q40 0 64 16.5t24 44.5t-24 44.5t-64 16.5q-38 0 -62 -16.5t-24 -44.5z" />
    <glyph glyph-name="uni030C" unicode="&#x30c;" horiz-adv-x="0" 
d="M-76 1024l-323 418h227l174 -289l170 289h227l-323 -418h-152z" />
    <glyph glyph-name="uni0327" unicode="&#x327;" horiz-adv-x="0" 
d="M-51 0h129l-55 -121q208 0 208 -172q0 -100 -56.5 -148t-156.5 -48q-16 0 -37.5 2.5t-55 13.5t-60.5 28.5t-46.5 52t-19.5 79.5h138q0 -20 21.5 -29.5t51.5 -9.5q74 0 74 61q0 68 -119 68h-104z" />
    <glyph glyph-name="endash" unicode="&#x2013;" horiz-adv-x="989" 
d="M61 387v188h697v-188h-697z" />
    <glyph glyph-name="emdash" unicode="&#x2014;" horiz-adv-x="1556" 
d="M61 387v188h1434v-188h-1434z" />
    <glyph glyph-name="quoteleft" unicode="&#x2018;" horiz-adv-x="401" 
d="M334 1085q0 -70 -32.5 -103.5t-102.5 -33.5q-71 0 -104.5 33.5t-33.5 103.5q0 54 12.5 107t38.5 105t72.5 94t108.5 65l31 -45q-99 -89 -119 -190q67 -1 98 -35t31 -101z" />
    <glyph glyph-name="quoteright" unicode="&#x2019;" horiz-adv-x="401" 
d="M66 1319q0 137 137 137t137 -137q0 -73 -21 -142.5t-76 -134t-137 -94.5l-28 45q101 93 117 191q-67 1 -98 34.5t-31 100.5z" />
    <glyph glyph-name="quotesinglbase" unicode="&#x201a;" horiz-adv-x="401" 
d="M68 111q0 68 32.5 101.5t102.5 33.5t102.5 -33.5t32.5 -101.5q0 -54 -12.5 -107t-38.5 -105.5t-72.5 -94.5t-108.5 -64l-30 43q103 95 119 192q-127 3 -127 136z" />
    <glyph glyph-name="quotedblleft" unicode="&#x201c;" horiz-adv-x="763" 
d="M698 1085q0 -137 -137 -137t-137 137q0 54 12.5 107t38.5 105t73 94t109 65l29 -45q-101 -93 -117 -190q67 -1 98 -35t31 -101zM334 1085q0 -70 -32.5 -103.5t-102.5 -33.5q-71 0 -104.5 33.5t-33.5 103.5q0 54 12.5 107t38.5 105t72.5 94t108.5 65l31 -45
q-99 -89 -119 -190q67 -1 98 -35t31 -101z" />
    <glyph glyph-name="quotedblright" unicode="&#x201d;" horiz-adv-x="763" 
d="M66 1319q0 137 137 137t137 -137q0 -73 -21 -142.5t-76 -134t-137 -94.5l-28 45q101 93 117 191q-67 1 -98 34.5t-31 100.5zM430 1319q0 70 32.5 103.5t102.5 33.5q71 0 104 -33.5t33 -103.5q0 -73 -20.5 -142.5t-75 -134t-135.5 -94.5l-31 45q99 89 119 191
q-67 1 -98 34.5t-31 100.5z" />
    <glyph glyph-name="quotedblbase" unicode="&#x201e;" horiz-adv-x="763" 
d="M66 113q0 135 137 135t137 -135q0 -73 -21 -143t-76 -135t-137 -95l-28 45q101 93 117 190q-67 3 -98 36.5t-31 101.5zM430 113q0 68 32.5 101.5t102.5 33.5q71 0 104 -33.5t33 -101.5q0 -54 -12.5 -107t-38 -105.5t-72 -95t-108.5 -65.5l-31 45q99 89 119 190
q-67 3 -98 36.5t-31 101.5z" />
    <glyph glyph-name="Euro" unicode="&#x20ac;" horiz-adv-x="1660" 
d="M961 -31q-323 0 -508.5 126t-239.5 384h-193v187h170v51v61h-170v187h193q52 252 225 375.5t471 123.5q348 0 525.5 -125t177.5 -403h-324q0 213 -381 213q-132 0 -212 -44.5t-117 -139.5h245v-187h-280v-59v-53h280v-187h-239q45 -100 138 -147t241 -47q70 0 121.5 6.5
t103.5 25.5t80 60t28 102h324q0 -140 -46.5 -240t-135 -158.5t-206 -85t-271.5 -26.5z" />
    <glyph glyph-name="trademark" unicode="&#x2122;" horiz-adv-x="1957" 
d="M324 672v690h-263v170h713v-170h-262v-690h-188zM870 672v860h213l299 -567l301 567h211v-860h-211v438l-233 -438h-133l-234 440v-440h-213z" />
    <glyph glyph-name="minus" unicode="&#x2212;" horiz-adv-x="696" 
d="M61 387v188h574v-188h-574z" />
    <glyph glyph-name="s_t" unicode="&#xfb06;" horiz-adv-x="2183" 
d="M63 721q0 177 115.5 255.5t378.5 78.5q114 0 203 -15q-33 142 -33 211q0 98 31.5 174t80 120.5t115.5 73t129.5 38.5t130.5 10q99 0 177.5 -26t125 -65.5t77 -91.5t42 -99.5t11.5 -94.5v-266h485v-291h-485v-327q0 -138 102 -138q56 0 85.5 27.5t29.5 93.5h290
q0 -117 -27.5 -199t-82.5 -130t-130 -69.5t-177 -21.5q-212 0 -313 101.5t-101 312.5v350h-205v291h205l16 51l-16 -4q22 110 24 184.5t-16.5 118t-52 62t-86.5 18.5q-91 0 -142 -62t-51 -157q0 -49 11 -118.5t29 -162.5t26 -145q16 -52 16 -133h-288q0 64 -71.5 89.5
t-234.5 25.5q-157 0 -157 -62q0 -28 64 -47t208 -39q206 -29 282 -52q144 -46 189 -149q25 -57 25 -137q0 -175 -122.5 -255.5t-365.5 -80.5q-285 0 -417 90t-132 289h291q0 -62 78 -88.5t234 -26.5q83 0 125 18t42 48q0 31 -42.5 43t-163.5 26q-47 6 -74 9q-56 6 -98 12.5
t-96 19t-92.5 28.5t-79 42t-65.5 59t-41 79.5t-16 103.5z" />
    <glyph glyph-name="A.ss01" horiz-adv-x="1404" 
d="M-41 0l561 1434h365l561 -1434h-367l-377 967l-376 -967h-367z" />
    <glyph glyph-name="E.ss01" horiz-adv-x="1345" 
d="M61 1126v308h1223v-308h-1223zM61 563v307h1223v-307h-1223zM61 0v307h1223v-307h-1223z" />
    <glyph glyph-name="D.ss01" horiz-adv-x="1490" 
d="M698 0h-596v307h603q185 0 279.5 104t94.5 308q0 201 -94.5 304t-279.5 103h-603v308h596q363 0 547.5 -181t184.5 -536t-184.5 -536t-547.5 -181z" />
    <glyph glyph-name="K.ss01" horiz-adv-x="1492" 
d="M102 1434h342v-899l584 899h406l-734 -1127h752v-307h-1350v1434z" />
    <glyph glyph-name="R.ss01" horiz-adv-x="1492" 
d="M102 0v1434h1350v-308h-752l734 -1126h-406l-584 899v-899h-342z" />
    <glyph glyph-name="O.ss01" horiz-adv-x="1597" 
d="M61 717q0 747 738 747q737 0 737 -747q0 -748 -737 -748q-738 0 -738 748z" />
    <glyph glyph-name="M.ss01" horiz-adv-x="1867" 
d="M102 0v1434h342v-1434h-342zM1765 0h-342v1434h342v-1434zM764 256v922h340v-922h-340z" />
    <glyph glyph-name="W.ss01" horiz-adv-x="1867" 
d="M1765 1434v-1434h-342v1434h342zM102 1434h342v-1434h-342v1434zM1104 922v-922h-340v922h340z" />
    <glyph glyph-name="a.ss02" horiz-adv-x="1275" 
d="M848 0v147q-83 -178 -305 -178q-213 0 -347.5 142t-134.5 401q0 263 126 403t348 140q229 0 313 -172v141h326v-1024h-326zM395 512q0 -120 58 -182t168 -62q227 0 227 244t-227 244q-123 0 -174.5 -59.5t-51.5 -184.5z" />
    <glyph glyph-name="g.ss02" 
d="M61 545q0 239 126 366t348 127q229 0 313 -155v125h326v-916q0 -153 -38.5 -256.5t-117.5 -161t-181.5 -81t-248.5 -23.5q-252 0 -379 91.5t-127 287.5h291q0 -41 34 -67.5t82.5 -37t108.5 -10.5q123 0 186.5 53.5t63.5 155.5v170q-84 -162 -305 -162q-139 0 -246.5 54.5
t-171.5 168t-64 271.5zM395 545q0 -95 58 -145t168 -50q227 0 227 195q0 194 -227 194q-123 0 -174.5 -47t-51.5 -147z" />
    <glyph glyph-name="y.ss02" 
d="M102 1024h324v-469q0 -104 45 -154.5t158 -50.5q107 0 163 43t56 127v21h2v481h324v-916q0 -153 -38.5 -256.5t-117 -161t-181 -81t-247.5 -23.5q-253 0 -380.5 91.5t-127.5 287.5h291q0 -41 34.5 -68t83 -37t107.5 -10q123 0 187.5 54t64.5 155v138q-109 -144 -324 -144
q-107 0 -182.5 22.5t-131.5 74.5t-83 141t-27 219v516z" />
    <glyph glyph-name="r.ss01" horiz-adv-x="1048" 
d="M426 0h-324v1024h906v-291h-582v-733z" />
    <glyph glyph-name="a.ss01" horiz-adv-x="1230" 
d="M805 0v473l-385 -473h-416l594 733h-473v291h1003v-1024h-323z" />
    <glyph glyph-name="k.ss01" horiz-adv-x="1226" 
d="M426 1024v-473l385 473h416l-594 -733h473v-291h-1004v1024h324z" />
    <glyph glyph-name="o.ss01" horiz-adv-x="1290" 
d="M61 512q0 543 584 543t584 -543t-584 -543t-584 543z" />
    <glyph glyph-name="t_t" horiz-adv-x="2002" 
d="M246 383v350h-205v291h205l137 410h186v-410h572l137 410h188v-410h486v-291h-486v-327q0 -67 23.5 -102.5t79.5 -35.5t85 27.5t29 93.5h289q0 -229 -104.5 -324.5t-313.5 -95.5q-212 0 -312.5 101.5t-100.5 312.5v350h-572v-327q0 -138 103 -138q57 0 85.5 27.5
t28.5 93.5h291q0 -117 -27.5 -199t-83 -130t-130.5 -69.5t-177 -21.5q-212 0 -312.5 101.5t-100.5 312.5z" />
    <glyph glyph-name="o_o" horiz-adv-x="2123" 
d="M61 512q0 543 584 543q272 0 416 -117q144 117 416 117q585 0 585 -543t-585 -543q-272 0 -416 117q-144 -117 -416 -117q-584 0 -584 543zM395 512q0 -244 250 -244t250 244t-250 244q-132 0 -191 -60t-59 -184zM1229 512q0 -244 248 -244q249 0 249 244t-249 244
q-132 0 -190 -60t-58 -184z" />
    <glyph glyph-name="agrave.ss01" horiz-adv-x="1275" 
d="M825 1270l-92 -70l-325 379l149 113zM848 0v147q-83 -178 -305 -178q-213 0 -347.5 142t-134.5 401q0 263 126 403t348 140q229 0 313 -172v141h326v-1024h-326zM395 512q0 -120 58 -182t168 -62q227 0 227 244t-227 244q-123 0 -174.5 -59.5t-51.5 -184.5z" />
    <glyph glyph-name="aacute.ss01" horiz-adv-x="1275" 
d="M408 1270l268 422l149 -113l-325 -379zM848 0v147q-83 -178 -305 -178q-213 0 -347.5 142t-134.5 401q0 263 126 403t348 140q229 0 313 -172v141h326v-1024h-326zM395 512q0 -120 58 -182t168 -62q227 0 227 244t-227 244q-123 0 -174.5 -59.5t-51.5 -184.5z" />
    <glyph glyph-name="acircumflex.ss01" horiz-adv-x="1275" 
d="M692 1626l324 -418h-228l-174 289l-170 -289h-227l324 418h151zM848 0v147q-83 -178 -305 -178q-213 0 -347.5 142t-134.5 401q0 263 126 403t348 140q229 0 313 -172v141h326v-1024h-326zM395 512q0 -120 58 -182t168 -62q227 0 227 244t-227 244q-123 0 -174.5 -59.5
t-51.5 -184.5z" />
    <glyph glyph-name="atilde.ss01" horiz-adv-x="1275" 
d="M211 1208q0 64 11 116.5t35 97.5t69 70.5t108 25.5q52 0 104 -22t87 -49t75.5 -49t71.5 -22q64 0 64 121h188q0 -66 -9.5 -118t-32.5 -97t-66.5 -69.5t-106.5 -24.5q-62 0 -116.5 22t-86.5 48.5t-70 48.5t-71 22q-38 0 -52 -32t-14 -89h-188zM848 0v147
q-83 -178 -305 -178q-213 0 -347.5 142t-134.5 401q0 263 126 403t348 140q229 0 313 -172v141h326v-1024h-326zM395 512q0 -120 58 -182t168 -62q227 0 227 244t-227 244q-123 0 -174.5 -59.5t-51.5 -184.5z" />
    <glyph glyph-name="adieresis.ss01" horiz-adv-x="1275" 
d="M262 1352q0 54 39.5 93.5t93.5 39.5t93.5 -39.5t39.5 -93.5t-39.5 -93.5t-93.5 -39.5t-93.5 39.5t-39.5 93.5zM715 1352q0 54 39.5 93.5t93.5 39.5t93.5 -39.5t39.5 -93.5t-39.5 -93.5t-93.5 -39.5t-93.5 39.5t-39.5 93.5zM848 0v147q-83 -178 -305 -178
q-213 0 -347.5 142t-134.5 401q0 263 126 403t348 140q229 0 313 -172v141h326v-1024h-326zM395 512q0 -120 58 -182t168 -62q227 0 227 244t-227 244q-123 0 -174.5 -59.5t-51.5 -184.5z" />
    <glyph glyph-name="aring.ss01" horiz-adv-x="1275" 
d="M334 1423q0 97 77.5 156t204.5 59q129 0 207 -59t78 -156t-78 -156t-207 -59q-127 0 -204.5 59t-77.5 156zM530 1423q0 -28 23 -44.5t61 -16.5q40 0 64 16.5t24 44.5t-24 45t-64 17q-38 0 -61 -17t-23 -45zM848 0v147q-83 -178 -305 -178q-213 0 -347.5 142t-134.5 401
q0 263 126 403t348 140q229 0 313 -172v141h326v-1024h-326zM395 512q0 -120 58 -182t168 -62q227 0 227 244t-227 244q-123 0 -174.5 -59.5t-51.5 -184.5z" />
    <glyph glyph-name="yacute.ss02" 
d="M420 1239l268 422l150 -113l-326 -379zM102 1024h324v-469q0 -104 45 -154.5t158 -50.5q107 0 163 43t56 127v21h2v481h324v-916q0 -153 -38.5 -256.5t-117 -161t-181 -81t-247.5 -23.5q-253 0 -380.5 91.5t-127.5 287.5h291q0 -41 34.5 -68t83 -37t107.5 -10
q123 0 187.5 54t64.5 155v138q-109 -144 -324 -144q-107 0 -182.5 22.5t-131.5 74.5t-83 141t-27 219v516z" />
    <glyph glyph-name="ydieresis.ss02" 
d="M274 1321q0 54 40 93.5t94 39.5t93.5 -39.5t39.5 -93.5t-39.5 -93.5t-93.5 -39.5t-94 39.5t-40 93.5zM727 1321q0 54 39.5 93.5t93.5 39.5t93.5 -39.5t39.5 -93.5t-39.5 -93.5t-93.5 -39.5t-93.5 39.5t-39.5 93.5zM102 1024h324v-469q0 -104 45 -154.5t158 -50.5
q107 0 163 43t56 127v21h2v481h324v-916q0 -153 -38.5 -256.5t-117 -161t-181 -81t-247.5 -23.5q-253 0 -380.5 91.5t-127.5 287.5h291q0 -41 34.5 -68t83 -37t107.5 -10q123 0 187.5 54t64.5 155v138q-109 -144 -324 -144q-107 0 -182.5 22.5t-131.5 74.5t-83 141t-27 219
v516z" />
    </font>
</defs>
</svg>
