<?xml version="1.0" standalone="no"?>
<!DOCTYPE svg PUBLIC "-//W3C//DTD SVG 1.1//EN" "http://www.w3.org/Graphics/SVG/1.1/DTD/svg11.dtd" >
<svg xmlns="http://www.w3.org/2000/svg" xmlns:xlink="http://www.w3.org/1999/xlink" version="1.1">
<metadata>
Created by FontForge 20201107 at Fri Jun 13 11:49:50 2025
 By 
Glancyr (c) Drizy Studio 2022
</metadata>
<defs>
<font id="Glancyr-Bold" horiz-adv-x="1269" >
  <font-face 
    font-family="Glancyr"
    font-weight="700"
    font-stretch="normal"
    units-per-em="2048"
    panose-1="0 0 0 0 0 0 0 0 0 0"
    ascent="1536"
    descent="-512"
    x-height="1024"
    cap-height="1434"
    bbox="-412 -489 2335 2109"
    underline-thickness="102"
    underline-position="-255"
    unicode-range="U+000D-FB06"
  />
<missing-glyph horiz-adv-x="512" 
 />
    <glyph glyph-name="f_f" unicode="ff" horiz-adv-x="2015" 
d="M225 1112q0 214 105 319t329 105q219 0 327 -95.5t108 -324.5h-328q0 44 -22 63t-68 19q-82 0 -82 -104v-70h532v88q0 214 105 319t330 105q219 0 326.5 -95.5t107.5 -324.5h-328q0 44 -22 63t-68 19q-82 0 -82 -104v-70h471v-328h-471v-696h-369v696h-532v-696h-369v696
h-184v328h184v88z" />
    <glyph glyph-name="fi" unicode="fi" horiz-adv-x="1515" 
d="M225 1112q0 214 146 319t458 105q304 0 454.5 -95.5t150.5 -324.5h-328q0 44 -65.5 63t-202.5 19q-244 0 -244 -104v-70h840v-1024h-369v696h-471v-696h-369v696h-184v328h184v88z" />
    <glyph glyph-name="fl" unicode="fl" horiz-adv-x="1617" 
d="M225 1112q0 214 151 319t474 105q156 0 274.5 -21t208 -67t136.5 -124.5t47 -188.5v-1135h-369v1024q0 46 -12.5 77.5t-34 50.5t-59.5 29t-79 13.5t-104 3.5q-264 0 -264 -104v-70h471v-328h-471v-696h-369v696h-184v328h184v88z" />
    <glyph glyph-name="f_f_i" unicode="ffi" horiz-adv-x="2416" 
d="M225 1112q0 214 105 319t329 105q219 0 327 -95.5t108 -324.5h-328q0 44 -22 63t-68 19q-82 0 -82 -104v-70h532v88q0 214 146 319t459 105q304 0 454 -95.5t150 -324.5h-328q0 44 -65.5 63t-202.5 19q-244 0 -244 -104v-70h840v-1024h-369v696h-471v-696h-369v696h-532
v-696h-369v696h-184v328h184v88z" />
    <glyph glyph-name="f_t" unicode="ft" horiz-adv-x="1994" 
d="M225 1112q0 214 105 319t329 105q219 0 327 -95.5t108 -324.5h-328q0 44 -22 63t-68 19q-82 0 -82 -104v-70h512l164 410h205v-410h471v-328h-471v-284q0 -105 81 -105q46 0 68.5 19t22.5 63h327q0 -229 -107.5 -324.5t-326.5 -95.5q-224 0 -329 105t-105 319v303h-512
v-696h-369v696h-184v328h184v88z" />
    <glyph glyph-name=".notdef" horiz-adv-x="512" 
 />
    <glyph glyph-name="uni0000" horiz-adv-x="0" 
 />
    <glyph glyph-name="uni0000" horiz-adv-x="0" 
 />
    <glyph glyph-name="uni000D" unicode="&#xd;" horiz-adv-x="512" 
 />
    <glyph glyph-name="space" unicode=" " horiz-adv-x="532" 
 />
    <glyph glyph-name="exclam" unicode="!" horiz-adv-x="532" 
d="M82 1434h369l-62 -942h-246zM61 174q0 104 49.5 154.5t155.5 50.5t155.5 -50.5t49.5 -154.5t-49.5 -154.5t-155.5 -50.5t-155.5 50.5t-49.5 154.5z" />
    <glyph glyph-name="quotedbl" unicode="&#x22;" horiz-adv-x="835" 
d="M102 928l-41 506h205l-41 -506h-123zM424 928l-41 506h205l-41 -506h-123z" />
    <glyph glyph-name="numbersign" unicode="#" horiz-adv-x="1273" 
d="M66 819v205h342l137 410h219l-137 -410h204l138 410h219l-137 -410h161v-205h-231l-102 -301h333v-205h-401l-106 -313h-220l107 313h-205l-106 -313h-220l107 313h-102v205h170l102 301h-272zM455 518h204l103 301h-205z" />
    <glyph glyph-name="dollar" unicode="$" horiz-adv-x="1452" 
d="M625 520q-67 10 -121 21t-114 30t-105.5 43t-89 59.5t-71.5 79t-44.5 102.5t-16.5 130q0 236 135 349t427 128v156h204v-158q265 -16 404 -131t139 -352h-368q0 105 -175 123v-191q107 -16 189 -39t154.5 -60.5t119 -88.5t73 -124.5t26.5 -166.5q0 -223 -135 -332.5
t-427 -126.5v-299h-204v299q-274 14 -419 130t-145 356h369q0 -108 195 -125v188zM625 938v166q-162 -12 -162 -88q0 -33 33.5 -48.5t128.5 -29.5zM829 494v-164q84 5 123 23t39 57q0 34 -41.5 53t-120.5 31z" />
    <glyph glyph-name="percent" unicode="%" horiz-adv-x="1626" 
d="M61 1087q0 377 316 377q313 0 313 -377q0 -380 -313 -380q-316 0 -316 380zM297 0l813 1434h236l-814 -1434h-235zM276 1087q0 -176 101 -176q98 0 98 176q0 173 -98 173q-101 0 -101 -173zM936 350q0 377 315 377q314 0 314 -377q0 -381 -314 -381q-315 0 -315 381z
M1151 350q0 -176 100 -176q99 0 99 176q0 172 -99 172q-100 0 -100 -172z" />
    <glyph glyph-name="ampersand" unicode="&#x26;" horiz-adv-x="1742" 
d="M985 649l221 -190q101 101 101 256v24h348v-24q0 -128 -40.5 -258.5t-129.5 -235.5l258 -221h-469l-49 39q-173 -70 -400 -70q-211 0 -359 29t-237 89t-128.5 144t-39.5 201q0 251 218 363q-97 119 -97 229q0 214 137 327t412 113q543 0 543 -465q0 -72 -22.5 -130
t-64 -99.5t-90.5 -70t-112 -50.5zM680 889q101 14 147.5 38.5t46.5 71.5q0 107 -143 107q-81 0 -115 -24t-34 -70q0 -50 98 -123zM614 510q-22 18 -47 35q-56 -20 -81 -45t-25 -60q0 -38 27 -61t110.5 -37t232.5 -14h19z" />
    <glyph glyph-name="quotesingle" unicode="'" horiz-adv-x="327" 
d="M102 928l-41 506h205l-41 -506h-123z" />
    <glyph glyph-name="parenleft" unicode="(" horiz-adv-x="657" 
d="M266 543q0 -137 22.5 -278t63 -260.5t104.5 -195t140 -75.5v-164q-87 0 -161.5 36t-128.5 96.5t-97 143t-70 171.5t-45 186.5t-25.5 183.5t-7.5 166t7.5 166t25.5 183.5t45 186.5t70 171.5t97 143t128.5 96.5t161.5 36v-164q-76 0 -140 -76t-104.5 -197t-63 -266
t-22.5 -290z" />
    <glyph glyph-name="parenright" unicode=")" horiz-adv-x="657" 
d="M391 543q0 145 -22.5 290t-63 266t-104.5 197t-140 76v164q87 0 161.5 -36t128.5 -96.5t97 -143t70 -171.5t45 -186.5t25.5 -183.5t7.5 -166t-7.5 -166t-25.5 -183.5t-45 -186.5t-70 -171.5t-97 -143t-128.5 -96.5t-161.5 -36v164q76 0 140 75.5t104.5 195t63 260.5
t22.5 278z" />
    <glyph glyph-name="asterisk" unicode="*" horiz-adv-x="1005" 
d="M401 1536h205l-16 -356l315 75l39 -202l-295 -43l205 -275l-172 -117l-178 291l-178 -291l-172 117l204 275l-297 43l39 202l318 -75z" />
    <glyph glyph-name="plus" unicode="+" horiz-adv-x="737" 
d="M61 438v205h205v205h205v-205h205v-205h-205v-205h-205v205h-205z" />
    <glyph glyph-name="comma" unicode="," horiz-adv-x="491" 
d="M61 154q0 93 44.5 138.5t140.5 45.5t140 -45.5t44 -138.5q0 -68 -16 -136t-49.5 -136.5t-95 -124.5t-144.5 -85l-41 62q123 115 149 235q-89 3 -130.5 48.5t-41.5 136.5z" />
    <glyph glyph-name="hyphen" unicode="-" horiz-adv-x="655" 
d="M61 377v205h533v-205h-533z" />
    <glyph glyph-name="period" unicode="." horiz-adv-x="491" 
d="M61 154q0 93 44.5 138.5t140.5 45.5t140 -45.5t44 -138.5q0 -94 -44 -139.5t-140 -45.5t-140.5 46t-44.5 139z" />
    <glyph glyph-name="slash" unicode="/" horiz-adv-x="917" 
d="M0 0l690 1434h228l-691 -1434h-227z" />
    <glyph glyph-name="zero" unicode="0" horiz-adv-x="1341" 
d="M61 717q0 747 611 747q608 0 608 -747q0 -748 -608 -748q-611 0 -611 748zM461 717q0 -389 211 -389q209 0 209 389t-209 389q-115 0 -163 -94.5t-48 -294.5z" />
    <glyph glyph-name="one" unicode="1" horiz-adv-x="839" 
d="M348 0v1085h-307v349h696v-1434h-389z" />
    <glyph glyph-name="two" unicode="2" horiz-adv-x="1296" 
d="M61 348q0 73 13 132.5t32 102.5t57.5 79t70.5 58.5t91 46t100 36t116 33.5q28 8 66.5 18.5t58.5 16t47.5 13.5t40.5 13t30 13.5t24.5 15.5t15 17.5t10 22.5t2.5 27q0 113 -170 113q-49 0 -83.5 -4.5t-67.5 -17t-49.5 -39.5t-16.5 -68h-369q0 259 145.5 373t423.5 114
q306 0 446 -112t140 -367q0 -65 -12 -118.5t-32 -94t-54.5 -74.5t-70 -57.5t-89 -46t-101.5 -38t-116 -34.5q-18 -5 -54 -14.5t-55.5 -15t-51 -14.5t-49.5 -16t-42 -17t-37 -20t-26.5 -22t-19 -26t-5.5 -29h809v-348h-1168v348z" />
    <glyph glyph-name="three" unicode="3" horiz-adv-x="1298" 
d="M434 891h129q78 0 130 9.5t76 27.5t33 37t9 45q0 96 -160 96q-47 0 -78.5 -4.5t-62 -17t-46 -39.5t-15.5 -68h-369q0 133 38 227.5t112 151t174.5 82.5t234.5 26q296 0 433.5 -106.5t137.5 -341.5q0 -159 -106 -275q133 -117 133 -303q0 -251 -144.5 -360t-461.5 -109
q-288 0 -439 114.5t-151 373.5h369q0 -41 18.5 -68t54.5 -39.5t73.5 -17t92.5 -4.5q189 0 189 94q0 121 -273 121h-131v348z" />
    <glyph glyph-name="four" unicode="4" horiz-adv-x="1310" 
d="M717 0v297h-676v348l676 789h389v-789h164v-348h-164v-297h-389zM500 645h217v254z" />
    <glyph glyph-name="five" unicode="5" horiz-adv-x="1298" 
d="M143 1434h1004v-349h-662l-14 -153h160q108 0 193.5 -11.5t165 -42.5t132 -81t84 -130.5t31.5 -187.5q0 -272 -144.5 -391t-461.5 -119q-288 0 -439 114.5t-151 373.5h369q0 -33 13 -57.5t33 -38t50.5 -21t58.5 -10t64 -2.5q209 0 209 129q0 127 -273 127h-493z" />
    <glyph glyph-name="six" unicode="6" horiz-adv-x="1341" 
d="M682 1464q275 0 417 -114.5t142 -374.5h-369q0 41 -19 69.5t-49.5 40.5t-55 16.5t-50.5 4.5q-98 0 -152 -52t-73 -167q94 24 191 24q93 0 176 -12.5t165.5 -44.5t141.5 -82t96 -131t37 -186q0 -228 -146.5 -357t-431.5 -129q-312 0 -476.5 190.5t-164.5 557.5
q0 379 153 563t468 184zM481 520q23 -97 77 -144.5t144 -47.5q71 0 125 30t54 84q0 27 -9 47t-28 31.5t-37 18.5t-48 10t-47 3.5t-48 0.5q-98 0 -183 -33z" />
    <glyph glyph-name="seven" unicode="7" horiz-adv-x="1167" 
d="M61 1085v349h1045v-349l-553 -1085h-436l553 1085h-609z" />
    <glyph glyph-name="eight" unicode="8" horiz-adv-x="1339" 
d="M111 1001q0 463 561 463q557 0 557 -463q0 -142 -96 -260q145 -125 145 -309q0 -463 -606 -463q-611 0 -611 463q0 183 140 307q-90 111 -90 262zM510 1001q0 -104 162 -104q157 0 157 104q0 105 -157 105q-89 0 -125.5 -25.5t-36.5 -79.5zM461 432q0 -104 211 -104
q207 0 207 104q0 107 -207 107q-115 0 -163 -26t-48 -81z" />
    <glyph glyph-name="nine" unicode="9" horiz-adv-x="1341" 
d="M659 -31q-135 0 -235.5 26.5t-174.5 83.5t-111.5 152t-37.5 228h369q0 -41 19 -69.5t49.5 -40.5t55 -16.5t50.5 -4.5q98 0 152 52t73 167q-98 -25 -190 -25q-93 0 -176 12.5t-165.5 44.5t-142 82t-96.5 131.5t-37 186.5q0 228 146.5 356.5t431.5 128.5q312 0 476.5 -190
t164.5 -557q0 -379 -153 -563.5t-468 -184.5zM860 913q-46 193 -221 193q-70 0 -124 -30.5t-54 -84.5q0 -23 8 -41t18.5 -29.5t31 -19.5t35.5 -12t42 -6t41 -2h41q100 0 182 32z" />
    <glyph glyph-name="colon" unicode=":" horiz-adv-x="491" 
d="M61 870q0 93 44.5 139t140.5 46t140 -45.5t44 -139.5q0 -93 -44 -138.5t-140 -45.5t-140.5 45.5t-44.5 138.5zM61 154q0 93 44.5 138.5t140.5 45.5t140 -45.5t44 -138.5q0 -94 -44 -139.5t-140 -45.5t-140.5 46t-44.5 139z" />
    <glyph glyph-name="semicolon" unicode=";" horiz-adv-x="491" 
d="M61 870q0 93 44.5 139t140.5 46t140 -45.5t44 -139.5q0 -93 -44 -138.5t-140 -45.5t-140.5 45.5t-44.5 138.5zM61 154q0 93 44.5 138.5t140.5 45.5t140 -45.5t44 -138.5q0 -68 -16 -136t-49.5 -136.5t-95 -124.5t-144.5 -85l-41 62q123 115 149 235q-89 3 -130.5 48.5
t-41.5 136.5z" />
    <glyph glyph-name="less" unicode="&#x3c;" horiz-adv-x="890" 
d="M61 522v221l768 318v-221l-499 -207l499 -207v-221z" />
    <glyph glyph-name="equal" unicode="=" horiz-adv-x="737" 
d="M61 676v205h615v-205h-615zM61 295v205h615v-205h-615z" />
    <glyph glyph-name="greater" unicode="&#x3e;" horiz-adv-x="890" 
d="M829 743v-221l-768 -317v221l500 207l-500 207v221z" />
    <glyph glyph-name="question" unicode="?" horiz-adv-x="1277" 
d="M338 492q0 76 26.5 136t68.5 96.5t93 65.5t102.5 50t93.5 41t68.5 48t26.5 64q0 113 -170 113q-49 0 -83.5 -4.5t-67.5 -17t-49.5 -39.5t-16.5 -68h-369q0 259 146 373t424 114q303 0 444.5 -106t141.5 -334q0 -81 -25.5 -147t-67 -108.5t-95 -76.5t-108.5 -54
t-108.5 -38.5t-95 -32t-67 -33t-25.5 -42.5h-287zM299 174q0 104 49.5 154.5t155.5 50.5t155.5 -50.5t49.5 -154.5t-49.5 -154.5t-155.5 -50.5t-155.5 50.5t-49.5 154.5z" />
    <glyph glyph-name="at" unicode="@" horiz-adv-x="1959" 
d="M543 596q0 201 96.5 308.5t265.5 107.5q163 0 225 -123v98h287v-432q0 -31 26.5 -64.5t59.5 -33.5q27 0 45 11t28.5 29t16.5 50.5t7.5 65t1.5 83.5q0 512 -621 512q-280 0 -451.5 -166t-171.5 -436q0 -135 43 -255.5t122 -211t199.5 -143.5t266.5 -53q174 0 279.5 37
t105.5 100h246q0 -71 -24 -129.5t-62.5 -98t-93 -70.5t-110 -48.5t-119 -28.5t-114 -14.5t-100.5 -3.5q-212 0 -389.5 71.5t-296 195.5t-184.5 292t-66 360q0 254 114.5 449t323.5 302t482 107q207 0 375 -50.5t289 -147t187 -245t66 -337.5q0 -461 -407 -461
q-130 0 -212 49t-118 131q-24 -105 -82.5 -163t-167.5 -58q-165 0 -266.5 108.5t-101.5 305.5zM840 594q0 -156 143 -156q72 0 109.5 40t37.5 116q0 158 -147 158q-79 0 -111 -38.5t-32 -119.5z" />
    <glyph glyph-name="A" unicode="A" horiz-adv-x="1427" 
d="M-41 0l547 1434h416l546 -1434h-415l-72 186h-535l-71 -186h-416zM580 535h268l-133 354z" />
    <glyph glyph-name="B" unicode="B" horiz-adv-x="1484" 
d="M102 0v1434h713q167 0 278.5 -27.5t174.5 -86t88.5 -137.5t25.5 -194q0 -135 -79 -237q141 -111 141 -306q0 -114 -30 -194.5t-100.5 -138.5t-190 -85.5t-294.5 -27.5h-727zM492 891h294q112 0 154.5 22.5t42.5 75.5q0 51 -44.5 73.5t-156.5 22.5h-290v-194zM492 348h337
q119 0 167 23.5t48 74.5q0 50 -46 73.5t-164 23.5h-342v-195z" />
    <glyph glyph-name="C" unicode="C" horiz-adv-x="1542" 
d="M838 -31q-393 0 -585 185t-192 563t179 562.5t546 184.5q350 0 528.5 -125t178.5 -403h-369q0 48 -29 83t-79.5 53t-106.5 26t-123 8q-176 0 -250.5 -91t-74.5 -296q0 -204 91.5 -297.5t283.5 -93.5q63 0 108.5 5t92 19.5t71.5 46.5t25 80h368q0 -112 -31 -199
t-87 -145.5t-139.5 -95.5t-183 -53.5t-222.5 -16.5z" />
    <glyph glyph-name="D" unicode="D" horiz-adv-x="1505" 
d="M102 0v1434h605q737 0 737 -717t-737 -717h-605zM492 348h215q337 0 337 371q0 366 -337 366h-215v-737z" />
    <glyph glyph-name="E" unicode="E" horiz-adv-x="1372" 
d="M102 0v1434h1188v-349h-798v-194h716v-348h-716v-195h819v-348h-1209z" />
    <glyph glyph-name="F" unicode="F" horiz-adv-x="1310" 
d="M102 0v1434h1168v-349h-778v-194h696v-348h-696v-543h-390z" />
    <glyph glyph-name="G" unicode="G" horiz-adv-x="1585" 
d="M672 -31q-288 0 -449.5 189t-161.5 559q0 378 179 562.5t546 184.5q350 0 528.5 -125t178.5 -403h-369q0 48 -29 83t-79.5 53t-106.5 26t-123 8q-176 0 -250.5 -91t-74.5 -296q0 -391 321 -391q147 0 271 151h-308v328h758v-807h-368v217q-214 -248 -463 -248z" />
    <glyph glyph-name="H" unicode="H" horiz-adv-x="1536" 
d="M102 0v1434h390v-543h552v543h390v-1434h-390v543h-552v-543h-390z" />
    <glyph glyph-name="I" unicode="I" horiz-adv-x="593" 
d="M102 0v1434h390v-1434h-390z" />
    <glyph glyph-name="J" unicode="J" horiz-adv-x="1316" 
d="M1235 635q0 -188 -38.5 -316.5t-121 -205.5t-199 -110.5t-284.5 -33.5q-129 0 -227 26.5t-172.5 85t-113 158.5t-38.5 240h369q0 -151 202 -151q121 0 177.5 62.5t56.5 199.5v844h389v-799z" />
    <glyph glyph-name="K" unicode="K" horiz-adv-x="1495" 
d="M102 0v1434h390v-1434h-390zM963 717l532 -717h-471l-532 717l532 717h471z" />
    <glyph glyph-name="L" unicode="L" horiz-adv-x="1310" 
d="M102 0v1434h390v-1086h778v-348h-1168z" />
    <glyph glyph-name="M" unicode="M" horiz-adv-x="1929" 
d="M102 0v1434h390l473 -895l473 895h389v-1434h-389v662l-351 -662h-245l-350 662v-662h-390z" />
    <glyph glyph-name="N" unicode="N" horiz-adv-x="1536" 
d="M102 0v1434h390l552 -783v783h390v-1434h-390l-552 782v-782h-390z" />
    <glyph glyph-name="O" unicode="O" horiz-adv-x="1597" 
d="M61 717q0 747 738 747q737 0 737 -747q0 -748 -737 -748q-738 0 -738 748zM461 717q0 -389 338 -389t338 389t-338 389q-183 0 -260.5 -95t-77.5 -294z" />
    <glyph glyph-name="P" unicode="P" horiz-adv-x="1443" 
d="M102 0v1434h656q176 0 297.5 -32t193 -98t102.5 -158.5t31 -223.5t-31 -223.5t-102.5 -158.5t-193 -98t-297.5 -32h-266v-410h-390zM492 758h251q79 0 128 9.5t73 32.5t31.5 49.5t7.5 72.5q0 45 -7.5 72t-31.5 49.5t-73 32t-128 9.5h-251v-327z" />
    <glyph glyph-name="Q" unicode="Q" horiz-adv-x="1597" 
d="M61 717q0 747 738 747q737 0 737 -747q0 -475 -299 -649l121 -254l-303 -121l-133 282q-58 -6 -123 -6q-738 0 -738 748zM461 717q0 -182 72 -278.5t221 -108.5l-105 223l303 121l111 -236q74 95 74 279q0 389 -338 389q-183 0 -260.5 -95t-77.5 -294z" />
    <glyph glyph-name="R" unicode="R" horiz-adv-x="1443" 
d="M102 0v1434h656q176 0 297.5 -30.5t193 -94.5t102.5 -152.5t31 -214.5q0 -197 -81 -311.5t-271 -155.5l352 -475h-471l-333 451h-86v-451h-390zM492 799h251q79 0 128 8.5t73 28.5t31.5 43.5t7.5 62.5t-7.5 62.5t-31.5 43.5t-73 28.5t-128 8.5h-251v-286z" />
    <glyph glyph-name="S" unicode="S" horiz-adv-x="1452" 
d="M616 522q-104 15 -184.5 36.5t-151.5 58t-117.5 86t-73 121t-26.5 161.5q0 256 158 367.5t506 111.5q154 0 270 -26t201.5 -82t129.5 -151t44 -228h-368q0 41 -24 68t-72 39.5t-97.5 17t-120.5 4.5q-227 0 -227 -90q0 -40 51.5 -55t231.5 -40q38 -5 59 -8
q112 -16 197 -38t160.5 -59.5t124 -89t76.5 -126t28 -170.5q0 -243 -161.5 -352t-512.5 -109q-157 0 -274.5 26t-205 82.5t-132 151.5t-44.5 228h369q0 -41 25 -68t75 -39.5t101 -17t125 -4.5q123 0 179 18t56 64q0 17 -9.5 30t-31 22.5t-44.5 16t-60.5 12.5t-68.5 10
t-79 10t-82 11z" />
    <glyph glyph-name="T" unicode="T" horiz-adv-x="1249" 
d="M430 0v1085h-410v349h1209v-349h-410v-1085h-389z" />
    <glyph glyph-name="U" unicode="U" horiz-adv-x="1482" 
d="M741 328q271 0 271 239v867h389v-799q0 -153 -26.5 -266t-77.5 -189.5t-132.5 -123.5t-184 -67t-239.5 -20t-239.5 20t-184 67t-132 123.5t-77 189.5t-26.5 266v799h389v-867q0 -239 270 -239z" />
    <glyph glyph-name="V" unicode="V" horiz-adv-x="1345" 
d="M1386 1434l-505 -1434h-416l-506 1434h416l299 -844l297 844h415z" />
    <glyph glyph-name="W" unicode="W" horiz-adv-x="2029" 
d="M1223 1434l217 -732l215 732h416l-424 -1434h-416l-215 731l-217 -731h-416l-424 1434h416l217 -732l215 732h416z" />
    <glyph glyph-name="X" unicode="X" horiz-adv-x="1536" 
d="M1004 717l532 -717h-471l-297 399l-297 -399h-471l532 717l-532 717h471l297 -400l297 400h471z" />
    <glyph glyph-name="Y" unicode="Y" horiz-adv-x="1413" 
d="M512 0v649l-512 785h461l246 -377l245 377h461l-512 -785v-649h-389z" />
    <glyph glyph-name="Z" unicode="Z" horiz-adv-x="1310" 
d="M61 1085v349h1188v-349l-663 -737h663v-348h-1188v348l664 737h-664z" />
    <glyph glyph-name="bracketleft" unicode="[" horiz-adv-x="532" 
d="M61 -410v1946h410v-205h-205v-1536h205v-205h-410z" />
    <glyph glyph-name="backslash" unicode="\" horiz-adv-x="917" 
d="M918 0h-228l-690 1434h227z" />
    <glyph glyph-name="bracketright" unicode="]" horiz-adv-x="532" 
d="M471 -410h-410v205h205v1536h-205v205h410v-1946z" />
    <glyph glyph-name="asciicircum" unicode="^" horiz-adv-x="978" 
d="M379 1434h221l318 -768h-222l-207 499l-206 -499h-222z" />
    <glyph glyph-name="underscore" unicode="_" horiz-adv-x="798" 
d="M-61 -389v205h921v-205h-921z" />
    <glyph glyph-name="a" unicode="a" horiz-adv-x="1247" 
d="M797 0v129q-31 -78 -107 -119t-219 -41q-430 0 -430 334q0 80 29.5 138t85 92t122 52t154.5 25l365 31q0 117 -189 117q-182 0 -182 -88h-328q0 206 132.5 295.5t385.5 89.5q117 0 199.5 -11.5t152.5 -42.5t111 -85t63.5 -138t22.5 -203v-575h-368zM797 358v35l-275 -22
q-60 -4 -81 -16.5t-21 -43.5q0 -45 117 -45q116 0 188 24.5t72 67.5z" />
    <glyph glyph-name="b" unicode="b" horiz-adv-x="1249" 
d="M471 0h-369v1536h369v-641q77 160 274 160q205 0 324 -140.5t119 -402.5q0 -259 -125 -401t-324 -142q-190 0 -268 166v-135zM809 512q0 105 -38.5 155t-129.5 50q-170 0 -170 -205t170 -205q168 0 168 205z" />
    <glyph glyph-name="c" unicode="c" horiz-adv-x="1191" 
d="M637 1055q235 0 367.5 -124.5t132.5 -316.5h-328q0 48 -48.5 75.5t-123.5 27.5q-197 0 -197 -203q0 -111 57.5 -159t164.5 -48q77 0 119 27t42 76h328q0 -93 -32 -172.5t-94 -140t-160.5 -94.5t-223.5 -34q-284 0 -432 138t-148 405q0 274 139 408.5t437 134.5z" />
    <glyph glyph-name="d" unicode="d" horiz-adv-x="1290" 
d="M819 0v141q-81 -172 -284 -172q-210 0 -342 142t-132 401q0 262 124.5 402.5t340.5 140.5q212 0 293 -166v647h369v-1536h-369zM440 512q0 -205 189 -205q190 0 190 205t-190 205q-103 0 -146 -50t-43 -155z" />
    <glyph glyph-name="e" unicode="e" horiz-adv-x="1208" 
d="M1147 451v-41h-696q18 -76 65 -110t123 -34q73 0 120.5 24t47.5 58h328q0 -173 -129.5 -276t-366.5 -103q-289 0 -433.5 137.5t-144.5 405.5q0 261 140 402t401 141q288 0 416.5 -146t128.5 -458zM467 655h319q-19 49 -62 76t-103 27q-50 0 -90.5 -26.5t-63.5 -76.5z" />
    <glyph glyph-name="f" unicode="f" horiz-adv-x="1114" 
d="M225 1112q0 214 105 319t329 105q219 0 327 -95.5t108 -324.5h-328q0 44 -22 63t-68 19q-82 0 -82 -104v-70h471v-328h-471v-696h-369v696h-184v328h184v88z" />
    <glyph glyph-name="g" unicode="g" horiz-adv-x="1232" 
d="M1145 1286v-270q-100 59 -230 59q-95 0 -141 -33q346 -52 346 -346q0 -358 -516 -358q-87 0 -127.5 -0.5t-70.5 -4t-37 -9.5t-7 -17q0 -22 51 -33.5t220 -31.5q213 -25 283 -42q162 -40 218 -139q37 -65 37 -163q0 -328 -524 -328q-303 0 -444.5 90.5t-141.5 288.5h328
q0 -82 291 -82q194 0 194 39q0 10 -9.5 16t-35 9t-52 4.5t-78.5 4.5t-97 7q-64 5 -106 10t-104 15.5t-103 24.5t-87 38.5t-73 55.5t-45 76t-18 101q0 135 110 195q-86 86 -86 233q0 66 18 120t47 91t73 64.5t90 43t104.5 25t109.5 12.5t111 3q18 117 95 191.5t200 74.5
q84 0 207 -35zM469 696q0 -61 135 -61q137 0 137 61q0 62 -137 62q-75 0 -105 -14.5t-30 -47.5z" />
    <glyph glyph-name="h" unicode="h" 
d="M471 0h-369v1536h369v-643q105 162 303 162q103 0 176 -23t128.5 -78.5t82.5 -155t27 -245.5v-553h-369v512q0 106 -37.5 155.5t-130.5 49.5q-87 0 -133.5 -52t-46.5 -153v-512z" />
    <glyph glyph-name="i" unicode="i" horiz-adv-x="573" 
d="M82 1335q0 104 49.5 154.5t155.5 50.5t155.5 -50.5t49.5 -154.5t-49.5 -154.5t-155.5 -50.5t-155.5 50.5t-49.5 154.5zM102 0v1024h369v-1024h-369z" />
    <glyph glyph-name="j" unicode="j" horiz-adv-x="800" 
d="M309 1335q0 104 49.5 154.5t155.5 50.5t155.5 -50.5t49.5 -154.5t-49.5 -154.5t-155.5 -50.5t-155.5 50.5t-49.5 154.5zM698 86q0 -280 -108.5 -418.5t-317.5 -138.5q-204 0 -299.5 107t-95.5 288h307q0 -45 17.5 -71.5t48.5 -26.5q80 0 80 131v1067h368v-938z" />
    <glyph glyph-name="k" unicode="k" 
d="M471 0h-369v1536h369v-1536zM901 512l369 -512h-430l-369 512l369 512h430z" />
    <glyph glyph-name="l" unicode="l" horiz-adv-x="573" 
d="M471 0h-369v1536h369v-1536z" />
    <glyph glyph-name="m" unicode="m" horiz-adv-x="1863" 
d="M1126 0h-368v512q0 105 -31 155t-106 50q-73 0 -111.5 -52t-38.5 -153v-512h-369v1024h369v-131q100 162 309 162q193 0 277 -152q87 152 289 152q117 0 195 -22.5t134 -79.5t81.5 -154.5t25.5 -245.5v-553h-369v512q0 105 -31 155t-106 50q-73 0 -111.5 -52t-38.5 -153
v-512z" />
    <glyph glyph-name="n" unicode="n" 
d="M1188 0h-369v512q0 106 -37.5 155.5t-130.5 49.5q-87 0 -133.5 -52t-46.5 -153v-512h-369v1024h369v-131q105 162 303 162q103 0 176 -23t128.5 -78.5t82.5 -155t27 -245.5v-553z" />
    <glyph glyph-name="o" unicode="o" horiz-adv-x="1300" 
d="M61 512q0 543 588 543q590 0 590 -543t-590 -543q-588 0 -588 543zM440 512q0 -205 209 -205q211 0 211 205t-211 205q-114 0 -161.5 -50t-47.5 -155z" />
    <glyph glyph-name="p" unicode="p" horiz-adv-x="1249" 
d="M471 -410h-369v1434h369v-129q77 160 274 160q205 0 324 -140.5t119 -402.5q0 -259 -125 -401t-324 -142q-190 0 -268 166v-545zM809 512q0 105 -38.5 155t-129.5 50q-170 0 -170 -205t170 -205q168 0 168 205z" />
    <glyph glyph-name="q" unicode="q" horiz-adv-x="1290" 
d="M819 -410v551q-81 -172 -284 -172q-210 0 -342 142t-132 401q0 262 124.5 402.5t340.5 140.5q212 0 293 -166v135h369v-1434h-369zM440 512q0 -205 189 -205q190 0 190 205t-190 205q-103 0 -146 -50t-43 -155z" />
    <glyph glyph-name="r" unicode="r" horiz-adv-x="1150" 
d="M471 0h-369v1024h369v-131q100 162 264 162q175 0 275 -108t100 -337h-328q0 44 -44.5 75.5t-100.5 31.5q-79 0 -122.5 -52.5t-43.5 -152.5v-512z" />
    <glyph glyph-name="s" unicode="s" horiz-adv-x="1171" 
d="M61 707q0 187 113.5 267.5t388.5 80.5q281 0 406 -89.5t125 -289.5h-328q0 46 -65 64t-220 18q-123 0 -123 -41q0 -20 58 -32.5t194 -27.5q202 -24 275 -45q150 -43 198 -149q27 -60 27 -146q0 -181 -123.5 -264.5t-370.5 -83.5q-289 0 -422 90t-133 289h328
q0 -44 71.5 -63t219.5 -19q63 0 98 12t35 31q0 21 -43 29.5t-155 17.5q-36 2 -56 4q-56 5 -98.5 10t-97 16.5t-94.5 27t-81.5 42t-67.5 60.5t-42.5 82.5t-16.5 108.5z" />
    <glyph glyph-name="t" unicode="t" horiz-adv-x="1114" 
d="M225 393v303h-184v328h184l164 410h205v-410h471v-328h-471v-284q0 -105 82 -105q46 0 68 19t22 63h328q0 -229 -108 -324.5t-327 -95.5q-224 0 -329 105t-105 319z" />
    <glyph glyph-name="u" unicode="u" 
d="M82 1024h369v-512q0 -106 37 -155.5t130 -49.5q87 0 134 52.5t47 152.5v512h368v-1024h-368v131q-105 -162 -303 -162q-103 0 -176 23t-128.5 78.5t-82.5 155t-27 245.5v553z" />
    <glyph glyph-name="v" unicode="v" horiz-adv-x="1183" 
d="M389 0l-430 1024h406l227 -541l227 541h406l-430 -1024h-406z" />
    <glyph glyph-name="w" unicode="w" horiz-adv-x="1798" 
d="M328 0l-369 1024h406l165 -461l166 461h406l166 -461l166 461h405l-369 -1024h-405l-166 461l-166 -461h-405z" />
    <glyph glyph-name="x" unicode="x" horiz-adv-x="1167" 
d="M799 512l368 -512h-430l-153 213l-154 -213h-430l369 512l-369 512h430l154 -213l153 213h430z" />
    <glyph glyph-name="y" unicode="y" horiz-adv-x="1271" 
d="M934 47q-72 -205 -83 -233q-60 -147 -143 -209q-100 -76 -284 -76q-187 0 -283 109t-96 286h307q0 -98 70 -98q34 0 59 52q13 27 51 138v2l-518 1006h418l268 -520l181 520h391z" />
    <glyph glyph-name="z" unicode="z" horiz-adv-x="1044" 
d="M61 696v328h922v-328l-387 -368h387v-328h-922v328l388 368h-388z" />
    <glyph glyph-name="braceleft" unicode="{" horiz-adv-x="827" 
d="M516 983q0 -321 -178 -444q178 -123 178 -445q0 -97 13 -166.5t36 -112.5t60.5 -67.5t80 -33.5t101.5 -9v-164q-248 0 -372 129t-124 398q0 97 -13 166.5t-36 112.5t-60.5 67.5t-80 33.5t-101.5 9v164q59 0 101.5 9t80 33.5t60.5 67.5t36 112.5t13 166.5
q0 269 123.5 397.5t372.5 128.5v-164q-59 0 -101.5 -9t-80 -33.5t-60.5 -67.5t-36 -112.5t-13 -166.5z" />
    <glyph glyph-name="bar" unicode="|" horiz-adv-x="327" 
d="M61 -410v1946h205v-1946h-205z" />
    <glyph glyph-name="braceright" unicode="}" horiz-adv-x="827" 
d="M311 983q0 97 -13 166.5t-36 112.5t-60.5 67.5t-80 33.5t-101.5 9v164q249 0 372.5 -128.5t123.5 -397.5q0 -97 13 -166.5t36 -112.5t60.5 -67.5t80 -33.5t101.5 -9v-164q-59 0 -101.5 -9t-80 -33.5t-60.5 -67.5t-36 -112.5t-13 -166.5q0 -269 -124 -398t-372 -129v164
q59 0 101.5 9t80 33.5t60.5 67.5t36 112.5t13 166.5q0 322 178 445q-178 123 -178 444z" />
    <glyph glyph-name="exclamdown" unicode="&#xa1;" horiz-adv-x="532" 
d="M61 901q0 104 49.5 154.5t155.5 50.5t155.5 -50.5t49.5 -154.5t-49.5 -154.5t-155.5 -50.5t-155.5 50.5t-49.5 154.5zM451 -358h-369l61 942h246z" />
    <glyph glyph-name="cent" unicode="&#xa2;" horiz-adv-x="1191" 
d="M524 -461v436q-228 28 -345.5 164t-117.5 373q0 248 111.5 381t351.5 156v436h205v-436q193 -24 300.5 -144t107.5 -291h-328q0 62 -80 88v-389q94 22 94 97h328q0 -114 -45.5 -205.5t-142.5 -154t-234 -77.5v-434h-205zM524 336v356q-84 -46 -84 -178q0 -129 84 -178z
" />
    <glyph glyph-name="sterling" unicode="&#xa3;" horiz-adv-x="1515" 
d="M246 0v588h-226v205h226v18q0 314 153 483.5t459 169.5q294 0 444 -125t150 -403h-369q0 49 -19.5 83.5t-53.5 52.5t-72.5 26t-85.5 8q-112 0 -164.5 -76t-52.5 -211v-26h225v-205h-225v-240h840v-348h-1229z" />
    <glyph glyph-name="currency" unicode="&#xa4;" horiz-adv-x="1069" 
d="M166 698q0 92 51 174l-156 154l146 145l153 -155q82 51 175 51q92 0 174 -51l153 155l146 -145l-156 -154q51 -82 51 -174t-51 -174l156 -153l-146 -146l-153 156q-82 -51 -174 -51q-93 0 -175 51l-153 -156l-146 146l156 153q-51 82 -51 174zM545 850q-60 0 -111 -51
t-51 -111q0 -56 42.5 -98.5t98.5 -42.5q60 0 111 51t51 111q0 55 -43 98t-98 43z" />
    <glyph glyph-name="yen" unicode="&#xa5;" horiz-adv-x="1413" 
d="M512 0v233h-195v205h195v82h-195v205h146l-463 709h461l246 -377l245 377h461l-463 -709h125v-205h-174v-82h174v-205h-174v-233h-389z" />
    <glyph glyph-name="copyright" unicode="&#xa9;" horiz-adv-x="1617" 
d="M61 717q0 222 93 392t263 262.5t392 92.5q167 0 306 -54t236 -151t151 -236t54 -306q0 -222 -92.5 -392t-262.5 -263t-392 -93t-392 93t-263 263t-93 392zM276 717q0 -244 147 -393.5t386 -149.5t385.5 149.5t146.5 393.5t-146.5 393.5t-385.5 149.5t-386 -149.5
t-147 -393.5zM842 342q-197 0 -293 92t-96 281t89.5 282t272.5 93q174 0 264 -63t90 -202h-184q0 84 -170 84q-88 0 -125 -45t-37 -147t45.5 -149.5t141.5 -47.5q32 0 54.5 2.5t46 10t36 23.5t12.5 40h185q0 -136 -86.5 -195t-245.5 -59z" />
    <glyph glyph-name="ordfeminine" unicode="&#xaa;" horiz-adv-x="686" 
d="M440 1264q0 57 -94 57q-92 0 -92 -43h-164q0 103 66.5 147.5t193.5 44.5q74 0 121.5 -9.5t84 -35t53 -73t16.5 -121.5v-289h-185v66q-29 -80 -164 -80q-215 0 -215 166q0 78 52 112t145 41zM440 1122v17l-137 -11q-31 -3 -41 -9t-10 -21q0 -23 57 -23q59 0 95 12t36 35z
" />
    <glyph glyph-name="registered" unicode="&#xae;" horiz-adv-x="1617" 
d="M61 717q0 222 93 392t263 262.5t392 92.5q167 0 306 -54t236 -151t151 -236t54 -306q0 -222 -92.5 -392t-262.5 -263t-392 -93t-392 93t-263 263t-93 392zM276 717q0 -244 147 -393.5t386 -149.5t385.5 149.5t146.5 393.5t-146.5 393.5t-385.5 149.5t-386 -149.5
t-147 -393.5zM526 369v716h328q173 0 243 -59.5t70 -185.5q0 -98 -40.5 -155.5t-135.5 -78.5l176 -237h-235l-168 225h-43v-225h-195zM721 768h127q74 0 96.5 16.5t22.5 55.5t-22.5 55t-96.5 16h-127v-143z" />
    <glyph glyph-name="plusminus" unicode="&#xb1;" horiz-adv-x="737" 
d="M61 539v204h205v205h205v-205h205v-204h-205v-205h-205v205h-205zM82 0v205h573v-205h-573z" />
    <glyph glyph-name="ordmasculine" unicode="&#xba;" horiz-adv-x="712" 
d="M61 1198q0 272 295 272t295 -272q0 -270 -295 -270t-295 270zM252 1198q0 -102 104 -102q105 0 105 102t-105 102q-57 0 -80.5 -24.5t-23.5 -77.5z" />
    <glyph glyph-name="questiondown" unicode="&#xbf;" horiz-adv-x="1277" 
d="M979 901q0 -104 -49.5 -154.5t-155.5 -50.5t-155.5 50.5t-49.5 154.5t49.5 154.5t155.5 50.5t155.5 -50.5t49.5 -154.5zM940 584q0 -76 -26.5 -136t-68.5 -97t-93.5 -65.5t-102.5 -49.5t-93 -41.5t-68.5 -48.5t-26.5 -64q0 -113 170 -113q49 0 83.5 4.5t67.5 17
t49.5 39.5t16.5 68h369q0 -259 -146 -373t-424 -114q-303 0 -444.5 106t-141.5 334q0 92 32.5 164.5t85 116.5t115.5 76.5t126 53t115.5 37.5t85 38t32.5 47h287z" />
    <glyph glyph-name="Agrave" unicode="&#xc0;" horiz-adv-x="1427" 
d="M932 1651l-98 -74l-336 379l164 123zM-41 0l547 1434h416l546 -1434h-415l-72 186h-535l-71 -186h-416zM580 535h268l-133 354z" />
    <glyph glyph-name="Aacute" unicode="&#xc1;" horiz-adv-x="1427" 
d="M498 1651l270 428l164 -123l-336 -379zM-41 0l547 1434h416l546 -1434h-415l-72 186h-535l-71 -186h-416zM580 535h268l-133 354z" />
    <glyph glyph-name="Acircumflex" unicode="&#xc2;" horiz-adv-x="1427" 
d="M797 2007l329 -420h-252l-161 279l-158 -279h-252l330 420h164zM-41 0l547 1434h416l546 -1434h-415l-72 186h-535l-71 -186h-416zM580 535h268l-133 354z" />
    <glyph glyph-name="Atilde" unicode="&#xc3;" horiz-adv-x="1427" 
d="M305 1587q0 64 11 116.5t35 97.5t69 70t108 25q50 0 101 -19.5t86 -42.5t75 -42.5t70 -19.5q62 0 62 104h204q0 -67 -9.5 -118.5t-33 -96.5t-69 -69.5t-111.5 -24.5q-61 0 -116 19.5t-87 43t-69 43t-66 19.5q-14 0 -24 -4.5t-15.5 -14.5t-9 -17.5t-5 -23.5t-1.5 -22v-23
h-205zM-41 0l547 1434h416l546 -1434h-415l-72 186h-535l-71 -186h-416zM580 535h268l-133 354z" />
    <glyph glyph-name="Adieresis" unicode="&#xc4;" horiz-adv-x="1427" 
d="M340 1731q0 59 42 101t101 42t101.5 -42.5t42.5 -100.5q0 -59 -42.5 -101.5t-101.5 -42.5q-58 0 -100.5 42.5t-42.5 101.5zM813 1731q0 59 42.5 101t100.5 42q59 0 101.5 -42.5t42.5 -100.5q0 -59 -43 -101.5t-101 -42.5t-100.5 42.5t-42.5 101.5zM-41 0l547 1434h416
l546 -1434h-415l-72 186h-535l-71 -186h-416zM580 535h268l-133 354z" />
    <glyph glyph-name="Aring" unicode="&#xc5;" horiz-adv-x="1427" 
d="M428 1802q0 97 79 156t208 59q130 0 209.5 -59t79.5 -156t-79.5 -156t-209.5 -59q-129 0 -208 59t-79 156zM641 1802q0 -23 20 -37t52 -14q34 0 53.5 14t19.5 37t-19.5 37t-53.5 14q-32 0 -52 -14t-20 -37zM-41 0l547 1434h416l546 -1434h-415l-72 186h-535l-71 -186
h-416zM580 535h268l-133 354z" />
    <glyph glyph-name="AE" unicode="&#xc6;" horiz-adv-x="2070" 
d="M-41 0l547 1434h1483v-349h-799v-194h717v-348h-717v-195h819v-348h-1208v186h-355l-71 -186h-416zM580 535h221v550h-13z" />
    <glyph glyph-name="Ccedilla" unicode="&#xc7;" horiz-adv-x="1542" 
d="M586 -309h143q0 -19 21 -28t49 -9q71 0 71 57q0 62 -112 62h-115l82 200q-337 26 -500.5 210t-163.5 534q0 378 179 562.5t546 184.5q350 0 528.5 -125t178.5 -403h-369q0 48 -29 83t-79.5 53t-106.5 26t-123 8q-176 0 -250.5 -91t-74.5 -296q0 -204 91.5 -297.5
t283.5 -93.5q63 0 108.5 5t92 19.5t71.5 46.5t25 80h368q0 -138 -45.5 -237.5t-133 -158t-203 -85.5t-267.5 -29l-41 -90q213 0 213 -172q0 -100 -57.5 -148t-159.5 -48q-16 0 -38 3t-55.5 14.5t-60.5 29.5t-47 53t-20 80z" />
    <glyph glyph-name="Egrave" unicode="&#xc8;" horiz-adv-x="1372" 
d="M924 1651l-99 -74l-336 379l164 123zM102 0v1434h1188v-349h-798v-194h716v-348h-716v-195h819v-348h-1209z" />
    <glyph glyph-name="Eacute" unicode="&#xc9;" horiz-adv-x="1372" 
d="M489 1651l271 428l164 -123l-336 -379zM102 0v1434h1188v-349h-798v-194h716v-348h-716v-195h819v-348h-1209z" />
    <glyph glyph-name="Ecircumflex" unicode="&#xca;" horiz-adv-x="1372" 
d="M788 2007l330 -420h-252l-161 279l-158 -279h-252l330 420h163zM102 0v1434h1188v-349h-798v-194h716v-348h-716v-195h819v-348h-1209z" />
    <glyph glyph-name="Edieresis" unicode="&#xcb;" horiz-adv-x="1372" 
d="M332 1731q0 59 42 101t101 42t101 -42t42 -101t-42.5 -101.5t-100.5 -42.5t-100.5 42.5t-42.5 101.5zM805 1731q0 59 42.5 101t100.5 42q59 0 101.5 -42.5t42.5 -100.5q0 -59 -43 -101.5t-101 -42.5t-100.5 42.5t-42.5 101.5zM102 0v1434h1188v-349h-798v-194h716v-348
h-716v-195h819v-348h-1209z" />
    <glyph glyph-name="Igrave" unicode="&#xcc;" horiz-adv-x="593" 
d="M514 1651l-98 -74l-336 379l164 123zM102 0v1434h390v-1434h-390z" />
    <glyph glyph-name="Iacute" unicode="&#xcd;" horiz-adv-x="593" 
d="M80 1651l270 428l164 -123l-336 -379zM102 0v1434h390v-1434h-390z" />
    <glyph glyph-name="Icircumflex" unicode="&#xce;" horiz-adv-x="593" 
d="M379 2007l330 -420h-252l-162 279l-158 -279h-252l330 420h164zM102 0v1434h390v-1434h-390z" />
    <glyph glyph-name="Idieresis" unicode="&#xcf;" horiz-adv-x="593" 
d="M-78 1731q0 58 42.5 100.5t101.5 42.5q58 0 100.5 -42t42.5 -101t-42.5 -101.5t-100.5 -42.5t-101 42.5t-43 101.5zM395 1731q0 58 42.5 100.5t101.5 42.5t101 -42t42 -101t-42.5 -101.5t-100.5 -42.5q-59 0 -101.5 42.5t-42.5 101.5zM102 0v1434h390v-1434h-390z" />
    <glyph glyph-name="Eth" unicode="&#xd0;" horiz-adv-x="1587" 
d="M184 0v596h-164v205h164v633h604q738 0 738 -717t-738 -717h-604zM573 348h215q338 0 338 371q0 366 -338 366h-215v-284h154v-205h-154v-248z" />
    <glyph glyph-name="Ntilde" unicode="&#xd1;" horiz-adv-x="1536" 
d="M358 1587q0 64 11 116.5t35.5 97.5t69.5 70t108 25q50 0 101 -19.5t85.5 -42.5t74.5 -42.5t70 -19.5q62 0 62 104h205q0 -67 -10 -118.5t-33.5 -96.5t-69 -69.5t-111.5 -24.5q-61 0 -116 19.5t-87.5 43t-69 43t-65.5 19.5q-14 0 -24 -4.5t-15.5 -14.5t-9 -17.5t-5 -23.5
t-1.5 -22v-23h-205zM102 0v1434h390l552 -783v783h390v-1434h-390l-552 782v-782h-390z" />
    <glyph glyph-name="Ograve" unicode="&#xd2;" horiz-adv-x="1597" 
d="M1016 1681l-98 -73l-336 379l163 122zM61 717q0 747 738 747q737 0 737 -747q0 -748 -737 -748q-738 0 -738 748zM461 717q0 -389 338 -389t338 389t-338 389q-183 0 -260.5 -95t-77.5 -294z" />
    <glyph glyph-name="Oacute" unicode="&#xd3;" horiz-adv-x="1597" 
d="M582 1681l270 428l164 -122l-336 -379zM61 717q0 747 738 747q737 0 737 -747q0 -748 -737 -748q-738 0 -738 748zM461 717q0 -389 338 -389t338 389t-338 389q-183 0 -260.5 -95t-77.5 -294z" />
    <glyph glyph-name="Ocircumflex" unicode="&#xd4;" horiz-adv-x="1597" 
d="M881 2038l329 -420h-252l-161 278l-158 -278h-252l330 420h164zM61 717q0 747 738 747q737 0 737 -747q0 -748 -737 -748q-738 0 -738 748zM461 717q0 -389 338 -389t338 389t-338 389q-183 0 -260.5 -95t-77.5 -294z" />
    <glyph glyph-name="Otilde" unicode="&#xd5;" horiz-adv-x="1597" 
d="M389 1618q0 64 11 116.5t35 97.5t69 70t108 25t126.5 -31.5t116 -62.5t89.5 -31q62 0 62 105h204q0 -53 -5.5 -95.5t-20.5 -84t-39.5 -69t-64.5 -44.5t-93 -17q-61 0 -116 19.5t-87 43t-69 43t-66 19.5q-16 0 -27.5 -7.5t-16.5 -16t-8 -27t-3 -26v-27.5h-205zM61 717
q0 747 738 747q737 0 737 -747q0 -748 -737 -748q-738 0 -738 748zM461 717q0 -389 338 -389t338 389t-338 389q-183 0 -260.5 -95t-77.5 -294z" />
    <glyph glyph-name="Odieresis" unicode="&#xd6;" horiz-adv-x="1597" 
d="M424 1761q0 59 42.5 101.5t100.5 42.5q59 0 101.5 -42.5t42.5 -101.5q0 -58 -42.5 -100.5t-101.5 -42.5t-101 42t-42 101zM897 1761q0 59 42.5 101.5t100.5 42.5t101 -42.5t43 -101.5q0 -58 -42.5 -100.5t-101.5 -42.5q-58 0 -100.5 42t-42.5 101zM61 717q0 747 738 747
q737 0 737 -747q0 -748 -737 -748q-738 0 -738 748zM461 717q0 -389 338 -389t338 389t-338 389q-183 0 -260.5 -95t-77.5 -294z" />
    <glyph glyph-name="multiply" unicode="&#xd7;" horiz-adv-x="700" 
d="M61 686l144 143l145 -145l146 145l143 -143l-145 -145l145 -146l-143 -143l-146 145l-145 -145l-144 143l146 146z" />
    <glyph glyph-name="Oslash" unicode="&#xd8;" horiz-adv-x="1597" 
d="M61 717q0 747 738 747q242 0 405 -82l99 123l159 -129l-94 -116q168 -186 168 -543q0 -748 -737 -748q-243 0 -406 82l-98 -123l-160 129l94 117q-168 186 -168 543zM461 717q0 -126 35 -213l462 573q-72 29 -159 29q-183 0 -260.5 -95t-77.5 -294zM1102 930l-463 -574
q70 -28 160 -28q338 0 338 389q0 126 -35 213z" />
    <glyph glyph-name="Ugrave" unicode="&#xd9;" horiz-adv-x="1482" 
d="M958 1651l-98 -74l-336 379l164 123zM741 328q271 0 271 239v867h389v-799q0 -153 -26.5 -266t-77.5 -189.5t-132.5 -123.5t-184 -67t-239.5 -20t-239.5 20t-184 67t-132 123.5t-77 189.5t-26.5 266v799h389v-867q0 -239 270 -239z" />
    <glyph glyph-name="Uacute" unicode="&#xda;" horiz-adv-x="1482" 
d="M524 1651l271 428l163 -123l-335 -379zM741 328q271 0 271 239v867h389v-799q0 -153 -26.5 -266t-77.5 -189.5t-132.5 -123.5t-184 -67t-239.5 -20t-239.5 20t-184 67t-132 123.5t-77 189.5t-26.5 266v799h389v-867q0 -239 270 -239z" />
    <glyph glyph-name="Ucircumflex" unicode="&#xdb;" horiz-adv-x="1482" 
d="M823 2007l330 -420h-252l-162 279l-157 -279h-252l329 420h164zM741 328q271 0 271 239v867h389v-799q0 -153 -26.5 -266t-77.5 -189.5t-132.5 -123.5t-184 -67t-239.5 -20t-239.5 20t-184 67t-132 123.5t-77 189.5t-26.5 266v799h389v-867q0 -239 270 -239z" />
    <glyph glyph-name="Udieresis" unicode="&#xdc;" horiz-adv-x="1482" 
d="M367 1731q0 59 42.5 101t100.5 42t100.5 -42t42.5 -101t-42.5 -101.5t-100.5 -42.5t-100.5 42.5t-42.5 101.5zM840 1731q0 59 42 101t101 42t101 -42t42 -101t-42.5 -101.5t-100.5 -42.5t-100.5 42.5t-42.5 101.5zM741 328q271 0 271 239v867h389v-799q0 -153 -26.5 -266
t-77.5 -189.5t-132.5 -123.5t-184 -67t-239.5 -20t-239.5 20t-184 67t-132 123.5t-77 189.5t-26.5 266v799h389v-867q0 -239 270 -239z" />
    <glyph glyph-name="Yacute" unicode="&#xdd;" horiz-adv-x="1413" 
d="M489 1651l271 428l164 -123l-336 -379zM512 0v649l-512 785h461l246 -377l245 377h461l-512 -785v-649h-389z" />
    <glyph glyph-name="Thorn" unicode="&#xde;" horiz-adv-x="1443" 
d="M102 0v1434h390v-205h266q176 0 297.5 -32t193 -98t102.5 -158.5t31 -223.5t-31 -223.5t-102.5 -158.5t-193 -98t-297.5 -32h-266v-205h-390zM492 553h251q79 0 128 9.5t73 32.5t31.5 49.5t7.5 72.5t-7.5 72.5t-31.5 49.5t-73 32.5t-128 9.5h-251v-328z" />
    <glyph glyph-name="germandbls" unicode="&#xdf;" horiz-adv-x="1423" 
d="M1194 1151q0 -62 -20 -111.5t-52.5 -80.5t-71 -54t-77.5 -36.5t-71.5 -24t-52.5 -21t-20 -22.5q0 -23 39.5 -34.5t141.5 -27.5q80 -13 138.5 -36t109.5 -65t77.5 -112t26.5 -166q0 -203 -104 -297t-314 -94q-243 0 -355 90t-112 289h328q0 -43 37.5 -62.5t97.5 -19.5
q63 0 94 23.5t31 62.5q0 50 -46 68q-27 10 -132 22q-355 40 -355 291q0 63 24.5 113t61 80t79.5 56t79.5 43t61 39t24.5 46q0 37 -47.5 62.5t-136.5 25.5q-71 0 -117.5 -13.5t-69.5 -40.5t-31.5 -57.5t-8.5 -74.5v-1012h-369v979q0 137 28.5 237t93 173.5t174.5 110
t267 36.5q290 0 419.5 -91.5t129.5 -293.5z" />
    <glyph glyph-name="agrave" unicode="&#xe0;" horiz-adv-x="1247" 
d="M821 1272l-98 -74l-336 379l164 123zM797 0v129q-31 -78 -107 -119t-219 -41q-430 0 -430 334q0 80 29.5 138t85 92t122 52t154.5 25l365 31q0 117 -189 117q-182 0 -182 -88h-328q0 206 132.5 295.5t385.5 89.5q117 0 199.5 -11.5t152.5 -42.5t111 -85t63.5 -138
t22.5 -203v-575h-368zM797 358v35l-275 -22q-60 -4 -81 -16.5t-21 -43.5q0 -45 117 -45q116 0 188 24.5t72 67.5z" />
    <glyph glyph-name="aacute" unicode="&#xe1;" horiz-adv-x="1247" 
d="M387 1272l270 428l164 -123l-336 -379zM797 0v129q-31 -78 -107 -119t-219 -41q-430 0 -430 334q0 80 29.5 138t85 92t122 52t154.5 25l365 31q0 117 -189 117q-182 0 -182 -88h-328q0 206 132.5 295.5t385.5 89.5q117 0 199.5 -11.5t152.5 -42.5t111 -85t63.5 -138
t22.5 -203v-575h-368zM797 358v35l-275 -22q-60 -4 -81 -16.5t-21 -43.5q0 -45 117 -45q116 0 188 24.5t72 67.5z" />
    <glyph glyph-name="acircumflex" unicode="&#xe2;" horiz-adv-x="1247" 
d="M686 1628l330 -420h-252l-162 279l-158 -279h-251l329 420h164zM797 0v129q-31 -78 -107 -119t-219 -41q-430 0 -430 334q0 80 29.5 138t85 92t122 52t154.5 25l365 31q0 117 -189 117q-182 0 -182 -88h-328q0 206 132.5 295.5t385.5 89.5q117 0 199.5 -11.5t152.5 -42.5
t111 -85t63.5 -138t22.5 -203v-575h-368zM797 358v35l-275 -22q-60 -4 -81 -16.5t-21 -43.5q0 -45 117 -45q116 0 188 24.5t72 67.5z" />
    <glyph glyph-name="atilde" unicode="&#xe3;" horiz-adv-x="1247" 
d="M195 1208q0 64 11 116.5t35 97.5t69 70.5t108 25.5q50 0 101 -19.5t86 -43t75 -43t70 -19.5q61 0 61 104h205q0 -67 -9.5 -118.5t-33 -96.5t-69 -69.5t-111.5 -24.5q-61 0 -116 19.5t-87 43t-69 43t-66 19.5q-20 0 -32.5 -9.5t-17 -29t-5.5 -31.5t-1 -35h-204zM797 0v129
q-31 -78 -107 -119t-219 -41q-430 0 -430 334q0 80 29.5 138t85 92t122 52t154.5 25l365 31q0 117 -189 117q-182 0 -182 -88h-328q0 206 132.5 295.5t385.5 89.5q117 0 199.5 -11.5t152.5 -42.5t111 -85t63.5 -138t22.5 -203v-575h-368zM797 358v35l-275 -22
q-60 -4 -81 -16.5t-21 -43.5q0 -45 117 -45q116 0 188 24.5t72 67.5z" />
    <glyph glyph-name="adieresis" unicode="&#xe4;" horiz-adv-x="1247" 
d="M229 1352q0 58 42.5 100.5t101.5 42.5t101 -42.5t42 -100.5q0 -59 -42.5 -101.5t-100.5 -42.5q-59 0 -101.5 43t-42.5 101zM702 1352q0 58 42.5 100.5t101.5 42.5q58 0 100.5 -42.5t42.5 -100.5q0 -59 -42.5 -101.5t-100.5 -42.5t-101 43t-43 101zM797 0v129
q-31 -78 -107 -119t-219 -41q-430 0 -430 334q0 80 29.5 138t85 92t122 52t154.5 25l365 31q0 117 -189 117q-182 0 -182 -88h-328q0 206 132.5 295.5t385.5 89.5q117 0 199.5 -11.5t152.5 -42.5t111 -85t63.5 -138t22.5 -203v-575h-368zM797 358v35l-275 -22
q-60 -4 -81 -16.5t-21 -43.5q0 -45 117 -45q116 0 188 24.5t72 67.5z" />
    <glyph glyph-name="aring" unicode="&#xe5;" horiz-adv-x="1247" 
d="M317 1423q0 97 79 156t208 59q130 0 209.5 -59t79.5 -156t-79.5 -156t-209.5 -59q-129 0 -208 59t-79 156zM530 1423q0 -23 20 -37t52 -14q34 0 54 14t20 37t-20 37.5t-54 14.5q-32 0 -52 -14.5t-20 -37.5zM797 0v129q-31 -78 -107 -119t-219 -41q-430 0 -430 334
q0 80 29.5 138t85 92t122 52t154.5 25l365 31q0 117 -189 117q-182 0 -182 -88h-328q0 206 132.5 295.5t385.5 89.5q117 0 199.5 -11.5t152.5 -42.5t111 -85t63.5 -138t22.5 -203v-575h-368zM797 358v35l-275 -22q-60 -4 -81 -16.5t-21 -43.5q0 -45 117 -45q116 0 188 24.5
t72 67.5z" />
    <glyph glyph-name="ae" unicode="&#xe6;" horiz-adv-x="1943" 
d="M1882 451v-41h-696q18 -76 65 -110t123 -34q72 0 120 24t48 58h328q0 -173 -129.5 -276t-366.5 -103q-302 0 -448 152q-77 -71 -194.5 -111.5t-260.5 -40.5q-430 0 -430 334q0 80 29.5 138t85 92t122 52t154.5 25l365 31q0 117 -189 117q-182 0 -182 -88h-328
q0 206 132.5 295.5t385.5 89.5q280 0 398 -80q130 80 323 80q288 0 416.5 -146t128.5 -458zM1202 655h320q-19 49 -62.5 76t-103.5 27q-50 0 -90.5 -26.5t-63.5 -76.5zM797 358v35l-275 -22q-60 -4 -81 -16.5t-21 -43.5q0 -45 117 -45q116 0 188 24.5t72 67.5z" />
    <glyph glyph-name="ccedilla" unicode="&#xe7;" horiz-adv-x="1191" 
d="M637 1055q235 0 367.5 -124.5t132.5 -316.5h-328q0 48 -48.5 75.5t-123.5 27.5q-197 0 -197 -203q0 -111 57.5 -159t164.5 -48q77 0 119 27t42 76h328q0 -187 -123.5 -309.5t-355.5 -131.5l-41 -90q213 0 213 -172q0 -100 -57.5 -148t-159.5 -48q-16 0 -38 3t-55.5 14.5
t-60.5 29.5t-47 53t-20 80h143q0 -19 20.5 -28t48.5 -9q72 0 72 57q0 62 -112 62h-115l82 200q-238 23 -361 159t-123 380q0 274 139 408.5t437 134.5z" />
    <glyph glyph-name="egrave" unicode="&#xe8;" horiz-adv-x="1208" 
d="M821 1272l-98 -74l-336 379l164 123zM1147 451v-41h-696q18 -76 65 -110t123 -34q73 0 120.5 24t47.5 58h328q0 -173 -129.5 -276t-366.5 -103q-289 0 -433.5 137.5t-144.5 405.5q0 261 140 402t401 141q288 0 416.5 -146t128.5 -458zM467 655h319q-19 49 -62 76t-103 27
q-50 0 -90.5 -26.5t-63.5 -76.5z" />
    <glyph glyph-name="eacute" unicode="&#xe9;" horiz-adv-x="1208" 
d="M387 1272l270 428l164 -123l-336 -379zM1147 451v-41h-696q18 -76 65 -110t123 -34q73 0 120.5 24t47.5 58h328q0 -173 -129.5 -276t-366.5 -103q-289 0 -433.5 137.5t-144.5 405.5q0 261 140 402t401 141q288 0 416.5 -146t128.5 -458zM467 655h319q-19 49 -62 76
t-103 27q-50 0 -90.5 -26.5t-63.5 -76.5z" />
    <glyph glyph-name="ecircumflex" unicode="&#xea;" horiz-adv-x="1208" 
d="M686 1628l330 -420h-252l-162 279l-158 -279h-251l329 420h164zM1147 451v-41h-696q18 -76 65 -110t123 -34q73 0 120.5 24t47.5 58h328q0 -173 -129.5 -276t-366.5 -103q-289 0 -433.5 137.5t-144.5 405.5q0 261 140 402t401 141q288 0 416.5 -146t128.5 -458zM467 655
h319q-19 49 -62 76t-103 27q-50 0 -90.5 -26.5t-63.5 -76.5z" />
    <glyph glyph-name="edieresis" unicode="&#xeb;" horiz-adv-x="1208" 
d="M229 1352q0 58 42.5 100.5t101.5 42.5t101 -42.5t42 -100.5q0 -59 -42.5 -101.5t-100.5 -42.5q-59 0 -101.5 43t-42.5 101zM702 1352q0 58 42.5 100.5t101.5 42.5q58 0 100.5 -42.5t42.5 -100.5q0 -59 -42.5 -101.5t-100.5 -42.5t-101 43t-43 101zM1147 451v-41h-696
q18 -76 65 -110t123 -34q73 0 120.5 24t47.5 58h328q0 -173 -129.5 -276t-366.5 -103q-289 0 -433.5 137.5t-144.5 405.5q0 261 140 402t401 141q288 0 416.5 -146t128.5 -458zM467 655h319q-19 49 -62 76t-103 27q-50 0 -90.5 -26.5t-63.5 -76.5z" />
    <glyph glyph-name="igrave" unicode="&#xec;" horiz-adv-x="573" 
d="M504 1241l-98 -74l-336 379l163 123zM102 0v1024h369v-1024h-369z" />
    <glyph glyph-name="iacute" unicode="&#xed;" horiz-adv-x="573" 
d="M70 1241l270 428l164 -123l-336 -379zM102 0v1024h369v-1024h-369z" />
    <glyph glyph-name="icircumflex" unicode="&#xee;" horiz-adv-x="573" 
d="M369 1597l329 -419h-252l-161 278l-158 -278h-252l330 419h164zM102 0v1024h369v-1024h-369z" />
    <glyph glyph-name="idieresis" unicode="&#xef;" horiz-adv-x="573" 
d="M-88 1321q0 59 42 101t101 42t101.5 -42.5t42.5 -100.5t-42.5 -100.5t-101.5 -42.5t-101 42t-42 101zM385 1321q0 59 42.5 101t100.5 42q59 0 101.5 -42.5t42.5 -100.5t-42.5 -100.5t-101.5 -42.5q-58 0 -100.5 42t-42.5 101zM102 0v1024h369v-1024h-369z" />
    <glyph glyph-name="eth" unicode="&#xf0;" horiz-adv-x="1341" 
d="M459 1300l164 236q120 -30 227 -102l160 125l125 -162l-125 -99q124 -130 197 -309.5t73 -398.5q0 -278 -162 -449.5t-438 -171.5q-313 0 -466 127.5t-153 358.5q0 105 37 186t96.5 131t142 82t165.5 44.5t176 12.5q76 0 137 -12q-38 92 -94 174l-131 -102l-127 162
l117 90q-62 53 -121 77zM879 512q-93 41 -201 41q-31 0 -48 -0.5t-47 -3.5t-48 -10t-37 -18.5t-28 -31.5t-9 -47q0 -55 53.5 -84.5t144.5 -29.5q95 0 153 50t67 134z" />
    <glyph glyph-name="ntilde" unicode="&#xf1;" 
d="M236 1208q0 64 11 116.5t35 97.5t69 70.5t108 25.5q50 0 101 -19.5t86 -43t75 -43t70 -19.5q61 0 61 104h205q0 -67 -9.5 -118.5t-33 -96.5t-69 -69.5t-111.5 -24.5q-61 0 -116 19.5t-87.5 43t-69 43t-65.5 19.5q-20 0 -32.5 -9.5t-17 -29t-5.5 -31.5t-1 -35h-204z
M1188 0h-369v512q0 106 -37.5 155.5t-130.5 49.5q-87 0 -133.5 -52t-46.5 -153v-512h-369v1024h369v-131q105 162 303 162q103 0 176 -23t128.5 -78.5t82.5 -155t27 -245.5v-553z" />
    <glyph glyph-name="ograve" unicode="&#xf2;" horiz-adv-x="1300" 
d="M868 1272l-98 -74l-336 379l164 123zM61 512q0 543 588 543q590 0 590 -543t-590 -543q-588 0 -588 543zM440 512q0 -205 209 -205q211 0 211 205t-211 205q-114 0 -161.5 -50t-47.5 -155z" />
    <glyph glyph-name="oacute" unicode="&#xf3;" horiz-adv-x="1300" 
d="M434 1272l271 428l163 -123l-336 -379zM61 512q0 543 588 543q590 0 590 -543t-590 -543q-588 0 -588 543zM440 512q0 -205 209 -205q211 0 211 205t-211 205q-114 0 -161.5 -50t-47.5 -155z" />
    <glyph glyph-name="ocircumflex" unicode="&#xf4;" horiz-adv-x="1300" 
d="M733 1628l330 -420h-252l-162 279l-157 -279h-252l329 420h164zM61 512q0 543 588 543q590 0 590 -543t-590 -543q-588 0 -588 543zM440 512q0 -205 209 -205q211 0 211 205t-211 205q-114 0 -161.5 -50t-47.5 -155z" />
    <glyph glyph-name="otilde" unicode="&#xf5;" horiz-adv-x="1300" 
d="M242 1208q0 64 11 116.5t35 97.5t69 70.5t108 25.5q50 0 101 -19.5t86 -43t75 -43t70 -19.5q61 0 61 104h205q0 -67 -9.5 -118.5t-33 -96.5t-69 -69.5t-111.5 -24.5q-61 0 -116 19.5t-87.5 43t-69 43t-65.5 19.5q-20 0 -32.5 -9.5t-17 -29t-5.5 -31.5t-1 -35h-204z
M61 512q0 543 588 543q590 0 590 -543t-590 -543q-588 0 -588 543zM440 512q0 -205 209 -205q211 0 211 205t-211 205q-114 0 -161.5 -50t-47.5 -155z" />
    <glyph glyph-name="odieresis" unicode="&#xf6;" horiz-adv-x="1300" 
d="M276 1352q0 58 42.5 100.5t101.5 42.5q58 0 100.5 -42.5t42.5 -100.5q0 -59 -42.5 -101.5t-100.5 -42.5t-101 43t-43 101zM750 1352q0 58 42 100.5t101 42.5t101 -42.5t42 -100.5q0 -59 -42.5 -101.5t-100.5 -42.5t-100.5 42.5t-42.5 101.5zM61 512q0 543 588 543
q590 0 590 -543t-590 -543q-588 0 -588 543zM440 512q0 -205 209 -205q211 0 211 205t-211 205q-114 0 -161.5 -50t-47.5 -155z" />
    <glyph glyph-name="divide" unicode="&#xf7;" horiz-adv-x="696" 
d="M164 868q0 94 44 139.5t140 45.5t140 -45.5t44 -139.5q0 -93 -44 -138.5t-140 -45.5t-140 45.5t-44 138.5zM61 397v205h574v-205h-574zM164 131q0 93 44 138.5t140 45.5t140 -45.5t44 -138.5t-44 -138.5t-140 -45.5t-140 45.5t-44 138.5z" />
    <glyph glyph-name="oslash" unicode="&#xf8;" horiz-adv-x="1300" 
d="M61 512q0 543 588 543q63 0 146 -11l88 185h227l-117 -244q246 -122 246 -473q0 -543 -590 -543q-84 0 -141 8l-88 -182h-227l116 242q-248 123 -248 475zM440 512q0 -81 35 -131l162 336q-106 -3 -151.5 -53.5t-45.5 -151.5zM827 641l-161 -334q194 9 194 205
q0 82 -33 129z" />
    <glyph glyph-name="ugrave" unicode="&#xf9;" 
d="M842 1241l-99 -74l-335 379l163 123zM82 1024h369v-512q0 -106 37 -155.5t130 -49.5q87 0 134 52.5t47 152.5v512h368v-1024h-368v131q-105 -162 -303 -162q-103 0 -176 23t-128.5 78.5t-82.5 155t-27 245.5v553z" />
    <glyph glyph-name="uacute" unicode="&#xfa;" 
d="M408 1241l270 428l164 -123l-336 -379zM82 1024h369v-512q0 -106 37 -155.5t130 -49.5q87 0 134 52.5t47 152.5v512h368v-1024h-368v131q-105 -162 -303 -162q-103 0 -176 23t-128.5 78.5t-82.5 155t-27 245.5v553z" />
    <glyph glyph-name="ucircumflex" unicode="&#xfb;" 
d="M707 1597l329 -419h-252l-161 278l-158 -278h-252l330 419h164zM82 1024h369v-512q0 -106 37 -155.5t130 -49.5q87 0 134 52.5t47 152.5v512h368v-1024h-368v131q-105 -162 -303 -162q-103 0 -176 23t-128.5 78.5t-82.5 155t-27 245.5v553z" />
    <glyph glyph-name="udieresis" unicode="&#xfc;" 
d="M250 1321q0 59 42 101t101 42t101.5 -42.5t42.5 -100.5t-42.5 -100.5t-101.5 -42.5t-101 42t-42 101zM723 1321q0 59 42.5 101t100.5 42q59 0 101.5 -42.5t42.5 -100.5t-42.5 -100.5t-101.5 -42.5q-58 0 -100.5 42t-42.5 101zM82 1024h369v-512q0 -106 37 -155.5
t130 -49.5q87 0 134 52.5t47 152.5v512h368v-1024h-368v131q-105 -162 -303 -162q-103 0 -176 23t-128.5 78.5t-82.5 155t-27 245.5v553z" />
    <glyph glyph-name="yacute" unicode="&#xfd;" horiz-adv-x="1286" 
d="M440 1241l271 428l163 -123l-335 -379zM948 47q-72 -205 -83 -233q-60 -147 -143 -209q-100 -76 -284 -76q-187 0 -283 109t-96 286h308q0 -98 69 -98q32 0 52 37.5t56 142.5q2 7 3 10v2l-518 1006h417l269 -520l180 520h391z" />
    <glyph glyph-name="thorn" unicode="&#xfe;" horiz-adv-x="1249" 
d="M471 -410h-369v1946h369v-641q77 160 274 160q205 0 324 -140.5t119 -402.5q0 -259 -125 -401t-324 -142q-190 0 -268 166v-545zM809 512q0 105 -38.5 155t-129.5 50q-170 0 -170 -205t170 -205q168 0 168 205z" />
    <glyph glyph-name="ydieresis" unicode="&#xff;" horiz-adv-x="1286" 
d="M283 1321q0 59 42.5 101t100.5 42t100.5 -42t42.5 -101t-42.5 -101t-100.5 -42t-100.5 42t-42.5 101zM756 1321q0 59 42 101t101 42t101 -42t42 -101t-42 -101t-101 -42t-101 42t-42 101zM948 47q-72 -205 -83 -233q-60 -147 -143 -209q-100 -76 -284 -76
q-187 0 -283 109t-96 286h308q0 -98 69 -98q32 0 52 37.5t56 142.5q2 7 3 10v2l-518 1006h417l269 -520l180 520h391z" />
    <glyph glyph-name="Dcroat" unicode="&#x110;" horiz-adv-x="1587" 
d="M184 0v596h-164v205h164v633h604q738 0 738 -717t-738 -717h-604zM573 348h215q338 0 338 371q0 366 -338 366h-215v-284h154v-205h-154v-248z" />
    <glyph glyph-name="dcroat" unicode="&#x111;" horiz-adv-x="1349" 
d="M819 0v141q-81 -172 -284 -172q-210 0 -342 142t-132 401q0 262 124.5 402.5t340.5 140.5q212 0 293 -166v225h-174v205h174v217h369v-217h141v-205h-141v-1114h-369zM440 512q0 -205 189 -205q190 0 190 205t-190 205q-103 0 -146 -50t-43 -155z" />
    <glyph glyph-name="dotlessi" unicode="&#x131;" horiz-adv-x="573" 
d="M102 0v1024h369v-1024h-369z" />
    <glyph glyph-name="Lslash" unicode="&#x141;" horiz-adv-x="1490" 
d="M283 0v479l-158 -94l-105 176l263 156v717h389v-484l116 70l103 -178l-219 -131v-363h778v-348h-1167z" />
    <glyph glyph-name="lslash" unicode="&#x142;" horiz-adv-x="833" 
d="M600 0h-369v516l-112 -63l-99 180l211 119v784h369v-580l113 64l100 -180l-213 -119v-721z" />
    <glyph glyph-name="OE" unicode="&#x152;" horiz-adv-x="2220" 
d="M1339 348h820v-348h-1360q-738 0 -738 719q0 715 738 715h1339v-349h-799v-194h717v-348h-717v-195zM950 348v737h-151q-182 0 -260 -90.5t-78 -275.5q0 -181 84 -276t254 -95h151z" />
    <glyph glyph-name="oe" unicode="&#x153;" horiz-adv-x="2007" 
d="M61 512q0 543 588 543q251 0 398 -101q135 101 354 101q288 0 416.5 -146t128.5 -458v-41h-697q35 -144 189 -144q72 0 120 24t48 58h327q0 -173 -129.5 -276t-365.5 -103q-245 0 -389 101q-147 -101 -400 -101q-588 0 -588 543zM1266 655h319q-19 49 -62.5 76t-103.5 27
q-106 0 -153 -103zM440 512q0 -205 209 -205q211 0 211 205t-211 205q-114 0 -161.5 -50t-47.5 -155z" />
    <glyph glyph-name="Scaron" unicode="&#x160;" horiz-adv-x="1452" 
d="M645 1618l-330 420h252l162 -279l158 279h252l-330 -420h-164zM616 522q-104 15 -184.5 36.5t-151.5 58t-117.5 86t-73 121t-26.5 161.5q0 256 158 367.5t506 111.5q154 0 270 -26t201.5 -82t129.5 -151t44 -228h-368q0 41 -24 68t-72 39.5t-97.5 17t-120.5 4.5
q-227 0 -227 -90q0 -40 51.5 -55t231.5 -40q38 -5 59 -8q112 -16 197 -38t160.5 -59.5t124 -89t76.5 -126t28 -170.5q0 -243 -161.5 -352t-512.5 -109q-157 0 -274.5 26t-205 82.5t-132 151.5t-44.5 228h369q0 -41 25 -68t75 -39.5t101 -17t125 -4.5q123 0 179 18t56 64
q0 17 -9.5 30t-31 22.5t-44.5 16t-60.5 12.5t-68.5 10t-79 10t-82 11z" />
    <glyph glyph-name="scaron" unicode="&#x161;" horiz-adv-x="1171" 
d="M504 1208l-330 420h252l162 -278l157 278h252l-329 -420h-164zM61 707q0 187 113.5 267.5t388.5 80.5q281 0 406 -89.5t125 -289.5h-328q0 46 -65 64t-220 18q-123 0 -123 -41q0 -20 58 -32.5t194 -27.5q202 -24 275 -45q150 -43 198 -149q27 -60 27 -146
q0 -181 -123.5 -264.5t-370.5 -83.5q-289 0 -422 90t-133 289h328q0 -44 71.5 -63t219.5 -19q63 0 98 12t35 31q0 21 -43 29.5t-155 17.5q-36 2 -56 4q-56 5 -98.5 10t-97 16.5t-94.5 27t-81.5 42t-67.5 60.5t-42.5 82.5t-16.5 108.5z" />
    <glyph glyph-name="Ydieresis" unicode="&#x178;" horiz-adv-x="1413" 
d="M332 1731q0 59 42 101t101 42t101 -42t42 -101t-42.5 -101.5t-100.5 -42.5t-100.5 42.5t-42.5 101.5zM805 1731q0 59 42.5 101t100.5 42q59 0 101.5 -42.5t42.5 -100.5q0 -59 -43 -101.5t-101 -42.5t-100.5 42.5t-42.5 101.5zM512 0v649l-512 785h461l246 -377l245 377
h461l-512 -785v-649h-389z" />
    <glyph glyph-name="Zcaron" unicode="&#x17d;" horiz-adv-x="1310" 
d="M573 1587l-329 420h252l161 -278l158 278h252l-330 -420h-164zM61 1085v349h1188v-349l-663 -737h663v-348h-1188v348l664 737h-664z" />
    <glyph glyph-name="zcaron" unicode="&#x17e;" horiz-adv-x="1044" 
d="M440 1178l-329 419h251l162 -278l158 278h252l-330 -419h-164zM61 696v328h922v-328l-387 -368h387v-328h-922v328l388 368h-388z" />
    <glyph glyph-name="gravecomb" unicode="&#x300;" horiz-adv-x="0" 
d="M217 1087l-98 -73l-336 379l164 123z" />
    <glyph glyph-name="acutecomb" unicode="&#x301;" horiz-adv-x="0" 
d="M-217 1087l270 429l164 -123l-336 -379z" />
    <glyph glyph-name="uni0302" unicode="&#x302;" horiz-adv-x="0" 
d="M82 1444l330 -420h-252l-162 279l-158 -279h-252l330 420h164z" />
    <glyph glyph-name="tildecomb" unicode="&#x303;" horiz-adv-x="0" 
d="M-410 1024q0 64 11 116.5t35.5 97.5t69.5 70t108 25q50 0 101 -19.5t85.5 -43t74.5 -43t70 -19.5q62 0 62 105h205q0 -67 -10 -118.5t-33.5 -96.5t-69 -69.5t-111.5 -24.5q-61 0 -116 19.5t-87.5 42.5t-69 42.5t-65.5 19.5q-16 0 -27.5 -7.5t-16.5 -16t-8 -27t-3 -26
v-27.5h-205z" />
    <glyph glyph-name="uni0308" unicode="&#x308;" horiz-adv-x="0" 
d="M-375 1167q0 59 42.5 101.5t101.5 42.5q58 0 100.5 -42.5t42.5 -101.5t-42 -101t-101 -42t-101.5 42.5t-42.5 100.5zM98 1167q0 59 43 101.5t101 42.5t100.5 -42.5t42.5 -101.5t-42.5 -101t-100.5 -42q-59 0 -101.5 42.5t-42.5 100.5z" />
    <glyph glyph-name="uni030A" unicode="&#x30a;" horiz-adv-x="0" 
d="M-287 1239q0 97 79 156t208 59q130 0 209.5 -59t79.5 -156t-79.5 -156t-209.5 -59q-129 0 -208 59t-79 156zM-74 1239q0 -23 20 -37t52 -14q34 0 54 14t20 37t-20 37t-54 14q-32 0 -52 -14t-20 -37z" />
    <glyph glyph-name="uni030C" unicode="&#x30c;" horiz-adv-x="0" 
d="M-82 1024l-330 420h252l162 -279l158 279h252l-330 -420h-164z" />
    <glyph glyph-name="uni0327" unicode="&#x327;" horiz-adv-x="0" 
d="M-51 0h131l-55 -121q213 0 213 -172q0 -100 -58 -148t-160 -48q-16 0 -38 3t-55.5 14.5t-60.5 29.5t-47 53t-20 80h144q0 -19 20.5 -28t48.5 -9q72 0 72 57q0 62 -113 62h-114z" />
    <glyph glyph-name="endash" unicode="&#x2013;" horiz-adv-x="1024" 
d="M61 377v205h697v-205h-697z" />
    <glyph glyph-name="emdash" unicode="&#x2014;" horiz-adv-x="1556" 
d="M61 377v205h1434v-205h-1434z" />
    <glyph glyph-name="quoteleft" unicode="&#x2018;" horiz-adv-x="417" 
d="M356 1069q0 -74 -35.5 -110.5t-111.5 -36.5q-148 0 -148 147q0 54 13 108.5t39.5 109t76 99t115.5 68.5l33 -49q-99 -92 -119 -188q71 -3 104 -39.5t33 -108.5z" />
    <glyph glyph-name="quoteright" unicode="&#x2019;" horiz-adv-x="417" 
d="M61 1307q0 147 148 147q76 0 111.5 -36.5t35.5 -110.5q0 -54 -12.5 -108.5t-39.5 -109t-76 -99t-115 -68.5l-33 49q99 92 119 188q-71 3 -104.5 40t-33.5 108z" />
    <glyph glyph-name="quotesinglbase" unicode="&#x201a;" horiz-adv-x="417" 
d="M61 123q0 147 148 147q76 0 111.5 -36.5t35.5 -110.5q0 -54 -12.5 -108.5t-39.5 -109t-76 -99t-115 -68.5l-33 49q99 92 119 188q-71 3 -104.5 40t-33.5 108z" />
    <glyph glyph-name="quotedblleft" unicode="&#x201c;" horiz-adv-x="796" 
d="M735 1069q0 -74 -35.5 -110.5t-111.5 -36.5q-148 0 -148 147q0 54 13 108.5t39.5 109t76 99t115.5 68.5l33 -49q-99 -92 -119 -188q71 -3 104 -39.5t33 -108.5zM356 1069q0 -74 -35.5 -110.5t-111.5 -36.5q-148 0 -148 147q0 54 13 108.5t39.5 109t76 99t115.5 68.5
l33 -49q-99 -92 -119 -188q71 -3 104 -39.5t33 -108.5z" />
    <glyph glyph-name="quotedblright" unicode="&#x201d;" horiz-adv-x="796" 
d="M61 1307q0 147 148 147q76 0 111.5 -36.5t35.5 -110.5q0 -54 -12.5 -108.5t-39.5 -109t-76 -99t-115 -68.5l-33 49q99 92 119 188q-71 3 -104.5 40t-33.5 108zM440 1307q0 147 148 147q76 0 111.5 -36.5t35.5 -110.5q0 -54 -12.5 -108.5t-39.5 -109t-76 -99t-115 -68.5
l-33 49q99 92 119 188q-71 3 -104.5 40t-33.5 108z" />
    <glyph glyph-name="quotedblbase" unicode="&#x201e;" horiz-adv-x="796" 
d="M61 123q0 147 148 147q76 0 111.5 -36.5t35.5 -110.5q0 -54 -12.5 -108.5t-39.5 -109t-76 -99t-115 -68.5l-33 49q99 92 119 188q-71 3 -104.5 40t-33.5 108zM440 123q0 147 148 147q76 0 111.5 -36.5t35.5 -110.5q0 -54 -12.5 -108.5t-39.5 -109t-76 -99t-115 -68.5
l-33 49q99 92 119 188q-71 3 -104.5 40t-33.5 108z" />
    <glyph glyph-name="Euro" unicode="&#x20ac;" horiz-adv-x="1656" 
d="M952 -31q-323 0 -509.5 124.5t-241.5 377.5h-181v205h156v41v53h-156v205h181q55 247 228.5 368t471.5 121q350 0 528.5 -125t178.5 -403h-369q0 48 -29 83t-79.5 53t-106.5 26t-123 8q-207 0 -278 -131h237v-205h-282q-3 -24 -3 -51q0 -22 3 -43h282v-205h-231
q86 -143 321 -143q63 0 108.5 5t92 19.5t71.5 46.5t25 80h369q0 -140 -47 -240t-136.5 -158.5t-207.5 -85t-273 -26.5z" />
    <glyph glyph-name="trademark" unicode="&#x2122;" horiz-adv-x="1974" 
d="M317 672v676h-256v184h717v-184h-256v-676h-205zM877 672v860h233l285 -537l282 537h234v-860h-234v395l-209 -395h-147l-211 397v-397h-233z" />
    <glyph glyph-name="minus" unicode="&#x2212;" horiz-adv-x="696" 
d="M61 377v205h574v-205h-574z" />
    <glyph glyph-name="s_t" unicode="&#xfb06;" horiz-adv-x="2203" 
d="M61 707q0 187 113.5 267.5t388.5 80.5q102 0 191 -13q-31 152 -31 205q0 100 32 176.5t82 121.5t119.5 73.5t135.5 38.5t139 10q102 0 183.5 -27.5t130.5 -69t81.5 -95.5t44.5 -103t12 -96v-252h471v-328h-471v-284q0 -105 82 -105q46 0 68 19t22 63h328
q0 -229 -107.5 -324.5t-326.5 -95.5q-224 0 -329 105t-105 319v303h-185v328h185q26 117 30.5 198t-13 126t-49.5 64.5t-83 19.5q-82 0 -126 -56.5t-44 -146.5q0 -60 31 -254.5t33 -284.5v-14h-328q0 46 -65 64t-220 18q-123 0 -123 -41q0 -20 58 -32.5t194 -27.5
q202 -24 275 -45q150 -43 198 -149q27 -60 27 -146q0 -181 -123.5 -264.5t-370.5 -83.5q-289 0 -422 90t-133 289h328q0 -44 71.5 -63t219.5 -19q63 0 98 12t35 31q0 21 -43 29.5t-155 17.5q-36 2 -56 4q-56 5 -98.5 10t-97 16.5t-94.5 27t-81.5 42t-67.5 60.5t-42.5 82.5
t-16.5 108.5z" />
    <glyph glyph-name="A.ss01" horiz-adv-x="1427" 
d="M-41 0l547 1434h416l546 -1434h-415l-338 889l-340 -889h-416z" />
    <glyph glyph-name="E.ss01" horiz-adv-x="1351" 
d="M61 1085v349h1229v-349h-1229zM61 543v348h1229v-348h-1229zM61 0v348h1229v-348h-1229z" />
    <glyph glyph-name="D.ss01" horiz-adv-x="1505" 
d="M707 0h-605v348h605q337 0 337 371q0 366 -337 366h-605v349h605q737 0 737 -717t-737 -717z" />
    <glyph glyph-name="K.ss01" horiz-adv-x="1519" 
d="M102 1434h390v-813l516 813h460l-688 -1086h699v-348h-1377v1434z" />
    <glyph glyph-name="R.ss01" horiz-adv-x="1519" 
d="M102 0v1434h1377v-349h-699l688 -1085h-460l-516 815v-815h-390z" />
    <glyph glyph-name="O.ss01" horiz-adv-x="1597" 
d="M61 717q0 747 738 747q737 0 737 -747q0 -748 -737 -748q-738 0 -738 748z" />
    <glyph glyph-name="M.ss01" horiz-adv-x="1929" 
d="M102 0v1434h390v-1434h-390zM1827 0h-389v1434h389v-1434zM770 256v922h389v-922h-389z" />
    <glyph glyph-name="W.ss01" horiz-adv-x="1929" 
d="M1827 1434v-1434h-389v1434h389zM102 1434h390v-1434h-390v1434zM1159 922v-922h-389v922h389z" />
    <glyph glyph-name="a.ss02" horiz-adv-x="1290" 
d="M819 0v141q-81 -172 -284 -172q-210 0 -342 142t-132 401q0 262 124.5 402.5t340.5 140.5q212 0 293 -166v135h369v-1024h-369zM440 512q0 -205 189 -205q190 0 190 205t-190 205q-103 0 -146 -50t-43 -155z" />
    <glyph glyph-name="g.ss02" 
d="M61 543q0 238 124 364.5t341 126.5q213 0 293 -151v121h369v-898q0 -128 -27.5 -222t-76.5 -154t-126.5 -96t-167 -50t-208.5 -14q-504 0 -504 379h328q0 -41 59.5 -61.5t130.5 -20.5q111 0 167 49.5t56 130.5v160q-80 -156 -284 -156q-210 0 -342 128.5t-132 363.5z
M440 543q0 -75 48 -114.5t141 -39.5q190 0 190 154q0 153 -190 153q-103 0 -146 -37t-43 -116z" />
    <glyph glyph-name="y.ss02" horiz-adv-x="1273" 
d="M106 1024h369v-455q0 -93 37.5 -136.5t130.5 -43.5q87 0 133.5 34t46.5 99v502h369v-897q0 -128 -27.5 -222.5t-76.5 -154.5t-126.5 -96t-167 -50t-208.5 -14q-504 0 -504 379h328q0 -41 59.5 -61.5t130.5 -20.5q111 0 167 50t56 131v122q-104 -139 -303 -139
q-103 0 -176 21t-128.5 72.5t-82.5 143t-27 226.5v510z" />
    <glyph glyph-name="r.ss01" horiz-adv-x="1085" 
d="M471 0h-369v1024h942v-328h-573v-696z" />
    <glyph glyph-name="a.ss01" horiz-adv-x="1263" 
d="M793 0v395l-320 -395h-473l563 696h-426v328h1024v-1024h-368z" />
    <glyph glyph-name="k.ss01" horiz-adv-x="1263" 
d="M471 1024v-395l320 395h473l-564 -696h426v-328h-1024v1024h369z" />
    <glyph glyph-name="o.ss01" horiz-adv-x="1300" 
d="M61 512q0 543 588 543q590 0 590 -543t-590 -543q-588 0 -588 543z" />
    <glyph glyph-name="t_t" horiz-adv-x="2043" 
d="M225 393v303h-184v328h184l164 410h205v-410h561l164 410h205v-410h471v-328h-471v-284q0 -105 82 -105q46 0 68 19t22 63h327q0 -229 -107.5 -324.5t-326.5 -95.5q-224 0 -329 105t-105 319v303h-561v-284q0 -105 82 -105q46 0 68 19t22 63h328q0 -229 -108 -324.5
t-327 -95.5q-224 0 -329 105t-105 319z" />
    <glyph glyph-name="o_o" horiz-adv-x="2099" 
d="M61 512q0 543 588 543q255 0 400 -103q145 103 399 103q590 0 590 -543t-590 -543q-254 0 -399 103q-145 -103 -400 -103q-588 0 -588 543zM440 512q0 -205 209 -205q211 0 211 205t-211 205q-114 0 -161.5 -50t-47.5 -155zM1239 512q0 -205 209 -205q211 0 211 205
t-211 205q-114 0 -161.5 -50t-47.5 -155z" />
    <glyph glyph-name="agrave.ss01" horiz-adv-x="1290" 
d="M842 1272l-99 -74l-335 379l163 123zM819 0v141q-81 -172 -284 -172q-210 0 -342 142t-132 401q0 262 124.5 402.5t340.5 140.5q212 0 293 -166v135h369v-1024h-369zM440 512q0 -205 189 -205q190 0 190 205t-190 205q-103 0 -146 -50t-43 -155z" />
    <glyph glyph-name="aacute.ss01" horiz-adv-x="1290" 
d="M408 1272l270 428l164 -123l-336 -379zM819 0v141q-81 -172 -284 -172q-210 0 -342 142t-132 401q0 262 124.5 402.5t340.5 140.5q212 0 293 -166v135h369v-1024h-369zM440 512q0 -205 189 -205q190 0 190 205t-190 205q-103 0 -146 -50t-43 -155z" />
    <glyph glyph-name="acircumflex.ss01" horiz-adv-x="1290" 
d="M707 1628l329 -420h-252l-161 279l-158 -279h-252l330 420h164zM819 0v141q-81 -172 -284 -172q-210 0 -342 142t-132 401q0 262 124.5 402.5t340.5 140.5q212 0 293 -166v135h369v-1024h-369zM440 512q0 -205 189 -205q190 0 190 205t-190 205q-103 0 -146 -50t-43 -155
z" />
    <glyph glyph-name="atilde.ss01" horiz-adv-x="1290" 
d="M215 1208q0 64 11 116.5t35 97.5t69 70.5t108 25.5q50 0 101 -19.5t86 -43t75 -43t70 -19.5q61 0 61 104h205q0 -67 -9.5 -118.5t-33 -96.5t-69 -69.5t-111.5 -24.5q-61 0 -116 19.5t-87 43t-69 43t-66 19.5q-14 0 -24 -4.5t-15.5 -14.5t-9 -17.5t-5 -23.5t-1.5 -22v-23
h-205zM819 0v141q-81 -172 -284 -172q-210 0 -342 142t-132 401q0 262 124.5 402.5t340.5 140.5q212 0 293 -166v135h369v-1024h-369zM440 512q0 -205 189 -205q190 0 190 205t-190 205q-103 0 -146 -50t-43 -155z" />
    <glyph glyph-name="adieresis.ss01" horiz-adv-x="1290" 
d="M250 1352q0 58 42 100.5t101 42.5t101.5 -42.5t42.5 -100.5t-42.5 -101t-101.5 -43q-58 0 -100.5 42.5t-42.5 101.5zM723 1352q0 58 42.5 100.5t100.5 42.5q59 0 101.5 -42.5t42.5 -100.5t-43 -101t-101 -43t-100.5 42.5t-42.5 101.5zM819 0v141q-81 -172 -284 -172
q-210 0 -342 142t-132 401q0 262 124.5 402.5t340.5 140.5q212 0 293 -166v135h369v-1024h-369zM440 512q0 -205 189 -205q190 0 190 205t-190 205q-103 0 -146 -50t-43 -155z" />
    <glyph glyph-name="aring.ss01" horiz-adv-x="1290" 
d="M338 1423q0 97 79 156t208 59q130 0 209 -59t79 -156t-79 -156t-209 -59q-129 0 -208 59t-79 156zM551 1423q0 -23 20 -37t52 -14q34 0 53.5 14t19.5 37t-20 37.5t-53 14.5q-32 0 -52 -14.5t-20 -37.5zM819 0v141q-81 -172 -284 -172q-210 0 -342 142t-132 401
q0 262 124.5 402.5t340.5 140.5q212 0 293 -166v135h369v-1024h-369zM440 512q0 -205 189 -205q190 0 190 205t-190 205q-103 0 -146 -50t-43 -155z" />
    <glyph glyph-name="yacute.ss02" horiz-adv-x="1273" 
d="M420 1241l270 428l164 -123l-336 -379zM106 1024h369v-455q0 -93 37.5 -136.5t130.5 -43.5q87 0 133.5 34t46.5 99v502h369v-897q0 -128 -27.5 -222.5t-76.5 -154.5t-126.5 -96t-167 -50t-208.5 -14q-504 0 -504 379h328q0 -41 59.5 -61.5t130.5 -20.5q111 0 167 50
t56 131v122q-104 -139 -303 -139q-103 0 -176 21t-128.5 72.5t-82.5 143t-27 226.5v510z" />
    <glyph glyph-name="ydieresis.ss02" horiz-adv-x="1273" 
d="M262 1321q0 58 42.5 100.5t101.5 42.5q58 0 100.5 -42t42.5 -101t-42.5 -101t-100.5 -42q-59 0 -101.5 42.5t-42.5 100.5zM735 1321q0 58 42.5 100.5t101.5 42.5t101 -42t42 -101t-42 -101t-101 -42t-101.5 42.5t-42.5 100.5zM106 1024h369v-455q0 -93 37.5 -136.5
t130.5 -43.5q87 0 133.5 34t46.5 99v502h369v-897q0 -128 -27.5 -222.5t-76.5 -154.5t-126.5 -96t-167 -50t-208.5 -14q-504 0 -504 379h328q0 -41 59.5 -61.5t130.5 -20.5q111 0 167 50t56 131v122q-104 -139 -303 -139q-103 0 -176 21t-128.5 72.5t-82.5 143t-27 226.5
v510z" />
    </font>
</defs>
</svg>
